<svg width="44" height="44" viewBox="0 0 44 44" fill="none" xmlns="http://www.w3.org/2000/svg">
<path d="M39.416 36.6668H38.4994V18.3335C38.4994 13.9574 36.761 9.76058 33.6666 6.66623C30.5723 3.57188 26.3754 1.8335 21.9993 1.8335C17.6233 1.8335 13.4264 3.57188 10.3321 6.66623C7.23774 9.76058 5.49935 13.9574 5.49935 18.3335V36.6668H4.58268C4.33957 36.6668 4.10641 36.7634 3.9345 36.9353C3.76259 37.1072 3.66602 37.3404 3.66602 37.5835V41.2502C3.66602 41.4933 3.76259 41.7264 3.9345 41.8983C4.10641 42.0703 4.33957 42.1668 4.58268 42.1668H39.416C39.6591 42.1668 39.8923 42.0703 40.0642 41.8983C40.2361 41.7264 40.3327 41.4933 40.3327 41.2502V37.5835C40.3327 37.3404 40.2361 37.1072 40.0642 36.9353C39.8923 36.7634 39.6591 36.6668 39.416 36.6668ZM7.33268 18.3335C7.33268 14.4437 8.87792 10.7131 11.6284 7.9626C14.379 5.21206 18.1095 3.66683 21.9993 3.66683C25.8892 3.66683 29.6197 5.21206 32.3702 7.9626C35.1208 10.7131 36.666 14.4437 36.666 18.3335V36.6668H34.8327V18.3335C34.9956 14.9299 33.7997 11.601 31.5082 9.07907C29.2166 6.55718 26.0171 5.04888 22.6135 4.886C19.2099 4.72311 15.881 5.91897 13.3591 8.21051C10.8372 10.502 9.3289 13.7016 9.16602 17.1052C9.14858 17.2083 9.14858 17.3137 9.16602 17.4168C9.15576 17.4775 9.15576 17.5395 9.16602 17.6002C9.16602 17.8385 9.16602 18.0952 9.16602 18.3335V36.6668H7.33268V18.3335ZM10.9993 36.6668V33.0002H21.0827V36.6668H10.9993ZM32.8343 16.5002H22.916V7.3335C25.3531 7.54128 27.6514 8.55537 29.4476 10.2155C31.2438 11.8756 32.4355 14.087 32.8343 16.5002ZM32.9993 23.8335H22.916V18.3335H32.9993V23.8335ZM21.0827 23.8335H10.9993V18.3335H21.0827V23.8335ZM10.9993 25.6668H21.0827V31.1668H10.9993V25.6668ZM22.916 25.6668H32.9993V31.1668H22.916V25.6668ZM21.0827 16.5002H11.1643C11.5632 14.087 12.7549 11.8756 14.5511 10.2155C16.3473 8.55537 18.6456 7.54128 21.0827 7.3335V16.5002ZM22.916 33.0002H32.9993V36.6668H22.916V33.0002ZM38.4994 40.3335H5.49935V38.5002H38.4994V40.3335Z" fill="#29C555"/>
</svg>
