<svg width="44" height="44" viewBox="0 0 44 44" fill="none" xmlns="http://www.w3.org/2000/svg">
<path d="M41.4511 24.97C40.7641 24.2242 39.8993 23.6649 38.9374 23.3443C37.9755 23.0236 36.948 22.9522 35.9511 23.1366L27.5177 24.4383C26.9725 23.9479 26.3222 23.5888 25.6167 23.3886C24.9112 23.1884 24.1693 23.1524 23.4477 23.2833L17.9477 24.1266C17.1817 23.2106 16.2132 22.4853 15.1186 22.0081C14.0241 21.5308 12.8335 21.3146 11.6411 21.3766L9.45939 21.725L9.34939 20.9733C9.26018 20.5196 9.0028 20.1163 8.62882 19.8443C8.25483 19.5723 7.79188 19.4517 7.33273 19.5066L3.33606 20.1666C2.87202 20.2477 2.45701 20.5044 2.1771 20.8833C1.89719 21.2621 1.77388 21.7343 1.83273 22.2016L3.9044 35.585C3.94038 35.8252 4.02374 36.0558 4.14963 36.2636C4.27552 36.4713 4.44143 36.6519 4.63773 36.795C4.95229 37.0227 5.33105 37.1447 5.7194 37.1433H5.9944L9.89939 36.5383C10.1396 36.5023 10.3703 36.419 10.578 36.2931C10.7857 36.1672 10.9663 36.0013 11.1094 35.805C11.394 35.414 11.5126 34.9264 11.4394 34.4483L9.71606 23.5766L11.9161 23.2466C14.5194 22.8433 16.8294 25.6666 16.8477 25.6666C16.9505 25.7915 17.084 25.8875 17.235 25.9453C17.386 26.0032 17.5495 26.0208 17.7094 25.9966L23.7411 25.08C24.673 25.0158 25.5975 25.2847 26.3496 25.8387C27.1018 26.3927 27.6327 27.1959 27.8477 28.105L16.2061 29.9383C15.9629 29.9553 15.7365 30.0682 15.5767 30.2522C15.4168 30.4361 15.3365 30.676 15.3536 30.9191C15.3706 31.1623 15.4835 31.3886 15.6674 31.5485C15.8514 31.7084 16.0913 31.7887 16.3344 31.7716H16.4994L29.2044 29.8283C29.3263 29.8091 29.4429 29.765 29.547 29.6988C29.6511 29.6326 29.7404 29.5456 29.8094 29.4433C29.8815 29.3405 29.9317 29.224 29.957 29.101C29.9822 28.978 29.9819 28.8512 29.9561 28.7283C29.7476 27.8165 29.3948 26.9438 28.9111 26.1433L36.2444 25.0066C36.8595 24.8781 37.4957 24.8904 38.1053 25.0428C38.715 25.1952 39.2822 25.4837 39.7644 25.8866C39.9694 26.0569 40.1431 26.2617 40.2777 26.4916C39.1594 27.06 36.9411 28.325 33.7511 29.9933C29.1494 32.4866 22.1827 36.2633 21.2844 36.4833C21.1744 36.4833 20.1294 36.4833 13.6394 34.65C13.525 34.6165 13.4052 34.6061 13.2868 34.6194C13.1684 34.6327 13.0538 34.6694 12.9497 34.7275C12.8456 34.7855 12.7541 34.8636 12.6805 34.9573C12.607 35.051 12.5527 35.1584 12.5211 35.2733C12.4874 35.3889 12.4767 35.5099 12.4898 35.6296C12.5029 35.7493 12.5394 35.8652 12.5973 35.9707C12.6552 36.0763 12.7333 36.1694 12.8272 36.2448C12.921 36.3201 13.0288 36.3763 13.1444 36.41C15.7661 37.3085 18.4766 37.9232 21.2294 38.2433H21.5594C22.4394 38.0966 26.1427 36.1533 34.6311 31.5333C37.8944 29.7 40.9561 28.105 41.6344 27.8666C41.7551 27.8148 41.8642 27.7395 41.9555 27.6451C42.0468 27.5506 42.1183 27.439 42.1661 27.3166C42.2522 26.8969 42.232 26.4622 42.1071 26.0524C41.9822 25.6425 41.7566 25.2703 41.4511 24.97ZM5.68273 35.31L3.66606 22L7.57106 21.4133L9.64273 34.7966L5.68273 35.31Z" fill="#926539"/>
<path fill-rule="evenodd" clip-rule="evenodd" d="M23.9606 19.9344C23.6608 20.0216 23.3418 20.0219 23.0419 19.9351C21.5239 19.4959 20.2507 18.3792 19.4354 17.6472C18.4057 16.7225 17.6086 15.5794 17.109 14.3049C17.037 14.1211 17 13.9258 17 13.7288V6.61352C17 5.94051 17.4277 5.33944 18.0702 5.10966L18.625 6.61352V13.7288C19.0329 14.7695 19.685 15.7058 20.5304 16.465C21.3759 17.2242 22.3921 18.0795 23.5 18.4C24.6108 18.0767 25.6289 17.2174 26.4745 16.4533C27.3202 15.6893 27.9706 14.7477 28.375 13.702V6.59344L28.9225 5.08699C29.5688 5.3147 30 5.91763 30 6.59344V13.702C30 13.8966 29.964 14.0895 29.8936 14.2714C29.3984 15.552 28.6032 16.7017 27.5732 17.6322C26.7558 18.3707 25.4817 19.4917 23.9606 19.9344ZM19.8747 4.56205C20.8708 4.30023 22.2553 4.00187 23.4975 4.00001C24.7373 3.99815 26.1212 4.29059 27.1175 4.54795C27.6322 4.68092 28.0775 4.81369 28.3952 4.91354C28.5545 4.96359 28.6828 5.0057 28.7728 5.03588C28.8179 5.05098 28.8535 5.06311 28.8787 5.07179L28.9087 5.08216L28.9177 5.08529L28.9221 5.08686C28.9223 5.08693 28.9225 5.08699 28.375 6.59344C28.375 6.59344 25.5469 5.59694 23.5 5.60001C21.4501 5.60308 18.625 6.61352 18.625 6.61352C18.0702 5.10966 18.0704 5.1096 18.0706 5.10953L18.075 5.10793L18.084 5.10475L18.114 5.09422C18.1392 5.08541 18.1748 5.0731 18.2198 5.05778C18.3099 5.02715 18.4381 4.98441 18.5973 4.93359C18.9149 4.83221 19.36 4.69733 19.8747 4.56205Z" fill="#926539"/>
</svg>
