<svg width="44" height="44" viewBox="0 0 44 44" fill="none" xmlns="http://www.w3.org/2000/svg">
<path d="M22.2936 29.9747L17.3436 33.458L3.22696 24.658C2.8603 24.4747 2.3103 24.4747 1.94363 25.0247C1.7603 25.3913 1.7603 25.9413 2.3103 26.308L16.427 35.108C16.7936 35.2913 16.977 35.4747 17.3436 35.4747C17.7103 35.4747 18.077 35.2913 18.4436 35.108L23.3936 31.6247C23.7603 31.258 23.9436 30.708 23.577 30.3413C23.2103 29.9747 22.6603 29.7913 22.2936 29.9747Z" fill="#29C555"/>
<path d="M40.6273 17.3249L35.1273 21.1749C34.7607 21.5415 34.5773 22.0915 34.944 22.4582C35.1273 22.6415 35.494 22.8249 35.6773 22.8249C35.8607 22.8249 36.044 22.8249 36.2273 22.6415L41.7273 18.7915C42.094 18.4249 42.2773 17.8749 41.9107 17.5082C41.7273 17.1415 40.994 16.9582 40.6273 17.3249Z" fill="#29C555"/>
<path d="M22.2936 34.5581L17.3436 38.0415L3.22696 29.2415C2.8603 29.0582 2.3103 29.0581 1.94363 29.6081C1.7603 29.9748 1.7603 30.5248 2.3103 30.8915L16.427 39.6915C16.7936 39.8748 16.977 40.0581 17.3436 40.0581C17.7103 40.0581 18.077 39.8748 18.4436 39.6915L23.3936 36.2081C23.7603 35.8415 23.9436 35.2915 23.577 34.9248C23.2103 34.5581 22.6603 34.3748 22.2936 34.5581Z" fill="#29C555"/>
<path d="M40.6273 21.9084L35.1273 25.7584C34.7607 26.125 34.5773 26.675 34.944 27.0417C35.1273 27.225 35.494 27.4084 35.6773 27.4084C35.8607 27.4084 36.044 27.4084 36.2273 27.225L41.7273 23.375C42.094 23.0084 42.2773 22.4584 41.9107 22.0917C41.7273 21.725 40.994 21.5417 40.6273 21.9084Z" fill="#29C555"/>
<path d="M40.6275 14.9415C41.1775 14.5748 41.3608 14.0248 41.3608 13.4748C41.3608 12.9248 40.9941 12.3748 40.4441 12.0082L27.4275 3.9415C26.8775 3.57484 25.9608 3.57484 25.4108 3.9415L16.6108 9.9915L11.2941 13.6582L3.41081 19.1582C2.86081 19.5248 2.49414 20.2582 2.49414 20.8082C2.49414 21.3582 2.86081 21.9082 3.41081 22.2748L16.4275 30.5248C16.7941 30.7082 16.9775 30.8915 17.3441 30.8915C17.7108 30.8915 18.0775 30.7082 18.4441 30.5248L25.5941 25.5748V32.9082C25.5941 33.2748 25.7775 33.6415 26.1441 33.6415C26.3275 33.6415 26.5108 33.8248 26.5108 33.8248C26.6941 33.8248 26.8775 33.8248 27.0608 33.6415L32.5608 29.7915C32.7441 29.6082 32.9275 29.4248 32.9275 29.0582V20.2582L40.6275 14.9415ZM26.5108 5.40817L39.5275 13.4748L32.0108 18.6082L18.8108 10.7248L26.5108 5.40817ZM17.3441 28.8748L4.32747 20.8082L11.6608 15.6748L24.6775 23.7415L17.3441 28.8748ZM31.0941 28.5082L27.4275 31.0748V23.7415C27.4275 23.5582 27.4275 23.5582 27.4275 23.3748C27.4275 23.3748 27.4275 23.3748 27.4275 23.1915C27.4275 23.0082 27.2441 23.0082 27.2441 23.0082L13.4941 14.5748L17.3441 12.0082L31.0941 20.2582V28.5082Z" fill="#29C555"/>
</svg>
