<svg width="44" height="44" viewBox="0 0 44 44" fill="none" xmlns="http://www.w3.org/2000/svg">
<path d="M36.6667 9.16683H10.0833C9.35399 9.16683 8.65451 8.8771 8.13879 8.36137C7.62306 7.84565 7.33333 7.14617 7.33333 6.41683C7.33333 5.68748 7.62306 4.98801 8.13879 4.47229C8.65451 3.95656 9.35399 3.66683 10.0833 3.66683H37.5833C37.8265 3.66683 38.0596 3.57025 38.2315 3.39834C38.4034 3.22644 38.5 2.99328 38.5 2.75016C38.5 2.50705 38.4034 2.27389 38.2315 2.10198C38.0596 1.93007 37.8265 1.8335 37.5833 1.8335H10.0833C8.86776 1.8335 7.70197 2.31638 6.84243 3.17592C5.98289 4.03547 5.5 5.20125 5.5 6.41683V37.5835C5.5 38.7991 5.98289 39.9649 6.84243 40.8244C7.70197 41.6839 8.86776 42.1668 10.0833 42.1668H36.6667C37.1529 42.1668 37.6192 41.9737 37.963 41.6299C38.3068 41.286 38.5 40.8197 38.5 40.3335V11.0002C38.5 10.5139 38.3068 10.0476 37.963 9.7038C37.6192 9.35998 37.1529 9.16683 36.6667 9.16683ZM36.6667 40.3335H10.0833C9.35399 40.3335 8.65451 40.0438 8.13879 39.528C7.62306 39.0123 7.33333 38.3128 7.33333 37.5835V10.0835C8.12853 10.675 9.09228 10.9962 10.0833 11.0002H36.6667V40.3335Z" fill="#926539"/>
<path d="M13.7507 5.5C13.5075 5.5 13.2744 5.59658 13.1025 5.76849C12.9306 5.94039 12.834 6.17355 12.834 6.41667C12.834 6.65978 12.9306 6.89294 13.1025 7.06485C13.2744 7.23676 13.5075 7.33333 13.7507 7.33333H32.084C32.3271 7.33333 32.5603 7.23676 32.7322 7.06485C32.9041 6.89294 33.0007 6.65978 33.0007 6.41667C33.0007 6.17355 32.9041 5.94039 32.7322 5.76849C32.5603 5.59658 32.3271 5.5 32.084 5.5H13.7507Z" fill="#926539"/>
<path d="M22.0007 34.8333C23.8136 34.8333 25.5859 34.2957 27.0934 33.2885C28.6008 32.2812 29.7757 30.8496 30.4695 29.1746C31.1634 27.4996 31.3449 25.6565 30.9912 23.8783C30.6375 22.1002 29.7644 20.4668 28.4825 19.1849C27.2005 17.9029 25.5671 17.0298 23.789 16.6761C22.0108 16.3224 20.1677 16.504 18.4927 17.1978C16.8177 17.8916 15.3861 19.0665 14.3788 20.5739C13.3716 22.0814 12.834 23.8537 12.834 25.6667C12.834 28.0978 13.7998 30.4294 15.5188 32.1485C17.2379 33.8676 19.5695 34.8333 22.0007 34.8333ZM22.0007 18.3333C23.451 18.3333 24.8689 18.7634 26.0748 19.5692C27.2808 20.375 28.2207 21.5203 28.7758 22.8603C29.3308 24.2003 29.476 25.6748 29.1931 27.0973C28.9101 28.5199 28.2117 29.8265 27.1861 30.8521C26.1605 31.8777 24.8538 32.5761 23.4313 32.8591C22.0088 33.1421 20.5343 32.9968 19.1943 32.4418C17.8543 31.8867 16.709 30.9468 15.9032 29.7409C15.0974 28.5349 14.6673 27.1171 14.6673 25.6667C14.6673 23.7218 15.4399 21.8565 16.8152 20.4812C18.1905 19.106 20.0557 18.3333 22.0007 18.3333Z" fill="#926539"/>
<path d="M20.735 28.3067C20.908 28.4873 21.145 28.5926 21.3949 28.6001C21.5269 28.5966 21.6564 28.5635 21.7738 28.5032C21.8912 28.4429 21.9936 28.3569 22.0733 28.2517L25.3366 24.2367C25.4274 24.1462 25.4982 24.0377 25.5444 23.9181C25.5906 23.7985 25.6113 23.6706 25.605 23.5426C25.5987 23.4146 25.5656 23.2893 25.5079 23.1748C25.4502 23.0604 25.3691 22.9593 25.2699 22.8781C25.1707 22.7969 25.0555 22.7375 24.9319 22.7036C24.8083 22.6696 24.6789 22.662 24.5522 22.6812C24.4254 22.7004 24.3041 22.746 24.1961 22.815C24.0881 22.8839 23.9957 22.9748 23.9249 23.0817L21.3216 26.2901L19.965 24.8417C19.7972 24.6642 19.5658 24.5607 19.3217 24.5538C19.0776 24.5469 18.8408 24.6373 18.6633 24.8051C18.4858 24.9728 18.3822 25.2042 18.3754 25.4483C18.3685 25.6924 18.4589 25.9292 18.6266 26.1067L20.735 28.3067Z" fill="#926539"/>
</svg>
