<svg width="44" height="44" viewBox="0 0 44 44" fill="none" xmlns="http://www.w3.org/2000/svg">
<path d="M41.9461 12.2833C41.9317 11.8888 41.7902 11.5094 41.5428 11.2017L34.8328 2.89668C34.7296 2.78974 34.6124 2.69724 34.4845 2.62168C34.4266 2.55611 34.3585 2.50039 34.2828 2.45668H34.1361H34.0078C33.8307 2.39386 33.6454 2.35681 33.4578 2.34668H10.5228C10.3351 2.35681 10.1499 2.39386 9.97278 2.45668H9.84445H9.69778C9.62206 2.50039 9.55395 2.55611 9.49612 2.62168C9.3746 2.69857 9.26366 2.79102 9.16612 2.89668L2.45612 11.2017C2.2087 11.5094 2.06724 11.8888 2.05278 12.2833V12.2833C2.05015 12.6409 2.15211 12.9914 2.34612 13.2917L20.4594 40.9017C20.6257 41.159 20.8537 41.3705 21.1227 41.517C21.3917 41.6635 21.6931 41.7403 21.9995 41.7403C22.3058 41.7403 22.6072 41.6635 22.8762 41.517C23.1452 41.3705 23.3732 41.159 23.5395 40.9017L41.6528 13.3467C41.8503 13.0411 41.9524 12.6838 41.9461 12.32V12.32V12.2833ZM29.7728 13.2183L21.9995 37.8217L14.2261 13.2183H29.7728ZM15.1061 11.385L21.9995 4.43668L28.8745 11.385H15.1061ZM24.1811 4.05168H32.6511L30.6161 10.5233L24.1811 4.05168ZM13.3828 10.5233L11.3295 4.05168H19.7995L13.3828 10.5233ZM12.3011 13.2183L19.6345 36.2817L4.45445 13.2183H12.3011ZM31.6978 13.2183H39.5445L24.4011 36.2817L31.6978 13.2183ZM39.3428 11.385H32.2661L34.2645 5.04168L39.3428 11.385ZM9.73445 5.04168L11.7328 11.385H4.65612L9.73445 5.04168Z" fill="#29C555"/>
</svg>
