<svg width="44" height="44" viewBox="0 0 44 44" fill="none" xmlns="http://www.w3.org/2000/svg">
<path d="M0.873024 38.2211C0.71899 38.7515 1.02407 39.3063 1.55444 39.4604C2.08481 39.6144 2.63963 39.3093 2.79366 38.7789L0.873024 38.2211ZM28.373 38.7789C28.5271 39.3093 29.0819 39.6144 29.6122 39.4604C30.1426 39.3063 30.4477 38.7515 30.2937 38.2211L28.373 38.7789ZM41.2086 38.7867C41.367 39.3158 41.9242 39.6164 42.4533 39.4581C42.9824 39.2997 43.283 38.7425 43.1247 38.2134L41.2086 38.7867ZM22.2222 15.125C22.2222 18.8947 19.2313 21.9167 15.5833 21.9167V23.9167C20.373 23.9167 24.2222 19.9618 24.2222 15.125H22.2222ZM15.5833 21.9167C11.9354 21.9167 8.94445 18.8947 8.94445 15.125H6.94445C6.94445 19.9618 10.7936 23.9167 15.5833 23.9167V21.9167ZM8.94445 15.125C8.94445 11.3553 11.9354 8.33337 15.5833 8.33337V6.33337C10.7936 6.33337 6.94445 10.2883 6.94445 15.125H8.94445ZM15.5833 8.33337C19.2313 8.33337 22.2222 11.3553 22.2222 15.125H24.2222C24.2222 10.2883 20.373 6.33337 15.5833 6.33337V8.33337ZM2.79366 38.7789C4.52223 32.8271 9.63246 28.5917 15.5833 28.5917V26.5917C8.62995 26.5917 2.8168 31.5283 0.873024 38.2211L2.79366 38.7789ZM37.0926 21.5417C37.0926 23.7644 35.2698 25.5834 33 25.5834V27.5834C36.3554 27.5834 39.0926 24.8879 39.0926 21.5417H37.0926ZM33 25.5834C30.7302 25.5834 28.9074 23.7644 28.9074 21.5417H26.9074C26.9074 24.8879 29.6447 27.5834 33 27.5834V25.5834ZM28.9074 21.5417C28.9074 19.319 30.7302 17.5 33 17.5V15.5C29.6447 15.5 26.9074 18.1955 26.9074 21.5417H28.9074ZM33 17.5C35.2698 17.5 37.0926 19.319 37.0926 21.5417H39.0926C39.0926 18.1955 36.3554 15.5 33 15.5V17.5ZM33 32.4417C36.8201 32.4417 40.0995 35.0801 41.2086 38.7867L43.1247 38.2134C41.7856 33.7382 37.7828 30.4417 33 30.4417V32.4417ZM27.6371 34.4207C29.1124 33.1783 30.9759 32.4417 33 32.4417V30.4417C30.4777 30.4417 28.1637 31.3626 26.3488 32.8909L27.6371 34.4207ZM15.5833 28.5917C19.8714 28.5917 23.7119 30.7835 26.1793 34.2371L27.8066 33.0745C25.0035 29.1509 20.5827 26.5917 15.5833 26.5917V28.5917ZM26.1793 34.2371C27.1397 35.5815 27.8897 37.1149 28.373 38.7789L30.2937 38.2211C29.7476 36.3411 28.8987 34.6031 27.8066 33.0745L26.1793 34.2371Z" fill="#926539"/>
</svg>
