<svg width="18" height="18" viewBox="0 0 18 18" fill="none" xmlns="http://www.w3.org/2000/svg">
<path d="M4.89775 4.10225C4.67808 3.88258 4.32193 3.88258 4.10226 4.10225C3.88259 4.32192 3.88259 4.67808 4.10226 4.89775L8.20451 9L4.10225 13.1023C3.88258 13.3219 3.88258 13.6781 4.10225 13.8978C4.32192 14.1174 4.67808 14.1174 4.89775 13.8978L9.00001 9.7955L13.1023 13.8978C13.3219 14.1174 13.6781 14.1174 13.8978 13.8978C14.1174 13.6781 14.1174 13.3219 13.8978 13.1023L9.7955 9L13.8977 4.89775C14.1174 4.67808 14.1174 4.32193 13.8977 4.10226C13.6781 3.88259 13.3219 3.88259 13.1023 4.10226L9.00001 8.20451L4.89775 4.10225Z" fill="white" fill-opacity="0.3"/>
</svg>
