<svg width="165" height="32" viewBox="0 0 165 32" fill="none" xmlns="http://www.w3.org/2000/svg">
<path d="M57.6404 6.75781V25.2408H54.081L44.7419 14.0188V25.2408H40.459V6.75781H44.0446L53.3574 17.9798V6.75781H57.6404Z" fill="white"/>
<path d="M76.5742 21.8084V25.2408H62.0723V6.75781H76.2286V10.1902H66.3785V14.2037H75.0759V17.5306H66.3785V21.8084H76.5742Z" fill="white"/>
<path d="M89.0447 25.5584C87.1001 25.5584 85.3428 25.1446 83.7729 24.3169C82.2653 23.531 80.9985 22.3543 80.1061 20.9107C79.232 19.4501 78.7949 17.813 78.7949 15.9994C78.7949 14.1859 79.232 12.5575 80.1061 11.1143C80.9924 9.65922 82.2602 8.4725 83.7729 7.68191C85.3428 6.85425 87.1001 6.44043 89.0447 6.44043C90.9893 6.44043 92.7376 6.85425 94.2894 7.68191C95.8021 8.47226 97.0697 9.65905 97.9555 11.1143C98.8482 12.558 99.2942 14.1864 99.2937 15.9994C99.2932 17.8125 98.8471 19.4496 97.9555 20.9107C97.0638 22.3543 95.8418 23.4897 94.2894 24.3169C92.7371 25.1441 90.9888 25.5579 89.0447 25.5584ZM89.0447 21.9141C90.1507 21.9141 91.1499 21.6677 92.042 21.175C92.9206 20.6773 93.6431 19.9459 94.1286 19.0627C94.6466 18.1641 94.9053 17.1431 94.9048 15.9994C94.9043 14.8558 94.6456 13.8347 94.1286 12.9361C93.6474 12.0562 92.9233 11.332 92.042 10.8493C91.1494 10.3386 90.1502 10.0833 89.0447 10.0833C87.9391 10.0833 86.94 10.3386 86.0474 10.8493C85.1619 11.3352 84.4297 12.0573 83.933 12.9346C83.432 13.8332 83.1816 14.8543 83.1816 15.9979C83.1816 17.1416 83.432 18.1626 83.933 19.0612C84.4338 19.9424 85.1643 20.6723 86.0474 21.1735C86.9395 21.6672 87.9386 21.9141 89.0447 21.9141Z" fill="white"/>
<path d="M109.376 17.9798L106.861 20.5676V25.2408H102.555V6.75781H106.863V15.392L115.159 6.75781H119.976L112.215 14.9944L120.43 25.2393H115.373L109.376 17.9798Z" fill="white"/>
<path d="M139.541 6.75781V25.2408H135.981L126.642 14.0188V25.2408H122.359V6.75781H125.945L135.258 17.9798V6.75781H139.541Z" fill="white"/>
<path d="M156.308 21.2805H147.611L145.952 25.2408H141.51L149.859 6.75781H154.141L162.514 25.2408H157.965L156.308 21.2805ZM154.944 18.0323L151.973 10.9562L149.003 18.0323H154.944Z" fill="white"/>
<path d="M25.0788 21.6425C25.0404 21.7069 25.0036 21.7705 24.9623 21.8341V21.8386C24.7596 22.1638 24.5404 22.4785 24.3056 22.7814L24.3003 22.7881C24.2575 22.8428 24.2147 22.8974 24.1703 22.9513L24.1485 22.979C24.1065 23.0307 24.0644 23.0816 24.0215 23.1288L23.9952 23.1595C23.9524 23.2104 23.9088 23.2606 23.8645 23.3093L23.845 23.331C23.6504 23.5511 23.446 23.7638 23.2341 23.9682L23.216 23.9862C23.171 24.0288 23.1259 24.0715 23.08 24.1134L23.0357 24.1554L22.9065 24.2722L22.8524 24.3201L22.7239 24.4309L22.6675 24.4781C22.6239 24.5148 22.5804 24.553 22.536 24.5874L22.4872 24.6271C22.3317 24.7514 22.1739 24.8727 22.0116 24.9888L21.9687 25.0202L21.8387 25.1116L21.7636 25.1632L21.6396 25.2464L21.5547 25.3018C21.5149 25.328 21.4743 25.3534 21.4337 25.3766L21.3428 25.4336L21.2226 25.5084L21.1272 25.5638L21.0069 25.6342L20.907 25.6896C20.8446 25.7241 20.7823 25.7585 20.7184 25.7922L20.5802 25.8671L20.4697 25.9225L20.354 25.9794L20.2413 26.0333L20.1241 26.0872L20.0113 26.1382L19.8904 26.1906L19.7784 26.2385L19.6522 26.2894L19.5425 26.3328L19.4042 26.3853L19.305 26.4227L19.0999 26.4976L19.0142 26.526C18.9519 26.547 18.8895 26.5672 18.8264 26.5867C18.7948 26.5972 18.7625 26.6062 18.7302 26.6159C18.6799 26.6316 18.6303 26.6466 18.5799 26.6608L18.4755 26.69L18.3297 26.7297L18.223 26.7567L18.0727 26.7926L17.9676 26.8173C17.915 26.8293 17.8631 26.8405 17.8105 26.851L17.7128 26.872C17.6505 26.8847 17.5873 26.8959 17.525 26.9079L17.4566 26.9206C17.3709 26.9356 17.2853 26.9498 17.1996 26.9626L17.129 26.9731L16.9389 26.9993L16.8412 27.0112L16.6752 27.03L16.57 27.0404L16.4084 27.0547L16.3017 27.0629L16.1364 27.0734L16.0335 27.0794C15.9733 27.0794 15.9125 27.0839 15.8524 27.0861H15.7645C15.675 27.0861 15.5849 27.0861 15.4947 27.0861C14.189 27.0875 12.8933 26.8594 11.6671 26.4122C11.4968 26.3498 11.3282 26.2837 11.1614 26.2138C10.911 26.1085 10.666 25.9944 10.4266 25.8716C10.1871 25.7488 9.95217 25.618 9.72174 25.4792C9.49257 25.3407 9.27091 25.1932 9.04999 25.0389C8.75895 24.8333 8.47869 24.6136 8.20919 24.38C8.14231 24.3224 8.07544 24.2632 8.00931 24.2033C7.87782 24.0842 7.74858 23.9622 7.6231 23.8364C7.49761 23.7106 7.37438 23.5826 7.25416 23.4508C7.1948 23.3856 7.13544 23.319 7.07683 23.2516C6.96062 23.1178 6.84716 22.981 6.73645 22.8413C5.19482 20.8892 4.35833 18.4763 4.36204 15.9921C4.36204 15.8923 4.36354 15.7925 4.36655 15.6926C4.36655 15.6679 4.36655 15.644 4.36655 15.6177C4.36655 15.5429 4.37106 15.468 4.37557 15.3931C4.37557 15.3699 4.37557 15.3467 4.38007 15.3235C4.38458 15.2486 4.38909 15.1737 4.3951 15.0951C4.3951 15.0756 4.3951 15.0569 4.40036 15.0374C4.40712 14.9573 4.41464 14.8772 4.42366 14.7971L4.42816 14.7544C4.42816 14.7544 4.42816 14.7469 4.42816 14.7432H2.75781V28.6788H28.2301V19.9397H25.9008C25.6782 20.5259 25.4057 21.0921 25.0863 21.632L25.0788 21.6425Z" fill="#C2CACC"/>
<path d="M15.4928 4.9065C17.0599 4.90691 18.6093 5.23697 20.0396 5.87509C21.4699 6.51321 22.749 7.44501 23.7931 8.60956C24.8373 9.77411 25.623 11.1452 26.0989 12.6331C26.5748 14.1211 26.7301 15.6923 26.5548 17.2442H28.2282V3.30859H2.75586V12.0596H5.08518C5.88775 9.95648 7.31288 8.14611 9.17161 6.86861C11.0303 5.59111 13.2348 4.90683 15.4928 4.9065Z" fill="#C2CACC"/>
<path d="M19.2988 26.4242L19.398 26.3867L19.2988 26.4242Z" fill="#29C555"/>
<path d="M18.7266 26.6161C18.7589 26.6064 18.7912 26.5974 18.8227 26.5869C18.7912 26.5974 18.7589 26.6064 18.7266 26.6161Z" fill="#29C555"/>
<path d="M19.0098 26.5267L19.0961 26.498L19.0098 26.5267Z" fill="#29C555"/>
<path d="M20.0059 26.1417L20.1186 26.0908L20.0059 26.1417Z" fill="#29C555"/>
<path d="M19.7754 26.2422L19.8874 26.1943L19.7754 26.2422Z" fill="#29C555"/>
<path d="M19.5391 26.3364L19.6488 26.293L19.5391 26.3364Z" fill="#29C555"/>
<path d="M17.9648 26.8177L18.07 26.793L17.9648 26.8177Z" fill="#29C555"/>
<path d="M17.7109 26.8735L17.8086 26.8525L17.7109 26.8735Z" fill="#29C555"/>
<path d="M18.2188 26.7574L18.3254 26.7305L18.2188 26.7574Z" fill="#29C555"/>
<path d="M17.4551 26.9209L17.5235 26.9082L17.4551 26.9209Z" fill="#29C555"/>
<path d="M18.4727 26.6913L18.5771 26.6621L18.4727 26.6913Z" fill="#29C555"/>
<path d="M21.834 25.1167L21.964 25.0254L21.834 25.1167Z" fill="#29C555"/>
<path d="M22.0039 24.9935C22.1662 24.8774 22.324 24.7561 22.4795 24.6318C22.327 24.7561 22.1692 24.8774 22.0039 24.9935Z" fill="#29C555"/>
<path d="M21.6348 25.2521L21.7587 25.1689L21.6348 25.2521Z" fill="#29C555"/>
<path d="M22.5293 24.5927C22.5736 24.5568 22.6172 24.5178 22.6608 24.4834C22.6187 24.5201 22.5751 24.5568 22.5293 24.5927Z" fill="#29C555"/>
<path d="M22.7207 24.436L22.8492 24.3252L22.7207 24.436Z" fill="#29C555"/>
<path d="M20.7148 25.7979C20.7787 25.7642 20.8411 25.7298 20.9034 25.6953C20.8411 25.7298 20.7787 25.7642 20.7148 25.7979Z" fill="#29C555"/>
<path d="M20.4648 25.9265L20.5753 25.8711L20.4648 25.9265Z" fill="#29C555"/>
<path d="M21.2188 25.5143L21.339 25.4395L21.2188 25.5143Z" fill="#29C555"/>
<path d="M20.2383 26.0373L20.351 25.9834L20.2383 26.0373Z" fill="#29C555"/>
<path d="M21.4297 25.3844C21.4703 25.359 21.5108 25.3335 21.5507 25.3096C21.5108 25.3335 21.4703 25.359 21.4297 25.3844Z" fill="#29C555"/>
<path d="M4.3762 15.4053C4.3717 15.4802 4.36944 15.555 4.36719 15.6299C4.36944 15.555 4.3717 15.4802 4.3762 15.4053Z" fill="#29C555"/>
<path d="M6.73438 22.8486C6.84508 22.9879 6.95854 23.1247 7.07476 23.259C6.95954 23.1227 6.84608 22.9859 6.73438 22.8486Z" fill="#29C555"/>
<path d="M4.36389 15.7031C4.36088 15.803 4.35938 15.9028 4.35938 16.0026C4.35938 15.9013 4.36088 15.8015 4.36389 15.7031Z" fill="#29C555"/>
<path d="M7.25 23.458C7.37022 23.5898 7.4927 23.7178 7.61893 23.8436C7.4927 23.7178 7.37022 23.5898 7.25 23.458Z" fill="#29C555"/>
<path d="M17.069 17.2435H26.5531C26.8576 14.5581 26.168 11.8543 24.6137 9.63963C23.0595 7.42499 20.7476 5.8518 18.112 5.21537C15.4763 4.57895 12.6982 4.92306 10.2991 6.18311C7.89999 7.44316 6.04489 9.5325 5.08203 12.0589H17.069V17.2435Z" fill="#29C555"/>
<path d="M17.127 26.9734L17.1976 26.9629L17.127 26.9734Z" fill="#29C555"/>
<path d="M7.62109 23.8438C7.74658 23.9695 7.87582 24.0916 8.00731 24.2106C7.87882 24.0916 7.74658 23.9695 7.62109 23.8438Z" fill="#29C555"/>
<path d="M4.42173 14.8096C4.41271 14.8897 4.4052 14.9698 4.39844 15.0499C4.40745 14.9683 4.41497 14.8934 4.42173 14.8096Z" fill="#29C555"/>
<path d="M4.39589 15.1064C4.38988 15.1813 4.38537 15.2562 4.38086 15.3348C4.38537 15.2585 4.38988 15.1821 4.39589 15.1064Z" fill="#29C555"/>
<path d="M16.3008 27.0639L16.4075 27.0557L16.3008 27.0639Z" fill="#29C555"/>
<path d="M16.5664 27.0408L16.6716 27.0303L16.5664 27.0408Z" fill="#29C555"/>
<path d="M16.8379 27.012L16.9356 27L16.8379 27.012Z" fill="#29C555"/>
<path d="M16.0312 27.0802L16.1342 27.0742L16.0312 27.0802Z" fill="#29C555"/>
<path d="M9.04688 25.0459C9.26553 25.2001 9.48945 25.3454 9.71862 25.4862C9.48945 25.3477 9.26553 25.2001 9.04688 25.0459Z" fill="#29C555"/>
<path d="M9.71875 25.4863C9.94868 25.6256 10.1836 25.7564 10.4236 25.8787C10.1841 25.7569 9.94918 25.6261 9.71875 25.4863Z" fill="#29C555"/>
<path d="M8.20703 24.3877C8.47653 24.6208 8.7568 24.8405 9.04784 25.0466C8.7573 24.841 8.47703 24.6213 8.20703 24.3877Z" fill="#29C555"/>
<path d="M11.1582 26.2207C11.325 26.2911 11.4936 26.3572 11.6639 26.4191C11.4941 26.3567 11.3255 26.2906 11.1582 26.2207Z" fill="#29C555"/>
<path d="M21.002 25.6397L21.1222 25.5693L21.002 25.6397Z" fill="#29C555"/>
<path d="M23.8414 23.3359C23.6467 23.5561 23.4424 23.7687 23.2305 23.9732C23.4424 23.7687 23.6467 23.5561 23.8414 23.3359Z" fill="#29C555"/>
<path d="M24.0176 23.1298C24.0606 23.0787 24.1028 23.0276 24.145 22.9795C24.1028 23.0306 24.0606 23.0817 24.0176 23.1298Z" fill="#29C555"/>
<path d="M23.8594 23.3153C23.9039 23.265 23.9476 23.2146 23.9906 23.165C23.9476 23.2146 23.9039 23.265 23.8594 23.3153Z" fill="#29C555"/>
<path d="M25.9012 19.9395C25.6782 20.5256 25.4055 21.0917 25.0859 21.6317C25.4056 21.0918 25.6784 20.5257 25.9012 19.9395Z" fill="#29C555"/>
<path d="M24.9609 21.8333C25 21.7696 25.0361 21.706 25.0774 21.6416C25.0391 21.706 25 21.7696 24.9609 21.8333Z" fill="#29C555"/>
<path d="M24.3027 22.7806C24.5376 22.4777 24.7568 22.1631 24.9594 21.8379C24.7568 22.1631 24.5376 22.4777 24.3027 22.7806Z" fill="#29C555"/>
<path d="M24.166 22.9519C24.2105 22.8978 24.2535 22.8429 24.2965 22.7881C24.2535 22.8429 24.2097 22.8978 24.166 22.9519Z" fill="#29C555"/>
<path d="M22.9062 24.277L23.0355 24.1602L22.9062 24.277Z" fill="#29C555"/>
<path d="M23.0762 24.1185C23.122 24.0766 23.1671 24.0339 23.2122 23.9912C23.1671 24.0346 23.122 24.0766 23.0762 24.1185Z" fill="#29C555"/>
<path d="M4.38146 15.335C4.38146 15.3582 4.38146 15.3814 4.37695 15.4046C4.3777 15.3814 4.37996 15.3582 4.38146 15.335Z" fill="#926539"/>
<path d="M4.40174 15.0498C4.40174 15.0693 4.39799 15.088 4.39648 15.1075C4.39799 15.088 4.40024 15.0693 4.40174 15.0498Z" fill="#926539"/>
<path d="M18.0703 26.7929L18.2211 26.7568L18.0703 26.7929Z" fill="#926539"/>
<path d="M18.3223 26.7312L18.4685 26.6914L18.3223 26.7312Z" fill="#926539"/>
<path d="M18.5742 26.6613C18.6255 26.647 18.6753 26.632 18.725 26.6162C18.6753 26.632 18.6225 26.6485 18.5742 26.6613Z" fill="#926539"/>
<path d="M19.0957 26.4987L19.3008 26.4238L19.0957 26.4987Z" fill="#926539"/>
<path d="M4.43032 14.7666L4.42578 14.8096L4.43032 14.7666Z" fill="#926539"/>
<path d="M18.8223 26.587C18.8854 26.5676 18.9477 26.5473 19.0101 26.5264C18.9477 26.5473 18.8854 26.5676 18.8223 26.587Z" fill="#926539"/>
<path d="M25.0781 21.642L25.0841 21.6309L25.0781 21.642Z" fill="#926539"/>
<path d="M15.8496 27.0859C15.9099 27.0859 15.971 27.0859 16.0313 27.0791C15.971 27.0821 15.9099 27.0836 15.8496 27.0859Z" fill="#926539"/>
<path d="M4.36666 15.6299C4.36666 15.6546 4.36666 15.6786 4.36666 15.7048C4.3644 15.6786 4.36515 15.6546 4.36666 15.6299Z" fill="#926539"/>
<path d="M16.6699 27.0305L16.8365 27.0117L16.6699 27.0305Z" fill="#926539"/>
<path d="M15.4922 27.0931C15.5824 27.0931 15.6725 27.0931 15.7619 27.0931C15.6725 27.0923 15.5824 27.0931 15.4922 27.0931Z" fill="#926539"/>
<path d="M16.1348 27.074L16.3006 27.0635L16.1348 27.074Z" fill="#926539"/>
<path d="M16.4062 27.0553L16.5684 27.041L16.4062 27.0553Z" fill="#926539"/>
<path d="M16.9355 26.9998L17.1256 26.9736L16.9355 26.9998Z" fill="#926539"/>
<path d="M17.5234 26.909C17.5858 26.897 17.6489 26.8858 17.7113 26.873C17.6474 26.8858 17.5858 26.897 17.5234 26.909Z" fill="#926539"/>
<path d="M17.8086 26.8512C17.8614 26.8407 17.9134 26.8294 17.9662 26.8174C17.9134 26.8294 17.8614 26.8407 17.8086 26.8512Z" fill="#926539"/>
<path d="M22.8477 24.3278L22.9024 24.2793L22.8477 24.3278Z" fill="#926539"/>
<path d="M17.1973 26.9628C17.2829 26.9501 17.3686 26.9359 17.4542 26.9209C17.3701 26.9359 17.2844 26.9479 17.1973 26.9628Z" fill="#926539"/>
<path d="M21.5547 25.3068L21.6402 25.251L21.5547 25.3068Z" fill="#926539"/>
<path d="M21.123 25.5701L21.2185 25.5146L21.123 25.5701Z" fill="#926539"/>
<path d="M23.2109 23.9907L23.2281 23.9736L23.2109 23.9907Z" fill="#926539"/>
<path d="M21.3379 25.4407L21.4288 25.3838L21.3379 25.4407Z" fill="#926539"/>
<path d="M23.8398 23.3358L23.8591 23.3145L23.8398 23.3358Z" fill="#926539"/>
<path d="M21.7598 25.1679L21.8349 25.1162L21.7598 25.1679Z" fill="#926539"/>
<path d="M22.4824 24.6328L22.5316 24.5928L22.4824 24.6328Z" fill="#926539"/>
<path d="M22.6621 24.4842L22.7191 24.4365L22.6621 24.4842Z" fill="#926539"/>
<path d="M21.9648 25.0258L22.008 24.9941L21.9648 25.0258Z" fill="#926539"/>
<path d="M23.0332 24.1614L23.0779 24.1191L23.0332 24.1614Z" fill="#926539"/>
<path d="M20.9043 25.6951L21.0042 25.6396L20.9043 25.6951Z" fill="#926539"/>
<path d="M20.5762 25.8708L20.7144 25.7959L20.5762 25.8708Z" fill="#926539"/>
<path d="M24.2969 22.7882L24.3018 22.7812L24.2969 22.7882Z" fill="#926539"/>
<path d="M20.3535 25.9837L20.4692 25.9268L20.3535 25.9837Z" fill="#926539"/>
<path d="M19.8848 26.194L20.0057 26.1416L19.8848 26.194Z" fill="#926539"/>
<path d="M20.1191 26.091L20.2364 26.0371L20.1191 26.091Z" fill="#926539"/>
<path d="M19.4004 26.3893L19.5386 26.3369L19.4004 26.3893Z" fill="#926539"/>
<path d="M19.6484 26.2931L19.7747 26.2422L19.6484 26.2931Z" fill="#926539"/>
<path d="M24.1445 22.979L24.1657 22.9521L24.1445 22.979Z" fill="#926539"/>
<path d="M23.9922 23.1626L24.0177 23.1328L23.9922 23.1626Z" fill="#926539"/>
<path d="M13.9135 14.7549H4.42942C4.42942 14.7549 4.42942 14.7624 4.42942 14.7661L4.42491 14.8088C4.41589 14.8889 4.40838 14.969 4.40162 15.0491C4.40162 15.0686 4.39786 15.0873 4.39636 15.1068C4.39034 15.1817 4.38584 15.2566 4.38133 15.3352C4.38133 15.3584 4.38133 15.3816 4.37682 15.4048C4.37231 15.4797 4.37006 15.5546 4.3678 15.6295C4.3678 15.6542 4.3678 15.6781 4.3678 15.7043C4.3648 15.8042 4.36329 15.904 4.36329 16.0038C4.35958 18.488 5.19607 20.9009 6.7377 22.853C6.84841 22.9923 6.96187 23.129 7.07808 23.2633C7.13669 23.3307 7.19605 23.3973 7.25541 23.4625C7.37564 23.5943 7.49811 23.7223 7.62435 23.8481C7.75058 23.9739 7.87907 24.096 8.01057 24.215C8.07669 24.2749 8.14356 24.3341 8.21044 24.3917C8.47994 24.6249 8.76021 24.8445 9.05125 25.0507C9.2699 25.2049 9.49382 25.3502 9.72299 25.491C9.95217 25.6317 10.1881 25.7613 10.4278 25.8833C10.6675 26.0054 10.9132 26.1199 11.1627 26.2255C11.3295 26.2959 11.498 26.362 11.6684 26.4239C12.8945 26.8711 14.1903 27.0993 15.496 27.0978C15.5861 27.0978 15.6763 27.0978 15.7657 27.0978H15.8536C15.9137 27.0978 15.9746 27.0978 16.0347 27.0911L16.1377 27.0851L16.303 27.0746L16.4097 27.0664L16.5712 27.0522L16.6764 27.0417L16.8425 27.023L16.9401 27.011L17.1302 26.9848L17.2009 26.9743C17.2865 26.9616 17.3722 26.9473 17.4579 26.9324L17.5262 26.9196C17.5886 26.9076 17.6517 26.8964 17.7141 26.8837L17.8118 26.8627C17.8644 26.8522 17.9162 26.841 17.9688 26.829L18.074 26.8043L18.2243 26.7684L18.331 26.7414L18.4767 26.7017L18.5812 26.6725C18.6323 26.6583 18.6819 26.6433 18.7315 26.6276C18.7638 26.6179 18.7961 26.6089 18.8277 26.5984C18.8908 26.5789 18.9531 26.5587 19.0155 26.5377L19.1012 26.5093L19.3063 26.4344L19.4055 26.397L19.5437 26.3446L19.6534 26.3011L19.7797 26.2502L19.8916 26.2023L20.0126 26.1499L20.1253 26.099L20.2425 26.045L20.3552 25.9911L20.471 25.9342L20.5814 25.8788L20.7197 25.8039C20.7835 25.7702 20.8459 25.7358 20.9083 25.7014L21.0082 25.6459L21.1284 25.5756L21.2239 25.5202L21.3441 25.4453L21.435 25.3884C21.4756 25.3629 21.5161 25.3375 21.556 25.3135L21.6409 25.2581L21.7649 25.175L21.84 25.1233L21.97 25.0319L22.0128 25.0005C22.1751 24.8844 22.3329 24.7631 22.4884 24.6388L22.5373 24.5991C22.5816 24.5632 22.6252 24.5243 22.6688 24.4898L22.7251 24.4427L22.8536 24.3318L22.9077 24.2839L23.037 24.1671L23.0813 24.1252C23.1271 24.0832 23.1722 24.0413 23.2173 23.9979L23.2353 23.9799C23.4472 23.7755 23.6516 23.5628 23.8462 23.3427L23.8658 23.321C23.9101 23.2708 23.9537 23.2206 23.9965 23.1712L24.0228 23.1405C24.0656 23.0896 24.1077 23.0387 24.1498 22.9908L24.1716 22.9631C24.2152 22.9091 24.2587 22.8545 24.3016 22.7998L24.3068 22.7931C24.5417 22.4902 24.7609 22.1755 24.9635 21.8504V21.8459C25.0026 21.7822 25.0387 21.7186 25.08 21.6542L25.086 21.6429C25.406 21.1033 25.6793 20.5374 25.9028 19.9514H13.9135V14.7549Z" fill="#926539"/>
<path d="M28.9791 17.244V2.55957H2.00397V12.0594H0V12.8082H16.3188V17.9928H30.9838V17.244H28.9791ZM28.2277 17.244H17.0702V12.0594H2.75687V3.30835H28.2292L28.2277 17.244Z" fill="white"/>
<path d="M28.6034 19.1914H14.6657V14.0068H0V14.7556H2.00548V29.44H28.9806V19.9402H30.9838V19.1914H28.6034ZM28.2277 28.6912H2.75537V14.7556H13.9143V19.9402H28.2277V28.6912Z" fill="white"/>
</svg>
