<svg width="19" height="19" viewBox="0 0 19 19" fill="none" xmlns="http://www.w3.org/2000/svg">
<path d="M8.70801 13.4585H10.2913V8.7085H8.70801V13.4585ZM9.49968 1.5835C5.12572 1.5835 1.58301 5.1262 1.58301 9.50016C1.58301 13.8741 5.12572 17.4168 9.49968 17.4168C13.8736 17.4168 17.4163 13.8741 17.4163 9.50016C17.4163 5.1262 13.8736 1.5835 9.49968 1.5835ZM9.49968 15.8335C6.00843 15.8335 3.16634 12.9914 3.16634 9.50016C3.16634 6.00891 6.00843 3.16683 9.49968 3.16683C12.9909 3.16683 15.833 6.00891 15.833 9.50016C15.833 12.9914 12.9909 15.8335 9.49968 15.8335ZM8.70801 7.12516H10.2913V5.54183H8.70801V7.12516Z" fill="#926539"/>
</svg>
