<svg width="257" height="50" viewBox="0 0 257 50" fill="none" xmlns="http://www.w3.org/2000/svg">
<path d="M89.7789 10.5601V39.4397H84.2349L69.6886 21.9053V39.4397H63.0176V10.5601H68.6025L83.1079 28.0945V10.5601H89.7789Z" fill="#383F44"/>
<path d="M119.271 34.0766V39.4397H96.6836V10.5601H118.733V15.9232H103.391V22.1943H116.938V27.3925H103.391V34.0766H119.271Z" fill="#383F44"/>
<path d="M138.695 39.9358C135.666 39.9358 132.929 39.2892 130.484 37.996C128.136 36.768 126.163 34.9293 124.773 32.6737C123.411 30.3915 122.73 27.8336 122.73 24.9999C122.73 22.1662 123.411 19.6219 124.773 17.367C126.153 15.0933 128.128 13.2391 130.484 12.0038C132.929 10.7106 135.666 10.064 138.695 10.064C141.724 10.064 144.447 10.7106 146.864 12.0038C149.22 13.2387 151.195 15.0931 152.575 17.367C153.965 19.6227 154.66 22.167 154.659 24.9999C154.658 27.8328 153.963 30.3907 152.575 32.6737C151.186 34.9294 149.282 36.7035 146.864 37.996C144.446 39.2884 141.723 39.935 138.695 39.9358ZM138.695 34.2415C140.418 34.2415 141.974 33.8566 143.364 33.0867C144.732 32.3091 145.858 31.1663 146.614 29.7862C147.421 28.3823 147.824 26.7868 147.823 24.9999C147.822 23.2129 147.419 21.6175 146.614 20.2135C145.864 18.8386 144.736 17.7071 143.364 16.9528C141.973 16.1549 140.417 15.7559 138.695 15.7559C136.973 15.7559 135.417 16.1549 134.027 16.9528C132.647 17.712 131.507 18.8403 130.733 20.2112C129.953 21.6151 129.563 23.2106 129.563 24.9975C129.563 26.7845 129.953 28.3799 130.733 29.7839C131.513 31.1608 132.651 32.3012 134.027 33.0844C135.416 33.8558 136.973 34.2415 138.695 34.2415Z" fill="#383F44"/>
<path d="M170.361 28.0945L166.444 32.1379V39.4397H159.736V10.5601H166.447V24.051L179.368 10.5601H186.871L174.784 23.4298L187.579 39.4374H179.701L170.361 28.0945Z" fill="#383F44"/>
<path d="M217.345 10.5601V39.4397H211.801L197.255 21.9053V39.4397H190.584V10.5601H196.169L210.674 28.0945V10.5601H217.345Z" fill="#383F44"/>
<path d="M243.462 33.2517H229.915L227.331 39.4397H220.412L233.416 10.5601H240.087L253.128 39.4397H246.043L243.462 33.2517ZM241.337 28.1764L236.709 17.1201L232.083 28.1764H241.337Z" fill="#383F44"/>
<path d="M39.0615 33.8168C39.0018 33.9174 38.9445 34.0168 38.8801 34.1163V34.1233C38.5644 34.6314 38.223 35.123 37.8572 35.5963L37.849 35.6068C37.7823 35.6922 37.7156 35.7776 37.6465 35.8619L37.6126 35.9052C37.547 35.9859 37.4815 36.0655 37.4148 36.1392L37.3738 36.1871C37.3071 36.2667 37.2392 36.3451 37.1702 36.4211L37.1398 36.4551C36.8366 36.799 36.5183 37.1313 36.1883 37.4507L36.1602 37.4788C36.09 37.5455 36.0197 37.6122 35.9483 37.6777L35.8793 37.7432L35.678 37.9257L35.5937 38.0006L35.3936 38.1738L35.3058 38.2475C35.2379 38.3048 35.1701 38.3645 35.101 38.4183L35.0249 38.4803C34.7827 38.6745 34.5369 38.864 34.2841 39.0454L34.2174 39.0945L34.0149 39.2373L33.8979 39.318L33.7048 39.4479L33.5725 39.5344C33.5105 39.5754 33.4473 39.6152 33.3841 39.6514L33.2425 39.7404L33.0552 39.8574L32.9066 39.9439L32.7193 40.0539L32.5637 40.1405C32.4665 40.1943 32.3694 40.2481 32.2699 40.3008L32.0546 40.4178L31.8825 40.5044L31.7023 40.5933L31.5267 40.6775L31.3442 40.7617L31.1686 40.8413L30.9802 40.9232L30.8058 40.9981L30.6092 41.0776L30.4383 41.1455L30.223 41.2274L30.0685 41.2859L29.749 41.4029L29.6155 41.4473C29.5184 41.4801 29.4213 41.5117 29.323 41.5421C29.2738 41.5585 29.2235 41.5725 29.1732 41.5878C29.0947 41.6123 29.0175 41.6357 28.9391 41.6579L28.7764 41.7036L28.5494 41.7656L28.3832 41.8077L28.1491 41.8639L27.9852 41.9025C27.9033 41.9212 27.8226 41.9387 27.7406 41.9551L27.5885 41.9879C27.4914 42.0078 27.393 42.0253 27.2959 42.044L27.1894 42.0639C27.056 42.0873 26.9226 42.1095 26.7891 42.1294L26.6791 42.1458L26.383 42.1868L26.2309 42.2055L25.9722 42.2347L25.8084 42.2511L25.5568 42.2734L25.3906 42.2862L25.1331 42.3026L24.9727 42.312C24.8791 42.312 24.7843 42.319 24.6907 42.3225H24.5538C24.4145 42.3225 24.2741 42.3225 24.1336 42.3225C22.0999 42.3247 20.0817 41.9682 18.1718 41.2695C17.9065 41.172 17.644 41.0687 17.3842 40.9595C16.9941 40.7949 16.6125 40.6167 16.2396 40.4248C15.8666 40.2329 15.5007 40.0286 15.1418 39.8117C14.7848 39.5953 14.4396 39.3648 14.0955 39.1238C13.6422 38.8024 13.2056 38.4592 12.7858 38.0942C12.6817 38.0041 12.5775 37.9117 12.4745 37.8181C12.2697 37.6321 12.0684 37.4413 11.873 37.2448C11.6775 37.0482 11.4856 36.8482 11.2983 36.6423C11.2059 36.5405 11.1134 36.4363 11.0221 36.331C10.8411 36.122 10.6644 35.9083 10.492 35.6899C8.09074 32.6397 6.78785 28.8696 6.79363 24.9881C6.79363 24.8321 6.79597 24.6762 6.80065 24.5202C6.80065 24.4815 6.80065 24.4441 6.80065 24.4032C6.80065 24.2862 6.80767 24.1692 6.8147 24.0522C6.8147 24.0159 6.8147 23.9796 6.82172 23.9434C6.82874 23.8264 6.83576 23.7094 6.84513 23.5865C6.84513 23.5561 6.84513 23.5268 6.85332 23.4964C6.86385 23.3712 6.87555 23.246 6.8896 23.1209L6.89662 23.0542C6.89662 23.0542 6.89662 23.0425 6.89662 23.0366H4.29492V44.811H43.97V31.1563H40.3419C39.9951 32.0722 39.5707 32.9568 39.0732 33.8004L39.0615 33.8168Z" fill="#C2CACC"/>
<path d="M24.1297 7.66713C26.5706 7.66778 28.9839 8.1835 31.2118 9.18056C33.4396 10.1776 35.4319 11.6336 37.0582 13.4532C38.6845 15.2728 39.9083 17.4151 40.6495 19.74C41.3908 22.0649 41.6328 24.52 41.3597 26.9448H43.966V5.17041H4.29102V18.8439H7.91912C9.16917 15.5577 11.3889 12.729 14.284 10.7329C17.1791 8.73684 20.6128 7.66765 24.1297 7.66713Z" fill="#C2CACC"/>
<path d="M30.0605 41.2885L30.215 41.23L30.0605 41.2885Z" fill="#29C555"/>
<path d="M29.168 41.5891C29.2183 41.5739 29.2686 41.5598 29.3178 41.5435C29.2686 41.5598 29.2183 41.5739 29.168 41.5891Z" fill="#29C555"/>
<path d="M29.6094 41.4486L29.7438 41.4038L29.6094 41.4486Z" fill="#29C555"/>
<path d="M31.1621 40.8471L31.3377 40.7676L31.1621 40.8471Z" fill="#29C555"/>
<path d="M30.8008 41.0036L30.9752 40.9287L30.8008 41.0036Z" fill="#29C555"/>
<path d="M30.4336 41.1512L30.6045 41.0834L30.4336 41.1512Z" fill="#29C555"/>
<path d="M27.9824 41.9038L28.1463 41.8652L27.9824 41.9038Z" fill="#29C555"/>
<path d="M27.5859 41.9903L27.7381 41.9575L27.5859 41.9903Z" fill="#29C555"/>
<path d="M28.377 41.8092L28.5431 41.7671L28.377 41.8092Z" fill="#29C555"/>
<path d="M27.1875 42.0648L27.294 42.0449L27.1875 42.0648Z" fill="#29C555"/>
<path d="M28.7715 41.7053L28.9342 41.6597L28.7715 41.7053Z" fill="#29C555"/>
<path d="M34.0078 39.2458L34.2103 39.103L34.0078 39.2458Z" fill="#29C555"/>
<path d="M34.2734 39.0534C34.5262 38.872 34.772 38.6825 35.0143 38.4883C34.7767 38.6825 34.5309 38.872 34.2734 39.0534Z" fill="#29C555"/>
<path d="M33.6973 39.457L33.8904 39.3271L33.6973 39.457Z" fill="#29C555"/>
<path d="M35.0918 38.4262C35.1608 38.37 35.2287 38.3092 35.2966 38.2554C35.2311 38.3127 35.1632 38.37 35.0918 38.4262Z" fill="#29C555"/>
<path d="M35.3887 38.1815L35.5888 38.0083L35.3887 38.1815Z" fill="#29C555"/>
<path d="M32.2637 40.3102C32.3632 40.2575 32.4603 40.2037 32.5574 40.1499C32.4603 40.2037 32.3632 40.2575 32.2637 40.3102Z" fill="#29C555"/>
<path d="M31.877 40.5104L32.049 40.4238L31.877 40.5104Z" fill="#29C555"/>
<path d="M33.0488 39.8665L33.2361 39.7495L33.0488 39.8665Z" fill="#29C555"/>
<path d="M31.5234 40.6834L31.699 40.5991L31.5234 40.6834Z" fill="#29C555"/>
<path d="M33.377 39.6634C33.4402 39.6236 33.5033 39.5838 33.5654 39.5464C33.5033 39.5838 33.4402 39.6236 33.377 39.6634Z" fill="#29C555"/>
<path d="M6.81483 24.0708C6.8078 24.1878 6.80429 24.3048 6.80078 24.4218C6.80429 24.3048 6.8078 24.1878 6.81483 24.0708Z" fill="#29C555"/>
<path d="M10.4883 35.7017C10.6607 35.9193 10.8374 36.133 11.0185 36.3428C10.839 36.1299 10.6623 35.9162 10.4883 35.7017Z" fill="#29C555"/>
<path d="M6.79609 24.5366C6.7914 24.6926 6.78906 24.8486 6.78906 25.0046C6.78906 24.8463 6.7914 24.6903 6.79609 24.5366Z" fill="#29C555"/>
<path d="M11.293 36.6538C11.4802 36.8597 11.671 37.0598 11.8676 37.2563C11.671 37.0598 11.4802 36.8597 11.293 36.6538Z" fill="#29C555"/>
<path d="M26.5867 26.9441H41.3589C41.8331 22.7482 40.7589 18.5235 38.3381 15.0631C35.9173 11.6027 32.3163 9.14459 28.2111 8.15018C24.1059 7.15577 19.7788 7.69343 16.042 9.66226C12.3052 11.6311 9.41574 14.8957 7.91602 18.8432H26.5867V26.9441Z" fill="#29C555"/>
<path d="M26.6758 42.1472L26.7858 42.1309L26.6758 42.1472Z" fill="#29C555"/>
<path d="M6.9009 23.0557C6.9009 23.0557 6.9009 23.068 6.9009 23.0741C6.9009 23.0803 6.89975 23.0618 6.9009 23.0557Z" fill="#29C555"/>
<path d="M11.8691 37.2568C12.0646 37.4534 12.2659 37.6441 12.4707 37.8301C12.2706 37.6441 12.0646 37.4534 11.8691 37.2568Z" fill="#29C555"/>
<path d="M6.88589 23.1401C6.87185 23.2653 6.86014 23.3905 6.84961 23.5157C6.86365 23.3882 6.87536 23.2712 6.88589 23.1401Z" fill="#29C555"/>
<path d="M6.84568 23.605C6.83631 23.722 6.82929 23.839 6.82227 23.9618C6.82929 23.8425 6.83631 23.7231 6.84568 23.605Z" fill="#29C555"/>
<path d="M25.3887 42.2873L25.5549 42.2744L25.3887 42.2873Z" fill="#29C555"/>
<path d="M25.8027 42.2522L25.9666 42.2358L25.8027 42.2522Z" fill="#29C555"/>
<path d="M26.2266 42.2067L26.3787 42.188L26.2266 42.2067Z" fill="#29C555"/>
<path d="M24.9707 42.3131L25.131 42.3037L24.9707 42.3131Z" fill="#29C555"/>
<path d="M14.0918 39.1353C14.4324 39.3763 14.7811 39.6032 15.1381 39.8232C14.7811 39.6068 14.4324 39.3763 14.0918 39.1353Z" fill="#29C555"/>
<path d="M15.1387 39.8237C15.4968 40.0413 15.8627 40.2457 16.2365 40.4368C15.8635 40.2465 15.4976 40.0421 15.1387 39.8237Z" fill="#29C555"/>
<path d="M12.7832 38.106C13.203 38.4702 13.6395 38.8134 14.0928 39.1355C13.6403 38.8142 13.2038 38.471 12.7832 38.106Z" fill="#29C555"/>
<path d="M17.3809 40.9712C17.6407 41.0812 17.9032 41.1845 18.1685 41.2812C17.904 41.1837 17.6415 41.0804 17.3809 40.9712Z" fill="#29C555"/>
<path d="M32.7129 40.0631L32.9001 39.9531L32.7129 40.0631Z" fill="#29C555"/>
<path d="M37.1351 36.4629C36.832 36.8069 36.5136 37.1391 36.1836 37.4585C36.5136 37.1391 36.832 36.8069 37.1351 36.4629Z" fill="#29C555"/>
<path d="M37.4102 36.1415C37.4771 36.0617 37.5429 35.9819 37.6086 35.9067C37.5429 35.9866 37.4771 36.0664 37.4102 36.1415Z" fill="#29C555"/>
<path d="M37.1641 36.4302C37.2334 36.3516 37.3015 36.2729 37.3684 36.1954C37.3015 36.2729 37.2334 36.3516 37.1641 36.4302Z" fill="#29C555"/>
<path d="M40.3421 31.1567C39.9948 32.0726 39.57 32.9572 39.0723 33.8009C39.5702 32.9573 39.995 32.0727 40.3421 31.1567Z" fill="#29C555"/>
<path d="M38.8789 34.1159C38.9398 34.0165 38.9959 33.917 39.0603 33.8164C39.0006 33.917 38.9398 34.0165 38.8789 34.1159Z" fill="#29C555"/>
<path d="M37.8535 35.596C38.2193 35.1228 38.5607 34.6311 38.8764 34.123C38.5607 34.6311 38.2193 35.1228 37.8535 35.596Z" fill="#29C555"/>
<path d="M37.6406 35.8624C37.7099 35.7779 37.7769 35.6921 37.8438 35.6064C37.7769 35.6921 37.7087 35.7779 37.6406 35.8624Z" fill="#29C555"/>
<path d="M35.6777 37.934L35.879 37.7515L35.6777 37.934Z" fill="#29C555"/>
<path d="M35.9434 37.6857C36.0148 37.6202 36.085 37.5535 36.1552 37.4868C36.085 37.5547 36.0148 37.6202 35.9434 37.6857Z" fill="#29C555"/>
<path d="M6.82343 23.9619C6.82343 23.9982 6.82343 24.0344 6.81641 24.0707C6.81758 24.0344 6.82109 23.9982 6.82343 23.9619Z" fill="#926539"/>
<path d="M6.85585 23.5156C6.85585 23.546 6.85 23.5753 6.84766 23.6057C6.85 23.5753 6.85351 23.546 6.85585 23.5156Z" fill="#926539"/>
<path d="M28.1465 41.865L28.3814 41.8086L28.1465 41.865Z" fill="#926539"/>
<path d="M28.5391 41.7678L28.7669 41.7056L28.5391 41.7678Z" fill="#926539"/>
<path d="M28.9316 41.6593C29.0115 41.637 29.089 41.6135 29.1665 41.5889C29.089 41.6135 29.0068 41.6394 28.9316 41.6593Z" fill="#926539"/>
<path d="M29.7422 41.4056L30.0617 41.2886L29.7422 41.4056Z" fill="#926539"/>
<path d="M6.89965 23.0728L6.89258 23.1399L6.89965 23.0728Z" fill="#926539"/>
<path d="M29.3184 41.5435C29.4167 41.5131 29.5138 41.4815 29.6109 41.4487C29.5138 41.4815 29.4167 41.5131 29.3184 41.5435Z" fill="#926539"/>
<path d="M39.0605 33.8169L39.0702 33.7988L39.0605 33.8169Z" fill="#926539"/>
<path d="M24.6875 42.3231C24.7815 42.3231 24.8766 42.3231 24.9705 42.3125C24.8766 42.3172 24.7815 42.3195 24.6875 42.3231Z" fill="#926539"/>
<path d="M6.80104 24.4224C6.80104 24.461 6.80104 24.4984 6.80104 24.5394C6.79753 24.4984 6.7987 24.461 6.80104 24.4224Z" fill="#926539"/>
<path d="M25.9648 42.2354L26.2244 42.2061L25.9648 42.2354Z" fill="#926539"/>
<path d="M24.1309 42.3331C24.2713 42.3331 24.4117 42.3331 24.551 42.3331C24.4117 42.3318 24.2713 42.3331 24.1309 42.3331Z" fill="#926539"/>
<path d="M25.1309 42.304L25.3892 42.2876L25.1309 42.304Z" fill="#926539"/>
<path d="M25.5547 42.2743L25.8072 42.252L25.5547 42.2743Z" fill="#926539"/>
<path d="M26.3789 42.1879L26.675 42.147L26.3789 42.1879Z" fill="#926539"/>
<path d="M27.293 42.0454C27.3901 42.0267 27.4884 42.0091 27.5856 41.9893C27.4861 42.0091 27.3901 42.0267 27.293 42.0454Z" fill="#926539"/>
<path d="M27.7383 41.9561C27.8205 41.9397 27.9015 41.9221 27.9837 41.9033C27.9015 41.9221 27.8205 41.9397 27.7383 41.9561Z" fill="#926539"/>
<path d="M35.5879 38.0127L35.6731 37.937L35.5879 38.0127Z" fill="#926539"/>
<path d="M26.7852 42.1305C26.9186 42.1106 27.052 42.0883 27.1854 42.0649C27.0543 42.0883 26.9209 42.1071 26.7852 42.1305Z" fill="#926539"/>
<path d="M33.5723 39.5433L33.7055 39.4561L33.5723 39.5433Z" fill="#926539"/>
<path d="M32.9004 39.9534L33.049 39.8668L32.9004 39.9534Z" fill="#926539"/>
<path d="M36.1543 37.488L36.1828 37.4595L36.1543 37.488Z" fill="#926539"/>
<path d="M33.2363 39.7525L33.3779 39.6636L33.2363 39.7525Z" fill="#926539"/>
<path d="M37.1328 36.4636L37.1637 36.4292L37.1328 36.4636Z" fill="#926539"/>
<path d="M33.8926 39.3258L34.0096 39.2451L33.8926 39.3258Z" fill="#926539"/>
<path d="M35.0195 38.4887L35.0962 38.4263L35.0195 38.4887Z" fill="#926539"/>
<path d="M35.2988 38.2567L35.3876 38.1821L35.2988 38.2567Z" fill="#926539"/>
<path d="M34.2129 39.1031L34.2801 39.0536L34.2129 39.1031Z" fill="#926539"/>
<path d="M35.875 37.7526L35.9446 37.6865L35.875 37.7526Z" fill="#926539"/>
<path d="M32.5586 40.1496L32.7142 40.063L32.5586 40.1496Z" fill="#926539"/>
<path d="M32.0488 40.4236L32.2642 40.3066L32.0488 40.4236Z" fill="#926539"/>
<path d="M37.8457 35.6078L37.8538 35.5962L37.8457 35.6078Z" fill="#926539"/>
<path d="M31.7012 40.5997L31.8814 40.5107L31.7012 40.5997Z" fill="#926539"/>
<path d="M30.9727 40.9291L31.1611 40.8472L30.9727 40.9291Z" fill="#926539"/>
<path d="M31.3379 40.7674L31.5205 40.6831L31.3379 40.7674Z" fill="#926539"/>
<path d="M30.2168 41.2338L30.4321 41.1519L30.2168 41.2338Z" fill="#926539"/>
<path d="M30.6035 41.0835L30.8001 41.0039L30.6035 41.0835Z" fill="#926539"/>
<path d="M37.6074 35.9066L37.6414 35.8633L37.6074 35.9066Z" fill="#926539"/>
<path d="M37.3691 36.193L37.4101 36.145L37.3691 36.193Z" fill="#926539"/>
<path d="M21.6721 23.0557H6.89989C6.89989 23.0557 6.89989 23.0674 6.89989 23.0732L6.89286 23.1399C6.87882 23.2651 6.86712 23.3903 6.85658 23.5155C6.85658 23.5459 6.85073 23.5751 6.84839 23.6055C6.83903 23.7225 6.83201 23.8395 6.82498 23.9624C6.82498 23.9987 6.82498 24.0349 6.81796 24.0712C6.81094 24.1882 6.80743 24.3052 6.80392 24.4222C6.80392 24.4608 6.80392 24.4982 6.80392 24.5392C6.79923 24.6952 6.79689 24.8512 6.79689 25.0072C6.79112 28.8886 8.094 32.6588 10.4952 35.7089C10.6676 35.9266 10.8444 36.1403 11.0254 36.3501C11.1167 36.4554 11.2091 36.5595 11.3016 36.6613C11.4888 36.8672 11.6796 37.0673 11.8762 37.2638C12.0729 37.4604 12.273 37.6511 12.4778 37.8371C12.5808 37.9307 12.6849 38.0231 12.7891 38.1132C13.2089 38.4775 13.6454 38.8207 14.0987 39.1428C14.4393 39.3838 14.7881 39.6108 15.145 39.8308C15.502 40.0507 15.8695 40.2531 16.2428 40.4438C16.6162 40.6345 16.9989 40.8135 17.3874 40.9785C17.6473 41.0885 17.9098 41.1918 18.1751 41.2886C20.0849 41.9873 22.1031 42.3437 24.1369 42.3415C24.2773 42.3415 24.4178 42.3415 24.557 42.3415H24.694C24.7876 42.3415 24.8824 42.3415 24.976 42.331L25.1364 42.3216L25.3938 42.3053L25.56 42.2924L25.8117 42.2702L25.9755 42.2538L26.2341 42.2245L26.3863 42.2058L26.6824 42.1649L26.7924 42.1485C26.9258 42.1286 27.0592 42.1064 27.1927 42.083L27.2992 42.0631C27.3963 42.0444 27.4946 42.0268 27.5918 42.0069L27.7439 41.9742C27.8258 41.9578 27.9066 41.9402 27.9885 41.9215L28.1524 41.8829L28.3864 41.8267L28.5526 41.7846L28.7797 41.7226L28.9424 41.677C29.0219 41.6547 29.0992 41.6313 29.1764 41.6068C29.2267 41.5916 29.2771 41.5775 29.3262 41.5611C29.4245 41.5307 29.5217 41.4991 29.6188 41.4664L29.7522 41.4219L30.0717 41.3049L30.2262 41.2464L30.4416 41.1645L30.6124 41.0967L30.8091 41.0171L30.9835 40.9422L31.1719 40.8603L31.3474 40.7808L31.53 40.6965L31.7056 40.6123L31.8858 40.5234L32.0578 40.4368L32.2732 40.3198C32.3727 40.2672 32.4698 40.2133 32.5669 40.1595L32.7226 40.0729L32.9099 39.963L33.0585 39.8764L33.2457 39.7594L33.3874 39.6705C33.4506 39.6307 33.5138 39.5909 33.5758 39.5535L33.708 39.4669L33.9011 39.337L34.0182 39.2563L34.2206 39.1136L34.2874 39.0644C34.5402 38.8831 34.7859 38.6936 35.0282 38.4993L35.1043 38.4373C35.1733 38.3812 35.2412 38.3203 35.3091 38.2665L35.3969 38.1928L35.597 38.0196L35.6813 37.9448L35.8826 37.7622L35.9516 37.6967C36.023 37.6312 36.0932 37.5657 36.1634 37.4978L36.1915 37.4698C36.5216 37.1503 36.8399 36.8181 37.143 36.4741L37.1735 36.4402C37.2425 36.3618 37.3104 36.2834 37.3771 36.2062L37.4181 36.1582C37.4848 36.0787 37.5503 35.9991 37.6159 35.9242L37.6498 35.8809C37.7177 35.7967 37.7856 35.7113 37.8523 35.6259L37.8605 35.6153C38.2263 35.1421 38.5677 34.6504 38.8833 34.1423V34.1353C38.9442 34.0359 39.0004 33.9364 39.0648 33.8358L39.0741 33.8183C39.5726 32.975 39.9982 32.0908 40.3463 31.1753H21.6721V23.0557Z" fill="#926539"/>
<path d="M45.1371 26.9444V4H3.12134V18.8435H0V20.0134H25.4178V28.1144H48.2596V26.9444H45.1371ZM43.9668 26.9444H26.5881V18.8435H4.29404V5.16998H43.9691L43.9668 26.9444Z" fill="#383F44"/>
<path d="M44.5519 29.9866H22.843V21.8857H0V23.0557H3.12368V46.0001H45.1395V31.1566H48.2596V29.9866H44.5519ZM43.9668 44.8301H4.2917V23.0557H21.6726V31.1566H43.9668V44.8301Z" fill="#383F44"/>
</svg>
