<svg width="18" height="18" viewBox="0 0 18 18"  xmlns="http://www.w3.org/2000/svg">
<path fill-rule="evenodd" clip-rule="evenodd" d="M2.65945 2.72125C3.44501 1.62147 5.02407 1.52268 5.90523 2.59434C5.97954 2.68471 6.05444 2.77588 6.12934 2.86706C6.78396 3.66392 7.43827 4.4604 7.6898 4.71193C7.93315 4.95528 7.97965 5.33303 7.80259 5.62813L6.42474 7.92455C6.51305 8.06906 6.63271 8.2415 6.78578 8.43819C7.05876 8.78893 7.40756 9.17831 7.79654 9.56729C8.45159 10.2223 9.18496 10.8409 9.81622 11.2589L12.0769 9.90244C12.3522 9.73726 12.7021 9.76563 12.9472 9.97302L15.1287 11.8188C16.144 12.678 16.0789 14.2633 14.9966 15.0364C13.3276 16.2286 11.0844 16.5121 9.24656 15.3904C7.97958 14.6171 6.42706 13.5255 5.03815 12.1366C3.78192 10.8803 2.8577 9.57925 2.20536 8.4856C1.08662 6.61002 1.47725 4.37633 2.65945 2.72125ZM4.74661 3.54701C4.51478 3.26507 4.11307 3.26688 3.88005 3.5931C2.9528 4.89127 2.75319 6.47589 3.4936 7.71719C4.09609 8.72727 4.94724 9.92433 6.09881 11.0759C7.37707 12.3542 8.82431 13.3754 10.028 14.11C11.2683 14.867 12.8594 14.7197 14.1248 13.8158C14.4113 13.6111 14.4286 13.1914 14.1597 12.9639L12.3882 11.4649L10.197 12.7797C9.965 12.9189 9.67603 12.9223 9.44078 12.7887C8.57954 12.2997 7.57291 11.465 6.73588 10.628C6.31328 10.2054 5.9211 9.76942 5.60204 9.35947C5.29187 8.96094 5.01736 8.54484 4.86976 8.16649C4.7854 7.95023 4.80593 7.70709 4.92536 7.50804L6.23046 5.33287C5.88038 4.92785 5.41526 4.36132 4.98533 3.83764C4.90417 3.73878 4.82425 3.64145 4.74661 3.54701Z"/>
</svg>
