<svg width="50" height="50" viewBox="0 0 50 50" fill="none" xmlns="http://www.w3.org/2000/svg">
<path d="M9.37467 29.2915C9.09841 29.2915 8.83346 29.4012 8.63811 29.5966C8.44275 29.792 8.33301 30.0569 8.33301 30.3332C8.33301 30.6094 8.44275 30.8744 8.63811 31.0697C8.83346 31.2651 9.09841 31.3748 9.37467 31.3748H15.6247C15.9009 31.3748 16.1659 31.2651 16.3612 31.0697C16.5566 30.8744 16.6663 30.6094 16.6663 30.3332C16.6663 30.0569 16.5566 29.792 16.3612 29.5966C16.1659 29.4012 15.9009 29.2915 15.6247 29.2915H9.37467Z" fill="white"/>
<path d="M44.7913 6.375H5.20801C4.37921 6.375 3.58435 6.70424 2.9983 7.29029C2.41225 7.87634 2.08301 8.6712 2.08301 9.5V32.4167C2.08301 33.2455 2.41225 34.0403 2.9983 34.6264C3.58435 35.2124 4.37921 35.5417 5.20801 35.5417H15.6247C15.9009 35.5417 16.1659 35.4319 16.3612 35.2366C16.5566 35.0412 16.6663 34.7763 16.6663 34.5C16.6663 34.2237 16.5566 33.9588 16.3612 33.7634C16.1659 33.5681 15.9009 33.4583 15.6247 33.4583H5.20801C4.93174 33.4583 4.66679 33.3486 4.47144 33.1532C4.27609 32.9579 4.16634 32.6929 4.16634 32.4167V14.7083H45.833V32.4167C45.833 32.6929 45.7233 32.9579 45.5279 33.1532C45.3326 33.3486 45.0676 33.4583 44.7913 33.4583H42.708C42.4317 33.4583 42.1668 33.5681 41.9714 33.7634C41.7761 33.9588 41.6663 34.2237 41.6663 34.5C41.6663 34.7763 41.7761 35.0412 41.9714 35.2366C42.1668 35.4319 42.4317 35.5417 42.708 35.5417H44.7913C45.6201 35.5417 46.415 35.2124 47.001 34.6264C47.5871 34.0403 47.9163 33.2455 47.9163 32.4167V9.5C47.9163 8.6712 47.5871 7.87634 47.001 7.29029C46.415 6.70424 45.6201 6.375 44.7913 6.375ZM4.16634 12.625V9.5C4.16634 9.22373 4.27609 8.95878 4.47144 8.76343C4.66679 8.56808 4.93174 8.45833 5.20801 8.45833H44.7913C45.0676 8.45833 45.3326 8.56808 45.5279 8.76343C45.7233 8.95878 45.833 9.22373 45.833 9.5V12.625H4.16634Z" fill="white"/>
<path d="M36.5204 23.9165C36.3258 23.7116 36.0915 23.5485 35.8318 23.437C35.5722 23.3256 35.2925 23.2681 35.01 23.2681C34.7274 23.2681 34.4478 23.3256 34.1881 23.437C33.9284 23.5485 33.6942 23.7116 33.4995 23.9165L21.312 36.6665C21.2041 36.7775 21.1254 36.9135 21.0829 37.0623L19.4162 42.2707C19.3556 42.4552 19.3489 42.6532 19.3969 42.8414C19.4448 43.0296 19.5455 43.2002 19.687 43.3332C19.8827 43.5218 20.1444 43.6265 20.4162 43.6248H20.7495L25.7287 41.8748C25.8828 41.8201 26.0245 41.7351 26.1454 41.6248L38.3954 28.7915C38.7647 28.4041 38.9708 27.8893 38.9708 27.354C38.9708 26.8187 38.7647 26.304 38.3954 25.9165L36.5204 23.9165ZM24.812 39.9582L22.0412 40.9165L22.9162 37.9373L32.4579 27.9582L34.3329 29.9165L24.812 39.9582ZM35.8329 28.4165L33.9579 26.3332L34.9995 25.2498L36.8745 27.2082L35.8329 28.4165Z" fill="white"/>
</svg>
