<svg width="50" height="50" viewBox="0 0 50 50" fill="none" xmlns="http://www.w3.org/2000/svg">
<path d="M45.833 19.7918H30.4997L26.583 14.771C26.0953 14.1752 25.4819 13.6945 24.7869 13.3631C24.0918 13.0318 23.3322 12.8581 22.5622 12.8543H8.18717C8.04626 12.4511 7.78482 12.1009 7.43826 11.8513C7.09169 11.6016 6.67676 11.4645 6.24967 11.4585H3.12467C2.84841 11.4585 2.58346 11.5682 2.3881 11.7636C2.19275 11.9589 2.08301 12.2239 2.08301 12.5002C2.08301 12.7764 2.19275 13.0414 2.3881 13.2367C2.58346 13.4321 2.84841 13.5418 3.12467 13.5418H6.24967V28.1252H3.12467C2.84841 28.1252 2.58346 28.2349 2.3881 28.4303C2.19275 28.6256 2.08301 28.8906 2.08301 29.1668C2.08301 29.4431 2.19275 29.708 2.3881 29.9034C2.58346 30.0987 2.84841 30.2085 3.12467 30.2085H6.24967C6.77785 30.2098 7.28679 30.0104 7.67356 29.6507C8.06033 29.291 8.29604 28.7979 8.33301 28.271H10.1663C10.7961 29.1206 11.6113 29.8155 12.5499 30.3028C13.4884 30.7902 14.5258 31.0571 15.583 31.0835H16.6663V36.4585C16.6663 37.011 16.8858 37.5409 17.2765 37.9316C17.6672 38.3223 18.1971 38.5418 18.7497 38.5418H45.833C46.3855 38.5418 46.9154 38.3223 47.3061 37.9316C47.6968 37.5409 47.9163 37.011 47.9163 36.4585V21.8752C47.9163 21.3226 47.6968 20.7927 47.3061 20.402C46.9154 20.0113 46.3855 19.7918 45.833 19.7918ZM18.0622 22.9168C17.2169 23.2909 16.2859 23.4283 15.3686 23.3146C14.4513 23.2009 13.5822 22.8401 12.8538 22.271C12.6352 22.1021 12.3603 22.0231 12.0853 22.0502C11.8103 22.0773 11.5561 22.2085 11.3747 22.4168C11.2865 22.5213 11.2202 22.6424 11.1797 22.7729C11.1393 22.9035 11.1254 23.0408 11.139 23.1769C11.1526 23.3129 11.1934 23.4448 11.2589 23.5647C11.3244 23.6847 11.4134 23.7902 11.5205 23.8752C12.9951 24.9866 14.8255 25.5202 16.6663 25.3752V29.0002H15.5622C14.7618 28.9633 13.9821 28.7338 13.2894 28.3312C12.5966 27.9287 12.0113 27.3648 11.583 26.6877C11.4895 26.5341 11.3579 26.4073 11.2009 26.3197C11.0439 26.2321 10.8669 26.1866 10.6872 26.1877H8.33301V14.9377H22.5622C23.0316 14.9398 23.4944 15.0477 23.9164 15.2533C24.3384 15.4589 24.7087 15.7569 24.9997 16.1252L27.8538 19.7918H23.1663L20.1663 16.6668C20.0726 16.5538 19.9547 16.4632 19.8213 16.4019C19.6878 16.3406 19.5423 16.3101 19.3955 16.3127C19.1192 16.3127 18.8543 16.4224 18.6589 16.6178C18.4636 16.8131 18.3538 17.0781 18.3538 17.3543C18.3546 17.5108 18.3905 17.6651 18.459 17.8057C18.5276 17.9464 18.6269 18.0698 18.7497 18.1668L22.0413 21.5418L26.5622 26.146C26.3369 26.4166 26.0298 26.6067 25.6872 26.6877C25.2903 26.8329 24.8664 26.8895 24.4453 26.8535C24.0243 26.8175 23.6161 26.6898 23.2497 26.4793C22.4997 25.9377 20.1038 23.7918 19.2288 23.021C19.066 22.8912 18.8686 22.8121 18.6612 22.7936C18.4537 22.7751 18.2454 22.8179 18.0622 22.9168ZM45.833 36.4585H18.7497V25.4585C19.7705 26.3543 21.333 27.7293 21.9997 28.2085C22.9364 28.8029 24.0461 29.0645 25.1497 28.9511C26.2534 28.8378 27.2867 28.356 28.083 27.5835C28.4396 27.1764 28.6237 26.6465 28.5965 26.106C28.5693 25.5656 28.3328 25.0569 27.9372 24.6877L25.1872 21.8752H45.833V36.4585Z" fill="white"/>
<path d="M32.2917 33.3333C33.1158 33.3333 33.9213 33.089 34.6065 32.6311C35.2917 32.1733 35.8258 31.5225 36.1412 30.7612C36.4565 29.9998 36.539 29.162 36.3783 28.3538C36.2175 27.5455 35.8207 26.8031 35.2379 26.2204C34.6552 25.6377 33.9128 25.2408 33.1045 25.0801C32.2963 24.9193 31.4585 25.0018 30.6972 25.3172C29.9358 25.6325 29.285 26.1666 28.8272 26.8518C28.3694 27.537 28.125 28.3426 28.125 29.1667C28.125 30.2717 28.564 31.3315 29.3454 32.1129C30.1268 32.8944 31.1866 33.3333 32.2917 33.3333ZM32.2917 27.0833C32.7037 27.0833 33.1065 27.2055 33.4491 27.4344C33.7917 27.6634 34.0587 27.9887 34.2164 28.3694C34.3741 28.7501 34.4154 29.169 34.335 29.5731C34.2546 29.9772 34.0562 30.3485 33.7648 30.6398C33.4734 30.9312 33.1022 31.1296 32.6981 31.21C32.294 31.2904 31.8751 31.2491 31.4944 31.0914C31.1137 30.9337 30.7884 30.6667 30.5594 30.3241C30.3305 29.9815 30.2083 29.5787 30.2083 29.1667C30.2083 28.6141 30.4278 28.0842 30.8185 27.6935C31.2092 27.3028 31.7391 27.0833 32.2917 27.0833Z" fill="white"/>
</svg>
