<svg width="50" height="50" viewBox="0 0 50 50" fill="none" xmlns="http://www.w3.org/2000/svg">
<path d="M11.458 27.0835H9.37467C9.09841 27.0835 8.83346 27.1932 8.63811 27.3886C8.44275 27.5839 8.33301 27.8489 8.33301 28.1252C8.33301 28.4014 8.44275 28.6664 8.63811 28.8617C8.83346 29.0571 9.09841 29.1668 9.37467 29.1668H11.458C11.7343 29.1668 11.9992 29.0571 12.1946 28.8617C12.3899 28.6664 12.4997 28.4014 12.4997 28.1252C12.4997 27.8489 12.3899 27.5839 12.1946 27.3886C11.9992 27.1932 11.7343 27.0835 11.458 27.0835Z" fill="white"/>
<path d="M17.708 27.0835H15.6247C15.3484 27.0835 15.0835 27.1932 14.8881 27.3886C14.6928 27.5839 14.583 27.8489 14.583 28.1252C14.583 28.4014 14.6928 28.6664 14.8881 28.8617C15.0835 29.0571 15.3484 29.1668 15.6247 29.1668H17.708C17.9843 29.1668 18.2492 29.0571 18.4446 28.8617C18.6399 28.6664 18.7497 28.4014 18.7497 28.1252C18.7497 27.8489 18.6399 27.5839 18.4446 27.3886C18.2492 27.1932 17.9843 27.0835 17.708 27.0835Z" fill="white"/>
<path d="M23.958 27.0835H21.8747C21.5984 27.0835 21.3335 27.1932 21.1381 27.3886C20.9428 27.5839 20.833 27.8489 20.833 28.1252C20.833 28.4014 20.9428 28.6664 21.1381 28.8617C21.3335 29.0571 21.5984 29.1668 21.8747 29.1668H23.958C24.2343 29.1668 24.4992 29.0571 24.6946 28.8617C24.8899 28.6664 24.9997 28.4014 24.9997 28.1252C24.9997 27.8489 24.8899 27.5839 24.6946 27.3886C24.4992 27.1932 24.2343 27.0835 23.958 27.0835Z" fill="white"/>
<path d="M11.458 33.3335H9.37467C9.09841 33.3335 8.83346 33.4432 8.63811 33.6386C8.44275 33.8339 8.33301 34.0989 8.33301 34.3752C8.33301 34.6514 8.44275 34.9164 8.63811 35.1117C8.83346 35.3071 9.09841 35.4168 9.37467 35.4168H11.458C11.7343 35.4168 11.9992 35.3071 12.1946 35.1117C12.3899 34.9164 12.4997 34.6514 12.4997 34.3752C12.4997 34.0989 12.3899 33.8339 12.1946 33.6386C11.9992 33.4432 11.7343 33.3335 11.458 33.3335Z" fill="white"/>
<path d="M17.708 33.3335H15.6247C15.3484 33.3335 15.0835 33.4432 14.8881 33.6386C14.6928 33.8339 14.583 34.0989 14.583 34.3752C14.583 34.6514 14.6928 34.9164 14.8881 35.1117C15.0835 35.3071 15.3484 35.4168 15.6247 35.4168H17.708C17.9843 35.4168 18.2492 35.3071 18.4446 35.1117C18.6399 34.9164 18.7497 34.6514 18.7497 34.3752C18.7497 34.0989 18.6399 33.8339 18.4446 33.6386C18.2492 33.4432 17.9843 33.3335 17.708 33.3335Z" fill="white"/>
<path d="M23.958 33.3335H21.8747C21.5984 33.3335 21.3335 33.4432 21.1381 33.6386C20.9428 33.8339 20.833 34.0989 20.833 34.3752C20.833 34.6514 20.9428 34.9164 21.1381 35.1117C21.3335 35.3071 21.5984 35.4168 21.8747 35.4168H23.958C24.2343 35.4168 24.4992 35.3071 24.6946 35.1117C24.8899 34.9164 24.9997 34.6514 24.9997 34.3752C24.9997 34.0989 24.8899 33.8339 24.6946 33.6386C24.4992 33.4432 24.2343 33.3335 23.958 33.3335Z" fill="white"/>
<path d="M11.458 39.5835H9.37467C9.09841 39.5835 8.83346 39.6932 8.63811 39.8886C8.44275 40.0839 8.33301 40.3489 8.33301 40.6252C8.33301 40.9014 8.44275 41.1664 8.63811 41.3617C8.83346 41.5571 9.09841 41.6668 9.37467 41.6668H11.458C11.7343 41.6668 11.9992 41.5571 12.1946 41.3617C12.3899 41.1664 12.4997 40.9014 12.4997 40.6252C12.4997 40.3489 12.3899 40.0839 12.1946 39.8886C11.9992 39.6932 11.7343 39.5835 11.458 39.5835Z" fill="white"/>
<path d="M17.708 39.5835H15.6247C15.3484 39.5835 15.0835 39.6932 14.8881 39.8886C14.6928 40.0839 14.583 40.3489 14.583 40.6252C14.583 40.9014 14.6928 41.1664 14.8881 41.3617C15.0835 41.5571 15.3484 41.6668 15.6247 41.6668H17.708C17.9843 41.6668 18.2492 41.5571 18.4446 41.3617C18.6399 41.1664 18.7497 40.9014 18.7497 40.6252C18.7497 40.3489 18.6399 40.0839 18.4446 39.8886C18.2492 39.6932 17.9843 39.5835 17.708 39.5835Z" fill="white"/>
<path d="M23.958 39.5835H21.8747C21.5984 39.5835 21.3335 39.6932 21.1381 39.8886C20.9428 40.0839 20.833 40.3489 20.833 40.6252C20.833 40.9014 20.9428 41.1664 21.1381 41.3617C21.3335 41.5571 21.5984 41.6668 21.8747 41.6668H23.958C24.2343 41.6668 24.4992 41.5571 24.6946 41.3617C24.8899 41.1664 24.9997 40.9014 24.9997 40.6252C24.9997 40.3489 24.8899 40.0839 24.6946 39.8886C24.4992 39.6932 24.2343 39.5835 23.958 39.5835Z" fill="white"/>
<path d="M45.833 8.3335H31.2497V4.16683C31.2497 3.6143 31.0302 3.08439 30.6395 2.69369C30.2488 2.30299 29.7189 2.0835 29.1663 2.0835H4.16634C3.61381 2.0835 3.0839 2.30299 2.6932 2.69369C2.3025 3.08439 2.08301 3.6143 2.08301 4.16683V45.8335C2.08301 46.386 2.3025 46.9159 2.6932 47.3066C3.0839 47.6973 3.61381 47.9168 4.16634 47.9168H29.1663C29.7189 47.9168 30.2488 47.6973 30.6395 47.3066C31.0302 46.9159 31.2497 46.386 31.2497 45.8335V39.5835H45.833C46.3855 39.5835 46.9154 39.364 47.3061 38.9733C47.6968 38.5826 47.9163 38.0527 47.9163 37.5002V10.4168C47.9163 9.86429 47.6968 9.33439 47.3061 8.94369C46.9154 8.55299 46.3855 8.3335 45.833 8.3335ZM39.583 10.4168V37.5002H37.4997V10.4168H39.583ZM29.1663 46.8752V45.8335H4.16634V4.16683H29.1663V45.8335V46.8752ZM31.2497 10.4168H35.4163V37.5002H31.2497V10.4168ZM45.833 37.5002H41.6663V10.4168H45.833V37.5002Z" fill="white"/>
<path d="M22.9163 8.3335H10.4163C9.86381 8.3335 9.3339 8.55299 8.9432 8.94369C8.5525 9.33439 8.33301 9.8643 8.33301 10.4168V20.8335C8.33301 21.386 8.5525 21.9159 8.9432 22.3066C9.3339 22.6973 9.86381 22.9168 10.4163 22.9168H22.9163C23.4689 22.9168 23.9988 22.6973 24.3895 22.3066C24.7802 21.9159 24.9997 21.386 24.9997 20.8335V10.4168C24.9997 9.8643 24.7802 9.33439 24.3895 8.94369C23.9988 8.55299 23.4689 8.3335 22.9163 8.3335ZM22.9163 21.8752V20.8335H10.4163V10.4168H22.9163V20.8335V21.8752Z" fill="white"/>
</svg>
