<svg width="20" height="20" viewBox="0 0 20 20" fill="none" xmlns="http://www.w3.org/2000/svg">
<path d="M4.99984 9.99992C4.99984 10.9204 4.25365 11.6666 3.33317 11.6666C2.4127 11.6666 1.6665 10.9204 1.6665 9.99992C1.6665 9.07944 2.4127 8.33325 3.33317 8.33325C4.25365 8.33325 4.99984 9.07944 4.99984 9.99992Z" fill="white"/>
<path d="M11.6665 9.99992C11.6665 10.9204 10.9203 11.6666 9.99984 11.6666C9.07936 11.6666 8.33317 10.9204 8.33317 9.99992C8.33317 9.07944 9.07936 8.33325 9.99984 8.33325C10.9203 8.33325 11.6665 9.07944 11.6665 9.99992Z" fill="white"/>
<path d="M16.6665 11.6666C17.587 11.6666 18.3332 10.9204 18.3332 9.99992C18.3332 9.07944 17.587 8.33325 16.6665 8.33325C15.746 8.33325 14.9998 9.07944 14.9998 9.99992C14.9998 10.9204 15.746 11.6666 16.6665 11.6666Z" fill="white"/>
</svg>
