<svg width="20" height="20" viewBox="0 0 20 20" fill="none" xmlns="http://www.w3.org/2000/svg">
<path fill-rule="evenodd" clip-rule="evenodd" d="M14.6083 10.7067C14.852 10.5544 15 10.2873 15 10C15 9.71268 14.852 9.44562 14.6083 9.29334L7.94167 5.12667C7.68478 4.96611 7.36099 4.95761 7.09603 5.10446C6.83106 5.25132 6.66667 5.5304 6.66667 5.83333L6.66667 14.1667C6.66667 14.4696 6.83106 14.7487 7.09603 14.8955C7.36099 15.0424 7.68477 15.0339 7.94166 14.8733L14.6083 10.7067ZM8.33333 12.6631L8.33333 7.33687L12.5943 10L8.33333 12.6631Z" fill="#29C555"/>
<path fill-rule="evenodd" clip-rule="evenodd" d="M20 10C20 15.5228 15.5228 20 10 20C4.47715 20 0 15.5228 0 10C0 4.47715 4.47715 0 10 0C15.5228 0 20 4.47715 20 10ZM18.3333 10C18.3333 14.6024 14.6024 18.3333 10 18.3333C5.39763 18.3333 1.66667 14.6024 1.66667 10C1.66667 5.39763 5.39763 1.66667 10 1.66667C14.6024 1.66667 18.3333 5.39763 18.3333 10Z" fill="#29C555"/>
</svg>
