<svg width="16" height="16" viewBox="0 0 16 16" xmlns="http://www.w3.org/2000/svg">
<path fill-rule="evenodd" clip-rule="evenodd" d="M8.00065 0C4.33296 0 1.33398 2.91103 1.33398 6.53333C1.33398 8.97783 2.79818 11.3327 4.24484 13.0176C4.9795 13.8733 5.73751 14.5887 6.36212 15.095C6.67357 15.3474 6.9607 15.555 7.20223 15.7036C7.32223 15.7774 7.44186 15.8433 7.55491 15.8931C7.64656 15.9334 7.81315 16 8.00065 16C8.18816 16 8.35474 15.9334 8.44639 15.8931C8.55945 15.8433 8.67907 15.7774 8.79907 15.7036C9.04061 15.555 9.32773 15.3474 9.63918 15.095C10.2638 14.5887 11.0218 13.8733 11.7565 13.0176C13.2031 11.3327 14.6673 8.97783 14.6673 6.53333C14.6673 2.91103 11.6683 0 8.00065 0ZM2.66732 6.53333C2.66732 3.6755 5.04093 1.33333 8.00065 1.33333C10.9604 1.33333 13.334 3.6755 13.334 6.53333C13.334 8.48884 12.1315 10.534 10.7448 12.1491C10.0628 12.9434 9.36251 13.6029 8.79962 14.0592C8.51732 14.288 8.2784 14.4585 8.10067 14.5678C8.06262 14.5912 8.02931 14.6106 8.00065 14.6264C7.97199 14.6106 7.93868 14.5912 7.90063 14.5678C7.7229 14.4585 7.48398 14.288 7.20168 14.0592C6.6388 13.6029 5.93847 12.9434 5.25646 12.1491C3.86979 10.534 2.66732 8.48884 2.66732 6.53333Z"/>
<path fill-rule="evenodd" clip-rule="evenodd" d="M5.33398 6.66667C5.33398 5.19391 6.52789 4 8.00065 4C9.47341 4 10.6673 5.19391 10.6673 6.66667C10.6673 8.13943 9.47341 9.33333 8.00065 9.33333C6.52789 9.33333 5.33398 8.13943 5.33398 6.66667ZM6.66732 6.66667C6.66732 5.93029 7.26427 5.33333 8.00065 5.33333C8.73703 5.33333 9.33399 5.93029 9.33399 6.66667C9.33399 7.40305 8.73703 8 8.00065 8C7.26427 8 6.66732 7.40305 6.66732 6.66667Z" />
</svg>
