<svg width="26" height="26" viewBox="0 0 26 26" fill="none" xmlns="http://www.w3.org/2000/svg">
<path fill-rule="evenodd" clip-rule="evenodd" d="M14.0295 14.3135C14.4397 13.9033 15.0374 13.7429 15.5978 13.8925C17.2289 14.3281 19.0344 13.9047 20.3089 12.6303C21.5028 11.4363 21.9495 9.77496 21.6438 8.2312L20.3089 9.56611C19.2512 10.6238 17.5364 10.6238 16.4787 9.56611C15.4211 8.50844 15.4211 6.79362 16.4787 5.73595L17.8136 4.40104C16.2699 4.09533 14.6086 4.542 13.4146 5.73596C12.1401 7.01044 11.7167 8.81593 12.1523 10.447C12.302 11.0075 12.1416 11.6052 11.7314 12.0154L5.75427 17.9925C5.11967 18.6271 5.11967 19.656 5.75427 20.2906C6.38887 20.9252 7.41777 20.9252 8.05237 20.2906L14.0295 14.3135ZM15.1785 15.4625C17.347 16.0416 19.7567 15.4805 21.4579 13.7793C23.4192 11.818 23.8651 8.91525 22.7957 6.52585C22.522 5.91439 21.7289 5.84805 21.2552 6.32175L19.1599 8.41706C18.7368 8.84013 18.0509 8.84013 17.6278 8.41706C17.2047 7.99399 17.2047 7.30806 17.6278 6.88499L19.7231 4.78968C20.1968 4.31599 20.1305 3.52282 19.519 3.24915C17.1296 2.17972 14.2268 2.62564 12.2655 4.58691C10.5643 6.28815 10.0032 8.6978 10.5823 10.8663L4.60522 16.8434C3.33602 18.1126 3.33602 20.1704 4.60522 21.4396C5.87443 22.7088 7.93221 22.7088 9.20142 21.4396L15.1785 15.4625Z" fill="#926539"/>
</svg>
