<svg width="24" height="24" viewBox="0 0 24 24" fill="none" xmlns="http://www.w3.org/2000/svg">
<path fill-rule="evenodd" clip-rule="evenodd" d="M4 14.25C4.41421 14.25 4.75 14.5858 4.75 15V17C4.75 17.6904 5.30964 18.25 6 18.25H18C18.6904 18.25 19.25 17.6904 19.25 17V15C19.25 14.5858 19.5858 14.25 20 14.25C20.4142 14.25 20.75 14.5858 20.75 15V17C20.75 18.5188 19.5188 19.75 18 19.75H6C4.48122 19.75 3.25 18.5188 3.25 17V15C3.25 14.5858 3.58579 14.25 4 14.25Z" fill="#29C555"/>
<path d="M6.97153 11.0322C6.67864 10.7393 6.67864 10.2645 6.97153 9.97157C7.26442 9.67867 7.7393 9.67867 8.03219 9.97157L11.2499 13.1893L11.2499 5.49952C11.2499 5.0853 11.5857 4.74952 11.9999 4.74952C12.4141 4.74952 12.7499 5.0853 12.7499 5.49951L12.7499 13.1894L15.9697 9.96961C16.2626 9.67672 16.7374 9.67672 17.0303 9.96961C17.3232 10.2625 17.3232 10.7374 17.0303 11.0303L12.5303 15.5303C12.3896 15.671 12.1989 15.75 12 15.75C11.801 15.75 11.6103 15.671 11.4696 15.5303L6.97153 11.0322Z" fill="#29C555"/>
</svg>
