<?xml version="1.0" encoding="utf-8"?><svg width="165" height="32" fill="none" xmlns="http://www.w3.org/2000/svg" viewBox="0 0 165 32"><path d="M57.64 6.758V25.24h-3.559l-9.34-11.222V25.24H40.46V6.758h3.586l9.312 11.222V6.758h4.283zM76.574 21.808v3.433H62.072V6.758H76.23v3.432h-9.85v4.014h8.697v3.327h-8.697v4.277h10.195zM89.045 25.558c-1.945 0-3.702-.413-5.272-1.241a9.44 9.44 0 01-3.667-3.406c-.874-1.46-1.311-3.098-1.311-4.912 0-1.813.437-3.442 1.311-4.885a9.38 9.38 0 013.667-3.432c1.57-.828 3.327-1.242 5.272-1.242 1.944 0 3.693.414 5.244 1.242a9.371 9.371 0 013.666 3.432c.893 1.444 1.34 3.072 1.339 4.885 0 1.813-.447 3.45-1.338 4.912-.892 1.443-2.114 2.579-3.667 3.406-1.552.827-3.3 1.24-5.244 1.241zm0-3.644c1.106 0 2.105-.246 2.997-.739a5.44 5.44 0 002.087-2.112c.518-.899.776-1.92.776-3.064 0-1.143-.26-2.164-.776-3.063a5.255 5.255 0 00-2.087-2.087c-.893-.51-1.892-.766-2.997-.766-1.106 0-2.105.256-2.998.766a5.432 5.432 0 00-2.114 2.086c-.501.898-.751 1.92-.751 3.063 0 1.144.25 2.165.751 3.063a5.625 5.625 0 002.114 2.113c.892.493 1.892.74 2.998.74zM109.376 17.98l-2.515 2.588v4.673h-4.306V6.758h4.308v8.634l8.296-8.634h4.817l-7.761 8.236 8.215 10.245h-5.057l-5.997-7.26zM139.541 6.758V25.24h-3.56l-9.339-11.222V25.24h-4.283V6.758h3.586l9.313 11.222V6.758h4.283zM156.308 21.28h-8.697l-1.659 3.96h-4.442l8.349-18.482h4.282l8.373 18.483h-4.549l-1.657-3.96zm-1.364-3.248l-2.971-7.076-2.97 7.076h5.941z" fill="#fff"/><path d="M25.079 21.642c-.039.065-.075.128-.117.192v.005c-.202.325-.422.64-.656.942l-.006.007c-.043.055-.085.11-.13.163l-.022.028a3.575 3.575 0 01-.127.15l-.026.03c-.043.051-.086.102-.13.15l-.02.022c-.195.22-.399.433-.61.637l-.019.018-.136.127-.044.042-.13.117-.054.048-.128.11-.056.048c-.044.037-.088.075-.132.11l-.049.04c-.155.123-.313.245-.475.36l-.043.032-.13.092-.075.051-.124.083-.085.056a2.27 2.27 0 01-.121.075l-.091.057-.12.074-.096.056-.12.07-.1.056c-.062.034-.125.069-.189.102l-.138.075-.11.055-.116.057-.113.054-.117.054-.113.051-.12.053-.113.047-.126.051-.11.044-.138.052-.099.038-.205.075-.086.028a7.76 7.76 0 01-.188.06c-.031.011-.064.02-.096.03l-.15.045-.104.029-.146.04-.107.027-.15.036-.105.024a5.868 5.868 0 01-.157.034l-.098.021-.188.036-.068.013-.257.042-.071.01-.19.026-.098.012-.166.019-.105.01-.162.015-.106.008-.166.01-.102.006c-.06 0-.121.005-.182.007h-.358a11.137 11.137 0 01-7.87-3.25 11.934 11.934 0 01-.547-.584 11.024 11.024 0 01-2.71-7.559v-.075c0-.075.004-.15.009-.225a13.927 13.927 0 01.02-.298c0-.02 0-.038.004-.058l.024-.24.004-.043v-.01h-1.67v13.935H28.23v-8.74H25.9a10.978 10.978 0 01-.814 1.693l-.007.01zM15.493 4.907c1.567 0 3.116.33 4.547.968 1.43.638 2.709 1.57 3.753 2.735a11.06 11.06 0 012.762 8.635h1.673V3.308H2.756v8.75h2.33a11.104 11.104 0 014.086-5.19 11.163 11.163 0 016.32-1.962z" fill="#C2CACC"/><path d="M19.299 26.424l.099-.037-.1.037zM18.727 26.616l.096-.03-.096.03zM19.01 26.527l.086-.029-.086.029zM20.006 26.142l.113-.051-.113.05zM19.775 26.242l.112-.048-.112.048zM19.54 26.336l.109-.043-.11.043zM17.965 26.818l.105-.025-.105.025zM17.71 26.873l.099-.02-.098.02zM18.219 26.757l.106-.027-.106.027zM17.455 26.92l.069-.012-.069.013zM18.473 26.691l.104-.029-.104.03zM21.834 25.117l.13-.092-.13.092zM22.004 24.994zM21.635 25.252l.124-.083-.124.083zM22.53 24.593c.044-.036.087-.075.13-.11a3.27 3.27 0 01-.13.11zM22.72 24.436l.13-.11-.13.11zM20.715 25.798zM20.465 25.927l.11-.056-.11.056zM21.219 25.514l.12-.075-.12.075zM20.238 26.037l.113-.054-.113.054zM21.43 25.384l.12-.074-.12.074zM4.376 15.405zM6.734 22.849zM4.364 15.703zM7.25 23.458zM17.069 17.244h9.484a11.065 11.065 0 00-1.94-7.604 11.134 11.134 0 00-6.501-4.425 11.168 11.168 0 00-7.813.968 11.107 11.107 0 00-5.217 5.876h11.987v5.185zM17.127 26.973l.07-.01-.07.01zM7.621 23.844c.126.125.255.248.386.367-.128-.12-.26-.241-.386-.367zM4.422 14.81zM4.396 15.106c-.006.075-.01.15-.015.229.004-.077.009-.153.015-.229zM16.3 27.064l.107-.008-.106.008zM16.566 27.04l.106-.01-.106.01zM16.838 27.012l.098-.012-.098.012zM16.031 27.08l.103-.006-.103.006zM9.047 25.046zM9.719 25.486zM8.207 24.388zM11.158 26.22zM21.002 25.64l.12-.07-.12.07zM23.841 23.336zM24.018 23.13c.043-.051.085-.102.127-.15-.042.05-.084.102-.127.15zM23.86 23.315zM25.901 19.94zM24.96 21.833c.04-.063.076-.127.117-.191l-.116.191zM24.303 22.78zM24.166 22.952l.13-.164-.13.164zM22.906 24.277l.13-.117-.13.117zM23.076 24.119z" fill="#29C555"/><path d="M4.381 15.335c0 .023 0 .046-.004.07 0-.024.003-.047.004-.07zM4.402 15.05c0 .02-.004.038-.006.057l.006-.057zM18.07 26.793l.151-.036-.15.036zM18.322 26.731l.146-.04-.146.04zM18.574 26.661zM19.096 26.499l.205-.075-.205.075zM4.43 14.767l-.004.043.004-.043zM18.822 26.587zM25.078 21.642l.006-.011-.006.011zM15.85 27.086c.06 0 .121 0 .181-.007l-.181.007zM4.367 15.63v.075a.497.497 0 010-.075zM16.67 27.03l.166-.018-.166.018zM15.492 27.093h.27-.27zM16.135 27.074l.166-.01-.166.01zM16.406 27.055l.162-.014-.162.014zM16.936 27l.19-.026-.19.026zM17.523 26.909c.063-.012.126-.023.188-.036l-.188.036zM17.809 26.851zM22.848 24.328l.054-.049-.054.049zM17.197 26.963a9.95 9.95 0 00.257-.042c-.084.015-.17.027-.257.042zM21.555 25.307l.085-.056-.085.056zM21.123 25.57l.095-.055-.095.055zM23.21 23.99l.018-.016-.017.017zM21.338 25.44l.09-.056-.09.057zM23.84 23.336l.02-.021-.02.02zM21.76 25.168l.075-.052-.075.052zM22.482 24.633l.05-.04-.05.04zM22.662 24.484l.057-.048-.057.048zM21.965 25.026l.043-.032-.043.032zM23.033 24.161l.045-.042-.045.042zM20.904 25.695l.1-.055-.1.055zM20.576 25.87l.138-.074-.138.075zM24.297 22.788l.005-.007-.005.007zM20.354 25.984l.115-.057-.116.057zM19.885 26.194l.12-.052-.12.052zM20.12 26.091l.116-.054-.117.054zM19.4 26.39l.139-.053-.139.052zM19.648 26.293l.127-.05-.127.05zM24.145 22.979l.02-.027-.02.027zM23.992 23.163l.026-.03-.026.03z" fill="#926539"/><path d="M13.914 14.755H4.429v.011l-.004.043c-.01.08-.017.16-.023.24 0 .02-.004.038-.006.058a9.98 9.98 0 00-.015.228c0 .023 0 .047-.004.07-.005.075-.007.15-.01.225v.074c-.002.1-.004.2-.004.3a11.024 11.024 0 003.261 7.844 11.053 11.053 0 001.427 1.203c.219.154.443.3.672.44a11.476 11.476 0 001.945.933c1.226.447 2.522.675 3.828.674h.358c.06 0 .12 0 .18-.007l.104-.006.165-.01.107-.009.161-.014.105-.01.167-.019.097-.012.19-.026.07-.01c.087-.013.172-.028.258-.043l.068-.012.188-.036.098-.021a5.86 5.86 0 00.157-.034l.105-.025.15-.036.107-.027.146-.04.104-.029.15-.044.097-.03.188-.06.085-.029.205-.075.1-.037.138-.052.11-.044.126-.05.112-.049.12-.052.113-.051.117-.054.113-.054.116-.057.11-.055.139-.075.188-.103.1-.055.12-.07.096-.056.12-.075.091-.057.121-.075.085-.055.124-.083.075-.052.13-.091.043-.032c.162-.116.32-.237.475-.361l.05-.04c.044-.036.087-.075.13-.11l.057-.046.129-.111.054-.048.129-.117.044-.042a7.71 7.71 0 00.136-.127l.018-.018c.212-.204.417-.417.611-.637l.02-.022c.044-.05.088-.1.13-.15l.027-.03c.043-.051.085-.102.127-.15l.022-.028.13-.163.005-.007c.235-.303.454-.617.657-.943v-.004c.039-.064.075-.127.116-.192l.006-.011c.32-.54.593-1.106.817-1.692h-11.99v-5.196z" fill="#926539"/><path d="M28.98 17.244V2.56H2.003v9.5H0v.748h16.319v5.185h14.665v-.749h-2.005zm-.752 0H17.07v-5.185H2.757V3.31h25.472l-.001 13.935z" fill="#fff"/><path d="M28.603 19.191H14.666v-5.184H0v.749h2.005V29.44h26.976v-9.5h2.003v-.749h-2.38zm-.375 9.5H2.755V14.756h11.16v5.184h14.313v8.751z" fill="#fff"/></svg>