<?xml version="1.0" encoding="utf-8"?><svg width="257" height="50" fill="none" xmlns="http://www.w3.org/2000/svg" viewBox="0 0 257 50"><path d="M89.779 10.56v28.88h-5.544L69.689 21.905V39.44h-6.671V10.56h5.585l14.505 17.535V10.56h6.67zM119.271 34.077v5.363H96.684V10.56h22.049v5.363h-15.342v6.271h13.547v5.198h-13.547v6.685h15.88zM138.695 39.936c-3.029 0-5.766-.647-8.211-1.94a14.723 14.723 0 01-5.711-5.322c-1.362-2.282-2.043-4.84-2.043-7.674 0-2.834.681-5.378 2.043-7.633a14.624 14.624 0 015.711-5.363c2.445-1.293 5.182-1.94 8.211-1.94s5.752.647 8.169 1.94a14.62 14.62 0 015.711 5.363c1.39 2.256 2.085 4.8 2.084 7.633-.001 2.833-.696 5.39-2.084 7.674-1.389 2.255-3.293 4.03-5.711 5.322-2.418 1.292-5.141 1.939-8.169 1.94zm0-5.694c1.723 0 3.279-.385 4.669-1.155a8.489 8.489 0 003.25-3.3c.807-1.405 1.21-3 1.209-4.787-.001-1.787-.404-3.383-1.209-4.787a8.205 8.205 0 00-3.25-3.26c-1.391-.798-2.947-1.197-4.669-1.197-1.722 0-3.278.399-4.668 1.197a8.472 8.472 0 00-3.294 3.258c-.78 1.404-1.17 3-1.17 4.787s.39 3.382 1.17 4.786a8.773 8.773 0 003.294 3.3c1.389.772 2.946 1.157 4.668 1.157zM170.361 28.095l-3.917 4.043v7.302h-6.708V10.56h6.711v13.491l12.921-13.49h7.503L174.784 23.43l12.795 16.007h-7.878l-9.34-11.342zM217.345 10.56v28.88h-5.544l-14.546-17.535V39.44h-6.671V10.56h5.585l14.505 17.535V10.56h6.671zM243.462 33.252h-13.547l-2.584 6.188h-6.919l13.004-28.88h6.671l13.041 28.88h-7.085l-2.581-6.188zm-2.125-5.076l-4.628-11.056-4.626 11.056h9.254z" fill="#383F44"/><path d="M39.062 33.817c-.06.1-.117.2-.182.3v.006c-.316.508-.657 1-1.023 1.473l-.008.01c-.067.086-.133.172-.202.256l-.034.043a5.84 5.84 0 01-.198.234l-.041.048c-.067.08-.135.158-.204.234l-.03.034c-.303.344-.622.676-.952.996l-.028.028c-.07.066-.14.133-.212.199l-.069.065-.201.183-.084.075-.2.173-.088.074c-.068.057-.136.117-.205.17l-.076.062c-.242.195-.488.384-.74.565l-.068.05-.202.142-.117.081-.193.13-.133.086c-.062.041-.125.081-.188.117l-.142.09-.187.116-.148.087-.188.11-.155.087-.294.16-.215.117-.172.086-.18.09-.176.084-.183.084-.175.08-.189.081-.174.075-.197.08-.17.067-.216.082-.154.059-.32.117-.133.044c-.098.033-.195.065-.293.095-.05.017-.1.03-.15.046a9.154 9.154 0 01-.234.07l-.163.046-.227.062-.166.042-.234.056-.164.039a9.194 9.194 0 01-.244.052l-.152.033c-.098.02-.196.037-.293.056l-.107.02c-.133.023-.266.045-.4.065l-.11.017-.296.04-.152.02-.259.029-.164.016-.251.022-.166.013-.258.017-.16.009c-.094 0-.189.007-.282.01H24.134a17.299 17.299 0 01-13.112-5.991 17.26 17.26 0 01-4.221-11.81v-.118c0-.117.007-.234.014-.35 0-.037 0-.073.007-.11.007-.117.014-.234.023-.357 0-.03 0-.06.008-.09.01-.125.023-.25.037-.375l.007-.067v-.017H4.295V44.81H43.97V31.156h-3.628c-.347.916-.771 1.8-1.269 2.644l-.011.017zM24.13 7.667A17.349 17.349 0 0140.65 19.74c.74 2.325.983 4.78.71 7.205h2.606V5.17H4.291v13.674h3.628A17.341 17.341 0 0124.13 7.667z" fill="#C2CACC"/><path d="M30.06 41.288l.155-.058-.154.059zM29.168 41.59c.05-.016.1-.03.15-.047-.05.017-.1.03-.15.046zM29.61 41.449l.134-.045-.135.045zM31.162 40.847l.176-.08-.176.08zM30.8 41.004l.175-.075-.174.075zM30.434 41.151l.17-.068-.17.068zM27.982 41.904l.164-.039-.164.039zM27.586 41.99l.152-.032-.152.032zM28.377 41.81l.166-.043-.166.042zM27.188 42.065l.106-.02-.107.02zM28.771 41.705l.163-.045-.163.045zM34.008 39.246l.202-.143-.202.143zM34.273 39.053zM33.697 39.457l.193-.13-.193.13zM35.092 38.426c.069-.056.137-.117.205-.17a5.127 5.127 0 01-.205.17zM35.389 38.181l.2-.173-.2.173zM32.264 40.31c.1-.053.196-.106.293-.16-.097.054-.194.108-.293.16zM31.877 40.51l.172-.086-.172.086zM33.049 39.867l.187-.117-.187.117zM31.523 40.683l.176-.084-.176.084zM33.377 39.663c.063-.04.126-.08.188-.117l-.188.117zM6.815 24.07c-.007.118-.01.235-.014.352.003-.117.007-.234.014-.351zM10.488 35.702zM6.796 24.537zM11.293 36.654zM26.587 26.944h14.772A17.331 17.331 0 0028.21 8.15 17.346 17.346 0 007.916 18.843h18.67v8.101zM26.676 42.147l.11-.016-.11.016zM6.9 23.056v0zM11.87 37.257c.195.196.396.387.6.573-.2-.186-.405-.377-.6-.573zM6.886 23.14c-.014.125-.026.25-.036.376.014-.128.025-.245.036-.376zM6.846 23.605c-.01.117-.017.234-.024.357.007-.12.014-.239.024-.357zM25.389 42.287l.166-.013-.166.013zM25.803 42.252l.164-.016-.164.016zM26.227 42.207l.152-.019-.152.019zM24.97 42.313l.161-.01-.16.01zM14.092 39.135zM15.139 39.824zM12.783 38.106zM17.38 40.971zM32.713 40.063l.187-.11-.187.11zM37.135 36.463zM37.41 36.142c.067-.08.133-.16.199-.235-.066.08-.132.16-.199.235zM37.164 36.43zM40.342 31.157zM38.879 34.116c.06-.1.117-.199.181-.3l-.181.3zM37.853 35.596zM37.64 35.862zM35.678 37.934l.201-.182-.201.182zM35.943 37.686c.072-.066.142-.133.212-.2-.07.069-.14.134-.212.2z" fill="#29C555"/><path d="M6.823 23.962c0 .036 0 .072-.007.109l.007-.11zM6.856 23.516c0 .03-.006.06-.008.09l.008-.09zM28.146 41.865l.235-.056-.235.056zM28.54 41.768l.227-.062-.228.062zM28.932 41.66zM29.742 41.406l.32-.117-.32.117zM6.9 23.073l-.007.067.007-.067zM29.318 41.544zM39.06 33.817l.01-.018-.01.018zM24.688 42.323c.094 0 .189 0 .283-.01l-.284.01zM6.801 24.422v.117a.78.78 0 010-.117zM25.965 42.235l.26-.029-.26.03zM24.13 42.333h.421-.42zM25.13 42.304l.26-.016-.26.016zM25.555 42.274l.252-.022-.252.022zM26.379 42.188l.296-.041-.296.04zM27.293 42.045c.097-.018.195-.036.293-.056l-.293.056zM27.738 41.956zM35.588 38.013l.085-.076-.085.076zM26.785 42.13c.134-.02.267-.042.4-.065-.13.023-.264.042-.4.066zM33.572 39.543l.133-.087-.133.087zM32.9 39.953l.149-.086-.149.086zM36.154 37.488l.029-.029-.029.029zM33.236 39.752l.142-.088-.142.088zM37.133 36.464l.03-.035-.03.035zM33.893 39.326l.117-.08-.117.08zM35.02 38.489l.076-.063-.076.063zM35.299 38.257l.089-.075-.09.075zM34.213 39.103l.067-.05-.067.05zM35.875 37.753l.07-.066-.07.066zM32.559 40.15l.155-.087-.155.087zM32.049 40.424l.215-.117-.215.117zM37.846 35.608l.008-.012-.008.012zM31.701 40.6l.18-.09-.18.09zM30.973 40.93l.188-.083-.188.082zM31.338 40.767l.182-.084-.182.084zM30.217 41.234l.215-.082-.215.082zM30.604 41.084l.196-.08-.197.08zM37.607 35.907l.034-.044-.034.044zM37.37 36.193l.04-.048-.04.048z" fill="#926539"/><path d="M21.672 23.056H6.9v.017l-.007.067c-.014.125-.026.25-.036.375 0 .03-.006.06-.009.09-.009.117-.016.235-.023.357 0 .037 0 .073-.007.11-.007.116-.01.233-.014.35v.117a17.26 17.26 0 005.072 12.725 17.36 17.36 0 003.269 2.567 17.933 17.933 0 002.242 1.148 17.298 17.298 0 006.75 1.363H24.694c.094 0 .188 0 .282-.011l.16-.01.258-.016.166-.013.252-.022.163-.016.26-.03.151-.018.296-.041.11-.017c.134-.02.267-.042.4-.065l.107-.02c.097-.019.196-.036.293-.056l.152-.033c.082-.016.163-.034.244-.052l.164-.04.234-.055.167-.042.227-.062.162-.046c.08-.022.157-.046.234-.07l.15-.046c.098-.03.196-.062.293-.095l.133-.044.32-.117.154-.059.216-.082.17-.067.197-.08.174-.075.189-.082.175-.08.183-.084.176-.084.18-.089.172-.086.215-.117c.1-.053.197-.107.294-.16l.156-.087.187-.11.149-.087.187-.117.141-.089c.064-.04.127-.08.189-.117l.132-.086.193-.13.117-.08.203-.143.066-.05c.253-.18.499-.37.741-.565l.076-.062c.07-.056.137-.117.205-.17l.088-.074.2-.173.084-.075.202-.183.069-.065c.071-.066.141-.131.211-.2l.029-.027c.33-.32.648-.652.951-.996l.03-.034c.07-.078.137-.157.204-.234l.041-.048c.067-.08.132-.159.198-.234l.034-.043c.068-.084.136-.17.202-.255l.009-.01c.365-.474.707-.966 1.022-1.474v-.007c.061-.1.117-.199.182-.3l.01-.017c.498-.843.923-1.727 1.271-2.643H21.672v-8.12z" fill="#926539"/><path d="M45.137 26.944V4H3.121v14.843H0v1.17h25.418v8.101H48.26v-1.17h-3.123zm-1.17 0H26.588v-8.1H4.294V5.17h39.675l-.002 21.774z" fill="#383F44"/><path d="M44.552 29.987H22.843v-8.101H0v1.17h3.124V46h42.015V31.157h3.12v-1.17h-3.707zm-.585 14.843H4.292V23.056h17.38v8.1h22.295V44.83z" fill="#383F44"/></svg>