<?xml version="1.0" encoding="utf-8"?><svg width="18" height="18" xmlns="http://www.w3.org/2000/svg" viewBox="0 0 18 18"><path fill-rule="evenodd" clip-rule="evenodd" d="M2.66 2.721c.785-1.1 2.364-1.198 3.245-.127l.224.273c.655.797 1.31 1.593 1.56 1.845a.75.75 0 01.114.916L6.425 7.925c.088.144.208.317.36.513.274.35.623.74 1.012 1.13.655.654 1.388 1.273 2.02 1.69l2.26-1.356a.75.75 0 01.87.071l2.182 1.846a2.04 2.04 0 01-.132 3.217c-1.67 1.193-3.913 1.476-5.75.354-1.267-.773-2.82-1.865-4.209-3.253a18.809 18.809 0 01-2.833-3.651c-1.118-1.876-.728-4.11.454-5.765zm2.087.826c-.232-.282-.634-.28-.867.046-.927 1.298-1.127 2.883-.386 4.124a17.307 17.307 0 002.605 3.359c1.278 1.278 2.725 2.3 3.929 3.034 1.24.757 2.831.61 4.097-.294a.54.54 0 00.035-.852l-1.772-1.5-2.191 1.316a.75.75 0 01-.756.009c-.861-.49-1.868-1.324-2.705-2.161a14.028 14.028 0 01-1.134-1.269c-.31-.398-.585-.814-.732-1.193a.75.75 0 01.055-.658L6.23 5.333a86.35 86.35 0 01-1.245-1.495c-.08-.1-.16-.197-.238-.291z"/></svg>