<?xml version="1.0" encoding="utf-8"?><svg width="50" height="50" fill="none" xmlns="http://www.w3.org/2000/svg" viewBox="0 0 50 50"><path d="M9.375 29.291a1.041 1.041 0 100 2.084h6.25a1.041 1.041 0 100-2.084h-6.25z" fill="#fff"/><path d="M44.791 6.375H5.208A3.125 3.125 0 002.083 9.5v22.917a3.125 3.125 0 003.125 3.125h10.417a1.042 1.042 0 000-2.084H5.208a1.041 1.041 0 01-1.042-1.041V14.708h41.667v17.709a1.041 1.041 0 01-1.042 1.041h-2.083a1.042 1.042 0 000 2.084h2.083a3.125 3.125 0 003.125-3.125V9.5a3.125 3.125 0 00-3.125-3.125zm-40.625 6.25V9.5a1.042 1.042 0 011.042-1.042h39.583A1.042 1.042 0 0145.833 9.5v3.125H4.166z" fill="#fff"/><path d="M36.52 23.916a2.083 2.083 0 00-3.02 0l-12.188 12.75a.937.937 0 00-.23.396l-1.666 5.209a1.02 1.02 0 00.271 1.062c.196.189.457.294.73.292h.332l4.98-1.75c.154-.055.296-.14.416-.25l12.25-12.834a2.083 2.083 0 000-2.875l-1.875-2zM24.812 39.959l-2.77.959.874-2.98 9.542-9.979 1.875 1.959-9.521 10.041zm11.02-11.541l-1.874-2.084 1.041-1.083 1.875 1.958-1.041 1.209z" fill="#fff"/></svg>