<?xml version="1.0" encoding="utf-8"?><svg width="50" height="50" fill="none" xmlns="http://www.w3.org/2000/svg" viewBox="0 0 50 50"><path d="M45.833 19.792H30.5l-3.917-5.021a5.23 5.23 0 00-4.02-1.917H8.186A2.083 2.083 0 006.25 11.46H3.125a1.041 1.041 0 100 2.083H6.25v14.583H3.125a1.041 1.041 0 100 2.084H6.25a2.083 2.083 0 002.083-1.938h1.833a6.958 6.958 0 005.417 2.813h1.083v5.375a2.083 2.083 0 002.084 2.083h27.083a2.083 2.083 0 002.083-2.084V21.876a2.083 2.083 0 00-2.083-2.083zm-27.77 3.125a5.104 5.104 0 01-5.21-.646 1.083 1.083 0 00-1.478.146 1.022 1.022 0 00.146 1.458 7.563 7.563 0 005.145 1.5V29h-1.104a4.98 4.98 0 01-3.979-2.312 1.041 1.041 0 00-.896-.5H8.333v-11.25h14.23A3.124 3.124 0 0125 16.125l2.854 3.667h-4.688l-3-3.125a.98.98 0 00-.77-.354 1.042 1.042 0 00-.937 1.493c.069.14.168.264.29.36l3.292 3.376 4.521 4.604c-.225.27-.532.46-.875.542a2.897 2.897 0 01-2.437-.209c-.75-.541-3.146-2.687-4.021-3.458a1.062 1.062 0 00-1.167-.104zm27.77 13.541H18.75v-11c1.02.896 2.583 2.271 3.25 2.75a4.937 4.937 0 006.083-.624 2.083 2.083 0 00-.146-2.896l-2.75-2.813h20.646V36.46z" fill="#fff"/><path d="M32.292 33.333a4.166 4.166 0 100-8.331 4.166 4.166 0 000 8.331zm0-6.25a2.083 2.083 0 110 4.167 2.083 2.083 0 010-4.167z" fill="#fff"/></svg>