<?xml version="1.0" encoding="utf-8"?><svg width="50" height="50" fill="none" xmlns="http://www.w3.org/2000/svg" viewBox="0 0 50 50"><path d="M11.458 27.084H9.375a1.041 1.041 0 100 2.083h2.083a1.042 1.042 0 100-2.084zM17.708 27.084h-2.083a1.042 1.042 0 100 2.083h2.083a1.042 1.042 0 100-2.084zM23.958 27.084h-2.083a1.042 1.042 0 100 2.083h2.083a1.042 1.042 0 100-2.084zM11.458 33.334H9.375a1.041 1.041 0 100 2.083h2.083a1.042 1.042 0 100-2.084zM17.708 33.334h-2.083a1.042 1.042 0 100 2.083h2.083a1.042 1.042 0 100-2.084zM23.958 33.334h-2.083a1.042 1.042 0 100 2.083h2.083a1.042 1.042 0 100-2.084zM11.458 39.584H9.375a1.041 1.041 0 100 2.083h2.083a1.042 1.042 0 100-2.084zM17.708 39.584h-2.083a1.042 1.042 0 100 2.083h2.083a1.042 1.042 0 100-2.084zM23.958 39.584h-2.083a1.042 1.042 0 100 2.083h2.083a1.042 1.042 0 100-2.084z" fill="#fff"/><path d="M45.833 8.334H31.25V4.167a2.083 2.083 0 00-2.084-2.083h-25a2.083 2.083 0 00-2.083 2.083v41.667a2.083 2.083 0 002.083 2.083h25a2.083 2.083 0 002.084-2.084v-6.25h14.583a2.083 2.083 0 002.083-2.083V10.417a2.083 2.083 0 00-2.083-2.083zm-6.25 2.083V37.5H37.5V10.417h2.083zM29.166 46.875v-1.041h-25V4.166h25v42.708zm2.084-36.458h4.166V37.5H31.25V10.417zM45.833 37.5h-4.167V10.417h4.167V37.5z" fill="#fff"/><path d="M22.916 8.334h-12.5a2.083 2.083 0 00-2.083 2.083v10.417a2.083 2.083 0 002.083 2.083h12.5A2.083 2.083 0 0025 20.833V10.418a2.083 2.083 0 00-2.084-2.083zm0 13.541v-1.041h-12.5V10.417h12.5v11.458z" fill="#fff"/></svg>