<?xml version="1.0" encoding="utf-8"?><svg width="16" height="16" xmlns="http://www.w3.org/2000/svg" viewBox="0 0 16 16"><path fill-rule="evenodd" clip-rule="evenodd" d="M8 0C4.334 0 1.335 2.911 1.335 6.533c0 2.445 1.464 4.8 2.91 6.485a16.938 16.938 0 002.118 2.077c.312.252.599.46.84.609.12.073.24.14.353.19.092.04.258.106.446.106.187 0 .354-.067.445-.107.113-.05.233-.116.353-.19.242-.148.529-.356.84-.608a16.94 16.94 0 002.118-2.077c1.446-1.685 2.91-4.04 2.91-6.485C14.667 2.911 11.668 0 8.001 0zM2.668 6.533c0-2.858 2.374-5.2 5.334-5.2 2.96 0 5.333 2.343 5.333 5.2 0 1.956-1.202 4.001-2.59 5.616A15.615 15.615 0 018.8 14.06c-.283.229-.522.4-.7.509a2.46 2.46 0 01-.1.058 2.46 2.46 0 01-.1-.058 6.975 6.975 0 01-.698-.509 15.617 15.617 0 01-1.946-1.91C3.87 10.534 2.667 8.49 2.667 6.533z"/><path fill-rule="evenodd" clip-rule="evenodd" d="M5.334 6.667a2.667 2.667 0 115.333 0 2.667 2.667 0 01-5.333 0zm1.333 0a1.333 1.333 0 112.667 0 1.333 1.333 0 01-2.667 0z"/></svg>