<?xml version="1.0" encoding="utf-8"?><svg width="26" height="26" fill="none" xmlns="http://www.w3.org/2000/svg" viewBox="0 0 26 26"><path fill-rule="evenodd" clip-rule="evenodd" d="M14.03 14.313c.41-.41 1.007-.57 1.568-.42a4.873 4.873 0 004.71-1.263 4.872 4.872 0 001.336-4.399l-1.335 1.335a2.708 2.708 0 11-3.83-3.83L17.814 4.4a4.871 4.871 0 00-4.4 1.335 4.872 4.872 0 00-1.262 4.711c.15.56-.01 1.158-.42 1.568l-5.978 5.977a1.625 1.625 0 002.298 2.299l5.978-5.978zm1.149 1.15a6.502 6.502 0 007.617-8.937c-.274-.612-1.067-.678-1.54-.204L19.16 8.417a1.083 1.083 0 01-1.532-1.532l2.095-2.095c.474-.474.408-1.267-.204-1.54a6.503 6.503 0 00-8.937 7.616l-5.977 5.977a3.25 3.25 0 004.596 4.597l5.977-5.978z" fill="#926539"/></svg>