<?xml version="1.0" encoding="utf-8"?><svg width="24" height="24" fill="none" xmlns="http://www.w3.org/2000/svg" viewBox="0 0 24 24"><path fill-rule="evenodd" clip-rule="evenodd" d="M4 14.25a.75.75 0 01.75.75v2c0 .69.56 1.25 1.25 1.25h12c.69 0 1.25-.56 1.25-1.25v-2a.75.75 0 011.5 0v2A2.75 2.75 0 0118 19.75H6A2.75 2.75 0 013.25 17v-2a.75.75 0 01.75-.75z" fill="#fff"/><path d="M6.972 11.032a.75.75 0 111.06-1.06l3.218 3.217V5.5a.75.75 0 011.5 0v7.69l3.22-3.22a.75.75 0 111.06 1.061l-4.5 4.5a.75.75 0 01-1.06 0l-4.498-4.498z" fill="#fff"/></svg>