<?xml version="1.0" encoding="utf-8"?><svg width="24" height="24" xmlns="http://www.w3.org/2000/svg" viewBox="0 0 24 24"><path fill-rule="evenodd" clip-rule="evenodd" d="M1.684 1.684C0 3.368 0 6.079 0 11.5v1c0 5.42 0 8.132 1.684 9.816C3.368 24 6.079 24 11.5 24h1c5.42 0 8.132 0 9.816-1.684C24 20.632 24 17.921 24 12.5v-1c0-5.42 0-8.132-1.684-9.816C20.632 0 17.921 0 12.5 0h-1C6.08 0 3.368 0 1.684 1.684zM4.75 7.5H6.5c.447 0 .615.196.783.68.856 2.494 2.3 4.673 2.892 4.673.223 0 .325-.103.325-.668V9.608c-.04-.734-.296-1.05-.486-1.286-.117-.145-.21-.259-.21-.42 0-.196.168-.402.446-.402H13c.371 0 .5.198.5.643v3.467c0 .37.16.501.272.501.222 0 .408-.13.816-.538 1.26-1.409 2.15-3.578 2.15-3.578.112-.26.317-.495.762-.495h1.75c.53 0 .641.273.53.643-.223 1.02-2.355 4.023-2.355 4.023-.186.297-.26.445 0 .779.092.128.287.32.511.54.23.224.487.477.694.72.752.846 1.318 1.56 1.476 2.051.144.494-.106.744-.606.744h-1.75c-.469 0-.705-.262-1.215-.83-.216-.24-.481-.536-.834-.89-1.04-1-1.483-1.13-1.743-1.13-.352 0-.458.1-.458.6v1.57c0 .43-.138.68-1.25.68-1.854 0-3.892-1.126-5.337-3.202-2.17-3.04-2.763-5.34-2.763-5.803 0-.26.1-.495.6-.495z"/></svg>