<svg width="108" height="108" viewBox="0 0 108 108" fill="none" xmlns="http://www.w3.org/2000/svg">
<g filter="url(#filter0_d_24_320)">
<circle cx="54" cy="48" r="34" fill="white"/>
</g>
<path d="M42.5059 40.2324L42.3241 42.5894L41.9368 47.6114L41.7527 49.9982L34.0353 44.3865C34.0232 44.3779 34.0136 44.3663 34.0075 44.353C34.0014 44.3397 33.999 44.325 34.0004 44.3104C34.0018 44.2958 34.0071 44.2819 34.0157 44.27C34.0243 44.258 34.036 44.2485 34.0495 44.2423L42.5059 40.2324Z" fill="#29C555"/>
<path d="M49.129 36.0848H51.2449H56.4627H58.928L53.7674 28.012C53.765 28.0083 53.7617 28.0052 53.7577 28.0031C53.7537 28.001 53.7493 27.9999 53.7448 28C53.7402 28.0001 53.7358 28.0013 53.732 28.0036C53.7281 28.0058 53.7248 28.009 53.7226 28.0129L49.048 35.9465C49.0398 35.9605 49.0354 35.9764 49.0354 35.9926C49.0354 36.0088 49.0397 36.0247 49.0479 36.0387C49.0561 36.0527 49.0679 36.0643 49.0822 36.0724C49.0964 36.0805 49.1126 36.0848 49.129 36.0848Z" fill="#29C555"/>
<path d="M65.2081 39.6336L65.3922 42.0203L65.7797 47.0434L65.9614 49.3994L73.7934 43.7043L65.2081 39.6336Z" fill="#29C555"/>
<path d="M42.3241 42.5894L41.9368 47.6114C45.7583 48.3673 49.845 51.0685 50.4714 54.7038V68H56.8328V54.5562C57.0236 53.4093 57.5216 52.3329 58.2755 51.4377C60.153 49.2123 62.7818 47.622 65.7797 47.0434L65.3922 42.0203C62.0158 42.5236 58.9509 43.8997 56.4627 45.9745V45.6465V36.0848H51.2449V45.1819V46.2913C48.696 44.4317 45.5596 43.0646 42.3241 42.5894Z" fill="#29C555"/>
<defs>
<filter id="filter0_d_24_320" x="0" y="0" width="108" height="108" filterUnits="userSpaceOnUse" color-interpolation-filters="sRGB">
<feFlood flood-opacity="0" result="BackgroundImageFix"/>
<feColorMatrix in="SourceAlpha" type="matrix" values="0 0 0 0 0 0 0 0 0 0 0 0 0 0 0 0 0 0 127 0" result="hardAlpha"/>
<feOffset dy="6"/>
<feGaussianBlur stdDeviation="10"/>
<feComposite in2="hardAlpha" operator="out"/>
<feColorMatrix type="matrix" values="0 0 0 0 0.219608 0 0 0 0 0.247059 0 0 0 0 0.266667 0 0 0 0.1 0"/>
<feBlend mode="normal" in2="BackgroundImageFix" result="effect1_dropShadow_24_320"/>
<feBlend mode="normal" in="SourceGraphic" in2="effect1_dropShadow_24_320" result="shape"/>
</filter>
</defs>
</svg>
