<svg width="108" height="108" viewBox="0 0 108 108" fill="none" xmlns="http://www.w3.org/2000/svg">
<g filter="url(#filter0_d_24_329)">
<circle r="34" transform="matrix(-1 0 0 1 54 48)" fill="white"/>
</g>
<path d="M70.434 55.362C69.468 55.1681 68.2396 55.967 67.7179 57.1353L64.4626 64.4106C63.9393 65.5806 64.4255 66.7271 65.5396 66.9578C66.6537 67.1884 67.9546 66.4046 68.4263 65.2146L71.3388 57.8774C71.8121 56.6857 71.4048 55.5525 70.434 55.362Z" fill="#383F44"/>
<path d="M76.6981 54.0253L73.9756 53.208L72.6426 57.9897L75.3634 58.807C75.5911 58.8758 75.8297 58.8972 76.0654 58.8702C76.3011 58.8431 76.5293 58.7681 76.7371 58.6493C76.9448 58.5305 77.1279 58.3704 77.2759 58.1781C77.424 57.9857 77.534 57.765 77.5997 57.5284L77.9297 56.3468C78.0627 55.8694 78.0076 55.3568 77.7767 54.9215C77.5457 54.4862 77.1578 54.1639 76.6981 54.0253Z" fill="#29C555"/>
<path d="M68.2258 48.4895C64.0768 45.4009 60.39 41.3345 59.131 37.8798C57.0638 32.214 53.9887 31.2881 53.9887 31.2881L44.5703 65.0441C44.5703 65.0441 47.5729 66.2609 52.2338 62.6157C55.0304 60.4279 60.1227 59.044 65.1346 58.7047C67.3982 54.9927 68.0583 51.03 68.2258 48.4895Z" fill="#29C555"/>
<path d="M76.2371 52.7929C75.4985 52.566 74.7738 52.2931 74.0668 51.9756C73.6273 55.3768 72.8642 57.5863 72.1719 58.9819C72.9137 59.1045 73.648 59.272 74.3711 59.4833C74.3711 59.4833 75.3838 59.1807 76.1743 56.3461C76.9648 53.5115 76.2371 52.7929 76.2371 52.7929Z" fill="#29C555"/>
<path d="M74.0669 51.979C72.0059 51.0347 70.0479 49.8648 68.2259 48.4893C68.0649 51.0297 67.3984 54.9924 65.1348 58.7045C67.4833 58.5268 69.8435 58.621 72.172 58.9853C72.8643 57.5897 73.6306 55.3802 74.0669 51.979Z" fill="#169A3B"/>
<path d="M53.7598 49.5124C51.1612 58.8351 47.0461 65.7879 44.57 65.0442C42.0938 64.3004 42.192 56.1359 44.7905 46.8182C47.3891 37.5005 51.5026 30.5427 53.9884 31.2881C56.4742 32.0335 56.3583 40.1913 53.7598 49.5124Z" fill="#169A3B"/>
<path d="M48.7822 46.9666L48.2799 48.77C48.0692 49.5341 48.1583 50.3538 48.5278 51.0499C48.8974 51.7461 49.5173 52.2621 50.2521 52.4853L52.614 53.194C53.0197 52.0241 53.4045 50.7889 53.7603 49.517C54.1306 48.1917 54.4477 46.8914 54.715 45.6312L52.3612 44.9242C51.6258 44.7052 50.8367 44.7971 50.1663 45.1797C49.4958 45.5623 48.9983 46.2046 48.7822 46.9666Z" fill="#383F44"/>
<path d="M35.1063 54.1537C34.2707 52.5342 33.8698 50.6774 33.77 48.8222C33.6874 46.9542 33.8889 45.0844 34.3673 43.2817C34.8223 41.4698 35.5744 39.7528 36.5907 38.2058C37.6145 36.6935 38.8691 35.3646 40.3049 34.2715C39.3389 35.8024 38.3552 37.2699 37.5873 38.8276C36.8191 40.3758 36.2166 42.0067 35.7905 43.6912C35.3473 45.3726 35.0594 47.0941 34.9308 48.8322C34.8013 50.6074 34.8601 52.3919 35.1063 54.1537Z" fill="#29C555"/>
<path d="M31.9406 55.456C31.2773 54.5635 30.8957 53.4705 30.5914 52.3891C30.3078 51.2923 30.1277 50.1695 30.0537 49.0364C29.8938 46.7586 30.105 44.4691 30.6784 42.2641C31.2567 40.0568 32.1961 37.969 33.4556 36.0919C34.0741 35.157 34.7748 34.2836 35.5486 33.4829C36.3343 32.7074 37.1763 31.9436 38.1825 31.5107C37.3886 32.2368 36.6854 33.0633 36.0895 33.971C34.2809 36.6053 32.9287 39.5469 32.0936 42.6636C31.5616 44.7381 31.2602 46.869 31.1952 49.0147C31.1614 50.0955 31.1953 51.1775 31.2966 52.2537C31.3774 53.3455 31.5939 54.4219 31.9406 55.456Z" fill="#29C555"/>
<path d="M38.7187 51.6716C38.2995 50.5211 38.084 49.3015 38.0828 48.0715C38.07 46.8357 38.2217 45.604 38.5336 44.4113C38.8427 43.2223 39.3098 42.0838 39.9214 41.0285C40.5247 39.9676 41.3093 39.0297 42.2365 38.2607C41.7906 39.3973 41.3526 40.4686 40.9695 41.5533C40.5863 42.638 40.2482 43.711 39.9552 44.8274C39.6718 45.9105 39.4287 47.0336 39.2339 48.1701C39.0391 49.3066 38.8862 50.4532 38.7187 51.6716Z" fill="#29C555"/>
<defs>
<filter id="filter0_d_24_329" x="0" y="0" width="108" height="108" filterUnits="userSpaceOnUse" color-interpolation-filters="sRGB">
<feFlood flood-opacity="0" result="BackgroundImageFix"/>
<feColorMatrix in="SourceAlpha" type="matrix" values="0 0 0 0 0 0 0 0 0 0 0 0 0 0 0 0 0 0 127 0" result="hardAlpha"/>
<feOffset dy="6"/>
<feGaussianBlur stdDeviation="10"/>
<feComposite in2="hardAlpha" operator="out"/>
<feColorMatrix type="matrix" values="0 0 0 0 0.219608 0 0 0 0 0.247059 0 0 0 0 0.266667 0 0 0 0.1 0"/>
<feBlend mode="normal" in2="BackgroundImageFix" result="effect1_dropShadow_24_329"/>
<feBlend mode="normal" in="SourceGraphic" in2="effect1_dropShadow_24_329" result="shape"/>
</filter>
</defs>
</svg>
