<svg width="108" height="108" viewBox="0 0 108 108" fill="none" xmlns="http://www.w3.org/2000/svg">
<g filter="url(#filter0_d_24_330)">
<circle r="34" transform="matrix(-1 0 0 1 54 48)" fill="white"/>
</g>
<path d="M45.5873 44.2676C45.5328 44.0203 45.5285 43.7648 45.5746 43.5158C45.6208 43.2668 45.7165 43.0293 45.8562 42.8169C45.9959 42.6045 46.1769 42.4215 46.3887 42.2783C46.6005 42.1351 46.839 42.0346 47.0904 41.9826C47.5972 41.8764 48.1262 41.9726 48.561 42.2503C48.9959 42.5279 49.3011 42.9643 49.4097 43.4635L52.0764 54.6494C52.1309 54.8968 52.1353 55.1523 52.0891 55.4012C52.043 55.6502 51.9473 55.8877 51.8076 56.1001C51.6679 56.3125 51.4869 56.4956 51.2751 56.6387C51.0632 56.7819 50.8248 56.8824 50.5733 56.9344C50.0665 57.0407 49.5376 56.9444 49.1027 56.6667C48.6679 56.3891 48.3626 55.9528 48.2541 55.4536L45.5873 44.2676Z" fill="#E0A769"/>
<path d="M34.7204 34.8143L33.2695 39.7217L73.8265 51.3605L75.2774 46.4531L34.7204 34.8143Z" fill="#6B3D17"/>
<path d="M44.2019 32.6436L45.1232 29.5386L37.9148 27.4766L37.0098 30.5895L44.2019 32.6436Z" fill="#A9A9A9"/>
<path d="M33.3412 43.0093C31.4422 51.154 37.7535 56.2096 39.2889 56.8385C39.5475 56.95 40.2505 57.364 40.6384 57.0376C41.0263 56.7111 40.6384 56.2016 40.4364 55.9866C39.1844 54.8599 38.2772 53.4105 37.8174 51.8024C37.3575 50.1943 37.3634 48.4916 37.8343 46.8866C38.4646 44.737 39.6687 43.7657 40.9778 43.5587L43.2809 35.7484L36.0969 33.6943C36.0969 33.6943 33.3655 42.9377 33.3412 43.0093Z" fill="#A9A9A9"/>
<path d="M38.4961 29.7774L43.3447 31.1786L43.5872 30.3426L38.7385 28.9414L38.4961 29.7774Z" fill="#BFBFBF"/>
<path d="M34.5045 43.3044C34.0767 45.1209 34.1047 47.0129 34.5863 48.8163C35.0679 50.6198 35.9884 52.2804 37.2682 53.6544C36.2024 51.4474 35.9954 48.9319 36.6864 46.5845C37.4379 44.005 38.8925 42.9939 40.0239 42.6037L41.8017 36.5848L36.953 35.1836C35.0055 41.6086 34.6015 42.9859 34.5045 43.3044Z" fill="#BFBFBF"/>
<path d="M37.3015 32.3573C37.2236 32.6528 37.074 32.9253 36.8657 33.1513C36.6574 33.3773 36.3965 33.5502 36.1055 33.655L43.2976 35.7091V35.6693C43.1094 35.4268 42.9826 35.1435 42.9278 34.8431C42.8729 34.5426 42.8917 34.2336 42.9825 33.9417C43.0674 33.647 43.2214 33.3761 43.4319 33.1508C43.6424 32.9254 43.9037 32.7518 44.1946 32.6439L37.0267 30.5898V30.6615C37.2036 30.9034 37.3206 31.1828 37.3684 31.4773C37.4161 31.7717 37.3932 32.0731 37.3015 32.3573Z" fill="#A9A9A9"/>
<path d="M48.043 48.6703C48.043 47.8764 48.3631 47.115 48.9329 46.5536C49.5027 45.9922 50.2756 45.6768 51.0815 45.6768C51.4808 45.6757 51.8764 45.7524 52.2455 45.9025C52.6146 46.0526 52.95 46.273 53.2324 46.5512C53.5147 46.8294 53.7385 47.1598 53.8908 47.5235C54.0431 47.8872 54.121 48.2769 54.1199 48.6703V54.4663C54.121 54.8597 54.0431 55.2495 53.8908 55.6131C53.7385 55.9768 53.5147 56.3072 53.2324 56.5854C52.95 56.8636 52.6146 57.0841 52.2455 57.2341C51.8764 57.3842 51.4808 57.4609 51.0815 57.4598C50.2756 57.4598 49.5027 57.1445 48.9329 56.5831C48.3631 56.0217 48.043 55.2602 48.043 54.4663V48.6703Z" fill="#E0A769"/>
<path d="M65.7573 68.6905H50.4922L51.0821 55.7158H65.1674L65.7573 68.6905Z" fill="#FFD097"/>
<path d="M66.6488 59.5H50.5488V68.7H66.6488V59.5Z" fill="#FFA404"/>
<path d="M50.3379 44.1963V55.1354C50.34 55.7527 50.5904 56.344 51.0342 56.7798C51.478 57.2155 52.0791 57.4602 52.7056 57.4602H64.3909C65.0175 57.4602 65.6185 57.2155 66.0623 56.7798C66.5061 56.344 66.7565 55.7527 66.7586 55.1354V44.1963H50.3379Z" fill="#FFD097"/>
<path d="M50.1602 38.3281C50.1602 37.8171 50.3662 37.327 50.7329 36.9657C51.0997 36.6044 51.5971 36.4014 52.1158 36.4014C52.3722 36.4014 52.6261 36.4513 52.8629 36.5482C53.0998 36.6451 53.3148 36.7871 53.4958 36.9662C53.6767 37.1452 53.82 37.3576 53.9174 37.5913C54.0148 37.8251 54.0644 38.0754 54.0633 38.3281V55.8434C54.0633 56.3544 53.8573 56.8445 53.4905 57.2058C53.1238 57.5671 52.6264 57.7701 52.1077 57.7701C51.5904 57.768 51.0951 57.5641 50.7301 57.203C50.3651 56.8419 50.1602 56.3531 50.1602 55.8434V38.3281Z" fill="#FFD097"/>
<path d="M54.4688 38.2246C54.4677 37.9712 54.5175 37.7202 54.6155 37.486C54.7134 37.2518 54.8574 37.039 55.0392 36.8598C55.221 36.6807 55.437 36.5388 55.6747 36.4424C55.9125 36.3459 56.1673 36.2968 56.4244 36.2979C56.9431 36.2979 57.4405 36.5009 57.8072 36.8622C58.174 37.2235 58.38 37.7136 58.38 38.2246V46.5842C58.373 46.8268 58.3162 47.0656 58.2131 47.2861C58.1099 47.5066 57.9626 47.7042 57.7799 47.8671C57.5972 48.03 57.3829 48.1548 57.1499 48.234C56.917 48.3131 56.6702 48.345 56.4244 48.3277C56.1786 48.345 55.9318 48.3131 55.6988 48.234C55.4659 48.1548 55.2516 48.03 55.0689 47.8671C54.8862 47.7042 54.7388 47.5066 54.6357 47.2861C54.5326 47.0656 54.4758 46.8268 54.4688 46.5842V38.2246Z" fill="#FFD097"/>
<path d="M58.7676 39.9365C58.7665 39.6838 58.8161 39.4335 58.9135 39.1997C59.0109 38.966 59.1542 38.7536 59.3352 38.5746C59.5161 38.3955 59.7312 38.2535 59.968 38.1566C60.2048 38.0597 60.4587 38.0098 60.7151 38.0098C61.2338 38.0098 61.7312 38.2128 62.098 38.5741C62.4647 38.9354 62.6708 39.4255 62.6708 39.9365V46.9506C62.6708 47.2032 62.6201 47.4534 62.5217 47.6867C62.4234 47.92 62.2792 48.1319 62.0975 48.3101C61.9158 48.4884 61.7001 48.6296 61.4629 48.7255C61.2257 48.8215 60.9716 48.8704 60.7151 48.8693C60.4591 48.8704 60.2053 48.8214 59.9686 48.7254C59.7318 48.6293 59.5167 48.4881 59.3356 48.3097C59.1546 48.1313 59.0112 47.9194 58.9137 47.6861C58.8162 47.4528 58.7665 47.2028 58.7676 46.9506V39.9365Z" fill="#FFD097"/>
<path d="M63.1152 42.4525C63.1152 41.9774 63.3068 41.5217 63.6478 41.1858C63.9888 40.8499 64.4513 40.6611 64.9335 40.6611C65.4165 40.6611 65.8798 40.8496 66.222 41.1853C66.5643 41.521 66.7577 41.9767 66.7598 42.4525V54.9123C66.7598 55.3895 66.5674 55.8472 66.2249 56.1846C65.8824 56.522 65.4179 56.7116 64.9335 56.7116C64.4505 56.7095 63.9881 56.519 63.6473 56.1818C63.3065 55.8446 63.1152 55.3881 63.1152 54.9123V42.4525Z" fill="#FFD097"/>
<defs>
<filter id="filter0_d_24_330" x="0" y="0" width="108" height="108" filterUnits="userSpaceOnUse" color-interpolation-filters="sRGB">
<feFlood flood-opacity="0" result="BackgroundImageFix"/>
<feColorMatrix in="SourceAlpha" type="matrix" values="0 0 0 0 0 0 0 0 0 0 0 0 0 0 0 0 0 0 127 0" result="hardAlpha"/>
<feOffset dy="6"/>
<feGaussianBlur stdDeviation="10"/>
<feComposite in2="hardAlpha" operator="out"/>
<feColorMatrix type="matrix" values="0 0 0 0 0.219608 0 0 0 0 0.247059 0 0 0 0 0.266667 0 0 0 0.1 0"/>
<feBlend mode="normal" in2="BackgroundImageFix" result="effect1_dropShadow_24_330"/>
<feBlend mode="normal" in="SourceGraphic" in2="effect1_dropShadow_24_330" result="shape"/>
</filter>
</defs>
</svg>
