<svg width="108" height="108" viewBox="0 0 108 108" fill="none" xmlns="http://www.w3.org/2000/svg">
<g filter="url(#filter0_d_24_321)">
<circle cx="54" cy="48" r="34" fill="white"/>
</g>
<path d="M41.8791 28L37.6951 36.8709C37.225 37.8287 36.9864 38.8831 36.9985 39.9495C37.0106 41.0159 37.273 42.0646 37.7647 43.0116C38.493 44.3521 39.7406 45.5014 41.8791 45.5014C44.0175 45.5014 45.2651 44.3434 45.9934 43.0116C46.4838 42.0642 46.7455 41.0156 46.7575 39.9495C46.7696 38.8833 46.5318 37.829 46.063 36.8709L41.8791 28Z" fill="#ADE0F3"/>
<path d="M55.0557 43.4082L52.8128 48.165C52.5615 48.6775 52.4337 49.2416 52.4397 49.8121C52.4458 50.3827 52.5855 50.9439 52.8476 51.451C53.0582 51.8533 53.3752 52.1903 53.7642 52.4255C54.1532 52.6607 54.5994 52.785 55.0542 52.785C55.509 52.785 55.9552 52.6607 56.3442 52.4255C56.7332 52.1903 57.0502 51.8533 57.2608 51.451C57.5252 50.9451 57.6674 50.3844 57.6759 49.8139C57.6845 49.2433 57.5592 48.6786 57.3101 48.165L55.0557 43.4082Z" fill="#ADE0F3"/>
<path d="M66.6413 28L63.0724 35.5651C62.6721 36.3827 62.4688 37.2823 62.4789 38.1922C62.489 39.102 62.7121 39.9969 63.1305 40.8054C63.465 41.4457 63.969 41.9822 64.5878 42.3566C65.2065 42.7309 65.9163 42.9289 66.6399 42.9289C67.3635 42.9289 68.0732 42.7309 68.692 42.3566C69.3107 41.9822 69.8147 41.4457 70.1492 40.8054C70.5687 39.9974 70.7927 39.1025 70.8033 38.1925C70.8139 37.2825 70.6108 36.3827 70.2102 35.5651L66.6413 28Z" fill="#ADE0F3"/>
<path d="M46.7604 55.8691L44.6946 60.2438C44.4631 60.7168 44.3457 61.2372 44.3518 61.7635C44.3578 62.2899 44.4871 62.8075 44.7294 63.275C44.9136 63.653 45.2032 63.97 45.5635 64.1877C45.9238 64.4055 46.3394 64.5148 46.7604 64.5026C47.1816 64.5152 47.5973 64.406 47.9577 64.1882C48.318 63.9704 48.6076 63.6533 48.7915 63.275C49.0337 62.8075 49.163 62.2899 49.1691 61.7635C49.1751 61.2372 49.0577 60.7168 48.8263 60.2438L46.7604 55.8691Z" fill="#ADE0F3"/>
<path d="M66.6419 52.3721L62.9047 60.2933C62.4853 61.1487 62.2725 62.0904 62.2836 63.0426C62.2947 63.9949 62.5293 64.9313 62.9686 65.7768C63.6185 66.9754 64.7327 68.0003 66.6419 68.0003C68.5511 68.0003 69.6653 66.9754 70.3152 65.7768C70.754 64.9311 70.9881 63.9946 70.9987 63.0423C71.0093 62.09 70.7961 61.1485 70.3761 60.2933L66.6419 52.3721Z" fill="#ADE0F3"/>
<defs>
<filter id="filter0_d_24_321" x="0" y="0" width="108" height="108" filterUnits="userSpaceOnUse" color-interpolation-filters="sRGB">
<feFlood flood-opacity="0" result="BackgroundImageFix"/>
<feColorMatrix in="SourceAlpha" type="matrix" values="0 0 0 0 0 0 0 0 0 0 0 0 0 0 0 0 0 0 127 0" result="hardAlpha"/>
<feOffset dy="6"/>
<feGaussianBlur stdDeviation="10"/>
<feComposite in2="hardAlpha" operator="out"/>
<feColorMatrix type="matrix" values="0 0 0 0 0.219608 0 0 0 0 0.247059 0 0 0 0 0.266667 0 0 0 0.1 0"/>
<feBlend mode="normal" in2="BackgroundImageFix" result="effect1_dropShadow_24_321"/>
<feBlend mode="normal" in="SourceGraphic" in2="effect1_dropShadow_24_321" result="shape"/>
</filter>
</defs>
</svg>
