<svg width="108" height="108" viewBox="0 0 108 108" fill="none" xmlns="http://www.w3.org/2000/svg">
<g filter="url(#filter0_d_24_323)">
<circle cx="54" cy="48" r="34" fill="white"/>
</g>
<path d="M72.2041 48.3022C72.2041 51.8539 71.1509 55.3258 69.1777 58.2789C67.2045 61.232 64.3999 63.5336 61.1186 64.8928C57.8373 66.252 54.2267 66.6076 50.7432 65.9147C47.2598 65.2218 44.0601 63.5115 41.5487 61.0001C39.0373 58.4887 37.327 55.289 36.6341 51.8056C35.9412 48.3221 36.2968 44.7115 37.656 41.4302C39.0152 38.1489 41.3168 35.3443 44.2699 33.3711C47.223 31.3979 50.6949 30.3447 54.2466 30.3447C59.0092 30.3447 63.5768 32.2367 66.9444 35.6044C70.3121 38.972 72.2041 43.5396 72.2041 48.3022Z" fill="#2E2F31"/>
<path d="M71.875 27.375H36.9225C36.4561 27.3732 35.994 27.4637 35.5628 27.6414C35.1316 27.819 34.7398 28.0802 34.41 28.41C34.0802 28.7398 33.819 29.1316 33.6413 29.5628C33.4637 29.994 33.3732 30.4562 33.375 30.9225V65.6825C33.3732 66.1489 33.4637 66.611 33.6413 67.0422C33.819 67.4735 34.0802 67.8653 34.41 68.195C34.7398 68.5248 35.1316 68.7861 35.5628 68.9637C35.994 69.1413 36.4561 69.2318 36.9225 69.23H71.875C72.8158 69.23 73.7182 68.8563 74.3835 68.191C75.0487 67.5257 75.4225 66.6234 75.4225 65.6825V30.9225C75.4225 29.9817 75.0487 29.0794 74.3835 28.4141C73.7182 27.7488 72.8158 27.375 71.875 27.375ZM54.3712 63.9088C51.2852 63.9061 48.2693 62.9885 45.7046 61.272C43.14 59.5555 41.1419 57.1172 39.9628 54.2653C38.7837 51.4133 38.4766 48.2759 39.0803 45.2495C39.684 42.2231 41.1715 39.4436 43.3546 37.2624C45.5377 35.0812 48.3185 33.5962 51.3454 32.9951C54.3724 32.3941 57.5096 32.7039 60.3604 33.8856C63.2113 35.0672 65.6478 37.0675 67.3621 39.6336C69.0763 42.1997 69.9912 45.2165 69.9912 48.3025C69.9912 50.3531 69.5871 52.3836 68.802 54.278C68.0168 56.1723 66.8661 57.8933 65.4154 59.3427C63.9648 60.792 62.2427 61.9413 60.3477 62.7248C58.4527 63.5082 56.4218 63.9106 54.3712 63.9088Z" fill="#F3F4F4"/>
<path d="M59.7741 39.4613C59.7741 42.5688 56.2129 42.6651 54.2741 46.1713C52.0054 46.1713 48.6504 43.6551 48.6504 40.5476C48.6504 39.0561 49.2429 37.6256 50.2975 36.571C51.3522 35.5163 52.7826 34.9238 54.2741 34.9238C57.3541 34.9238 59.7741 36.3538 59.7741 39.4613Z" fill="#29C555"/>
<path d="M43.7018 48.1653C46.4518 46.6116 48.2668 49.6366 52.2818 49.5403C52.8833 50.8618 53.0065 52.3513 52.6302 53.7537C52.2539 55.156 51.4016 56.3838 50.2193 57.2266C49.5793 57.5963 48.8727 57.8362 48.1399 57.9327C47.4071 58.0291 46.6625 57.9802 45.9486 57.7886C45.2348 57.5971 44.5657 57.2667 43.9796 56.8163C43.3935 56.366 42.902 55.8045 42.5331 55.1641C40.9793 52.5241 41.0068 49.7191 43.7018 48.1653Z" fill="#29C555"/>
<path d="M59.2791 57.7354C56.5291 56.1816 58.2753 53.0466 56.2266 49.5954C57.0694 48.4131 58.2972 47.5608 59.6995 47.1845C61.1018 46.8082 62.5913 46.9313 63.9128 47.5329C65.2012 48.2828 66.14 49.5126 66.524 50.953C66.9079 52.3935 66.7057 53.9274 65.9616 55.2191C64.4078 57.9141 61.9741 59.2891 59.2791 57.7354Z" fill="#29C555"/>
<path d="M57.478 48.4538C57.4835 49.094 57.2986 49.7214 56.9469 50.2564C56.5951 50.7914 56.0924 51.2098 55.5025 51.4586C54.9125 51.7074 54.262 51.7753 53.6334 51.6537C53.0048 51.5322 52.4265 51.2266 51.9718 50.7758C51.5172 50.325 51.2067 49.7494 51.0798 49.1218C50.9528 48.4943 51.0152 47.8432 51.2589 47.2511C51.5027 46.6591 51.9168 46.1528 52.4487 45.7965C52.9807 45.4402 53.6065 45.25 54.2468 45.25C55.099 45.25 55.9167 45.5866 56.5219 46.1867C57.1271 46.7867 57.4708 47.6015 57.478 48.4538Z" fill="#C4C4C4"/>
<path d="M56.0755 48.4538C56.0755 48.8154 55.9682 49.169 55.7673 49.4698C55.5663 49.7705 55.2807 50.0049 54.9466 50.1433C54.6124 50.2817 54.2447 50.3179 53.8899 50.2474C53.5352 50.1768 53.2094 50.0026 52.9536 49.7469C52.6978 49.4911 52.5237 49.1653 52.4531 48.8105C52.3825 48.4558 52.4188 48.0881 52.5572 47.7539C52.6956 47.4198 52.93 47.1341 53.2307 46.9332C53.5315 46.7323 53.885 46.625 54.2467 46.625C54.7306 46.6286 55.1937 46.8224 55.5359 47.1646C55.878 47.5068 56.0719 47.9698 56.0755 48.4538Z" fill="#383F44"/>
<path d="M55.0719 48.4539C55.0719 48.6171 55.0235 48.7766 54.9328 48.9123C54.8422 49.0479 54.7133 49.1537 54.5626 49.2161C54.4118 49.2785 54.246 49.2949 54.0859 49.2631C53.9259 49.2312 53.7789 49.1526 53.6635 49.0373C53.5481 48.9219 53.4696 48.7749 53.4377 48.6149C53.4059 48.4548 53.4222 48.2889 53.4847 48.1382C53.5471 47.9874 53.6529 47.8586 53.7885 47.7679C53.9242 47.6773 54.0837 47.6289 54.2469 47.6289C54.4657 47.6289 54.6755 47.7158 54.8302 47.8705C54.985 48.0253 55.0719 48.2351 55.0719 48.4539Z" fill="#29C555"/>
<path d="M37.775 30.95C37.775 31.1132 37.7266 31.2727 37.636 31.4083C37.5453 31.544 37.4165 31.6498 37.2657 31.7122C37.115 31.7746 36.9491 31.791 36.7891 31.7591C36.629 31.7273 36.482 31.6487 36.3666 31.5334C36.2513 31.418 36.1727 31.271 36.1409 31.1109C36.109 30.9509 36.1254 30.785 36.1878 30.6343C36.2502 30.4835 36.356 30.3547 36.4917 30.264C36.6273 30.1734 36.7868 30.125 36.95 30.125C37.1688 30.125 37.3786 30.2119 37.5334 30.3666C37.6881 30.5214 37.775 30.7312 37.775 30.95Z" fill="#838B95"/>
<path d="M37.775 65.325C37.775 65.4882 37.7266 65.6477 37.636 65.7833C37.5453 65.919 37.4165 66.0248 37.2657 66.0872C37.115 66.1496 36.9491 66.166 36.7891 66.1341C36.629 66.1023 36.482 66.0237 36.3666 65.9084C36.2513 65.793 36.1727 65.646 36.1409 65.4859C36.109 65.3259 36.1254 65.16 36.1878 65.0093C36.2502 64.8585 36.356 64.7297 36.4917 64.639C36.6273 64.5484 36.7868 64.5 36.95 64.5C37.1688 64.5 37.3786 64.5869 37.5334 64.7416C37.6881 64.8964 37.775 65.1062 37.775 65.325Z" fill="#838B95"/>
<path d="M72.15 30.95C72.15 31.1132 72.1016 31.2727 72.011 31.4083C71.9203 31.544 71.7915 31.6498 71.6407 31.7122C71.49 31.7746 71.3241 31.791 71.164 31.7591C71.004 31.7273 70.857 31.6487 70.7416 31.5334C70.6263 31.418 70.5477 31.271 70.5159 31.1109C70.484 30.9509 70.5004 30.785 70.5628 30.6343C70.6252 30.4835 70.731 30.3547 70.8667 30.264C71.0023 30.1734 71.1618 30.125 71.325 30.125C71.5438 30.125 71.7536 30.2119 71.9084 30.3666C72.0631 30.5214 72.15 30.7312 72.15 30.95Z" fill="#838B95"/>
<path d="M72.15 65.325C72.15 65.4882 72.1016 65.6477 72.011 65.7833C71.9203 65.919 71.7915 66.0248 71.6407 66.0872C71.49 66.1496 71.3241 66.166 71.164 66.1341C71.004 66.1023 70.857 66.0237 70.7416 65.9084C70.6263 65.793 70.5477 65.646 70.5159 65.4859C70.484 65.3259 70.5004 65.16 70.5628 65.0093C70.6252 64.8585 70.731 64.7297 70.8667 64.639C71.0023 64.5484 71.1618 64.5 71.325 64.5C71.5438 64.5 71.7536 64.5869 71.9084 64.7416C72.0631 64.8964 72.15 65.1062 72.15 65.325Z" fill="#838B95"/>
<path d="M54.2483 64.4998C51.0393 64.4944 47.904 63.5374 45.2388 61.7501C42.5736 59.9628 40.4983 57.4252 39.2753 54.4584C38.0523 51.4916 37.7366 48.2288 38.3679 45.0825C38.9993 41.9362 40.5495 39.0478 42.8224 36.7826C45.0954 34.5173 47.989 32.9769 51.1374 32.3562C54.2858 31.7355 57.5476 32.0624 60.5102 33.2954C63.4729 34.5285 66.0033 36.6123 67.7816 39.2835C69.5599 41.9548 70.5062 45.0933 70.5008 48.3023C70.4898 52.6043 68.7723 56.7262 65.7251 59.763C62.678 62.7999 58.5503 64.5034 54.2483 64.4998ZM54.2483 33.136C51.2568 33.136 48.3326 34.0231 45.8453 35.6851C43.358 37.347 41.4194 39.7092 40.2746 42.473C39.1298 45.2367 38.8303 48.2778 39.4139 51.2118C39.9975 54.1457 41.438 56.8408 43.5533 58.956C45.6685 61.0713 48.3636 62.5118 51.2975 63.0954C54.2315 63.679 57.2726 63.3795 60.0364 62.2347C62.8001 61.0899 65.1623 59.1513 66.8242 56.664C68.4862 54.1767 69.3733 51.2525 69.3733 48.261C69.366 44.2544 67.7692 40.4144 64.9335 37.5838C62.0978 34.7533 58.2549 33.1635 54.2483 33.1635V33.136Z" fill="#29C555"/>
<defs>
<filter id="filter0_d_24_323" x="0" y="0" width="108" height="108" filterUnits="userSpaceOnUse" color-interpolation-filters="sRGB">
<feFlood flood-opacity="0" result="BackgroundImageFix"/>
<feColorMatrix in="SourceAlpha" type="matrix" values="0 0 0 0 0 0 0 0 0 0 0 0 0 0 0 0 0 0 127 0" result="hardAlpha"/>
<feOffset dy="6"/>
<feGaussianBlur stdDeviation="10"/>
<feComposite in2="hardAlpha" operator="out"/>
<feColorMatrix type="matrix" values="0 0 0 0 0.219608 0 0 0 0 0.247059 0 0 0 0 0.266667 0 0 0 0.1 0"/>
<feBlend mode="normal" in2="BackgroundImageFix" result="effect1_dropShadow_24_323"/>
<feBlend mode="normal" in="SourceGraphic" in2="effect1_dropShadow_24_323" result="shape"/>
</filter>
</defs>
</svg>
