<svg width="108" height="108" viewBox="0 0 108 108" fill="none" xmlns="http://www.w3.org/2000/svg">
<g filter="url(#filter0_d_24_324)">
<circle cx="54" cy="48" r="34" fill="white"/>
</g>
<path d="M55.9485 23.0628L55.6668 23.1496L55.4059 23.2907C55.2396 23.4072 55.0917 23.55 54.9677 23.7139C54.7066 24.0923 54.5546 24.5402 54.5294 25.0052C54.5015 25.4871 54.5473 25.9705 54.665 26.4375C54.7377 26.6553 54.8213 26.869 54.9155 27.0777V27.0126C55.0179 27.219 55.1329 27.4184 55.2598 27.6094C55.3448 27.7361 55.439 27.8558 55.5416 27.9675C55.8129 28.2822 56.105 28.5752 56.3764 28.9007C56.6004 29.1439 56.7965 29.4134 56.9607 29.7037C57.0552 29.8659 57.1355 30.0366 57.2007 30.2137C57.2879 30.4475 57.3611 30.6867 57.4198 30.9299V31.0601C57.4628 31.0161 57.4981 30.9647 57.5242 30.9082C57.9939 29.9795 58.3447 28.9909 58.5677 27.9675C58.7333 27.2207 58.7722 26.4495 58.6824 25.6888C58.6471 25.1645 58.484 24.6583 58.2083 24.2178C57.9326 23.7773 57.5535 23.4172 57.1068 23.1713C56.8164 23.0331 56.496 22.977 56.1781 23.0086L55.9485 23.0628Z" fill="#F55308"/>
<path d="M55.1686 37.2039C55.1686 37.3558 55.1686 37.5186 55.1686 37.6813C55.1331 38.4948 54.9999 39.3004 54.7721 40.0794C54.1491 42.0134 53.301 43.861 52.2468 45.5809C51.2034 47.3605 50.0034 49.1726 48.8451 50.9305C48.1147 52.0156 47.3738 53.1007 46.6642 54.2835C45.6208 55.9437 44.8173 57.3218 44.1495 58.6239C43.4631 59.9295 42.9239 61.3131 42.5425 62.7473C42.207 63.968 42.1463 65.2527 42.3651 66.5018C42.5016 67.1381 42.7303 67.7491 43.0434 68.3139C43.3616 68.8817 43.7589 69.3973 44.2225 69.8439C44.758 70.364 45.3539 70.8123 45.9964 71.1786C46.7393 71.6194 47.5222 71.9829 48.3338 72.2637C49.3561 72.6384 50.4021 72.9393 51.4642 73.1643C52.6488 73.4274 53.8536 73.5799 55.0642 73.6201C55.7403 73.633 56.4165 73.6004 57.0886 73.5224C57.5028 73.4811 57.9141 73.4122 58.3199 73.3162C59.2718 73.0993 60.1866 72.7335 61.0329 72.2311C61.4396 72.0034 61.8301 71.746 62.2016 71.4607C62.5754 71.1467 62.9243 70.8019 63.2451 70.4299C63.8518 69.7529 64.3455 68.9755 64.706 68.1294C65.0997 67.245 65.3668 66.3055 65.499 65.3407C65.6422 64.2873 65.6632 63.2199 65.5616 62.1613C65.4726 60.9999 65.2698 59.851 64.9564 58.7324C64.7954 58.154 64.6038 57.5853 64.3825 57.0288C64.0909 56.2776 63.7419 55.5519 63.339 54.8586C62.8486 53.9796 62.2955 53.1333 61.7008 52.3194C61.4294 51.9722 61.1581 51.6141 60.8973 51.2343C60.4694 50.6484 60.0521 50.0407 59.6764 49.4113C59.3648 48.8991 59.0792 48.3703 58.8208 47.8271C58.5573 47.2849 58.3341 46.7227 58.1529 46.1452C57.986 45.6243 57.8399 45.0601 57.7042 44.5501C57.4329 43.465 57.2138 42.3256 56.9425 41.2296C56.9425 41.2296 56.9425 41.2296 56.9425 41.2947C56.7931 40.6513 56.6085 40.0173 56.3895 39.3958C56.1828 38.7924 55.928 38.2081 55.6277 37.6488C55.4816 37.3992 55.3355 37.1605 55.179 36.9326C55.1575 36.9958 55.1575 37.0647 55.179 37.1279L55.1686 37.2039Z" fill="#F55308"/>
<path d="M55.9485 23.0628L55.6668 23.1496L55.4059 23.2907C55.2396 23.4072 55.0917 23.55 54.9677 23.7139C54.7066 24.0923 54.5546 24.5402 54.5294 25.0052C54.5015 25.4871 54.5473 25.9705 54.665 26.4375C54.7377 26.6553 54.8213 26.869 54.9155 27.0777V27.0126C55.0179 27.219 55.1329 27.4184 55.2598 27.6094C55.3448 27.7361 55.439 27.8558 55.5416 27.9675C55.8129 28.2822 56.105 28.5752 56.3764 28.9007C56.6004 29.1439 56.7965 29.4134 56.9607 29.7037C57.0552 29.8659 57.1355 30.0366 57.2007 30.2137C57.2879 30.4475 57.3611 30.6867 57.4198 30.9299V31.0601C57.4628 31.0161 57.4981 30.9647 57.5242 30.9082C57.9939 29.9795 58.3447 28.9909 58.5677 27.9675C58.7333 27.2207 58.7722 26.4495 58.6824 25.6888C58.6471 25.1645 58.484 24.6583 58.2083 24.2178C57.9326 23.7773 57.5535 23.4172 57.1068 23.1713C56.8164 23.0331 56.496 22.977 56.1781 23.0086L55.9485 23.0628Z" fill="#F55308"/>
<path d="M55.2415 47.958C55.0641 48.3052 54.8971 48.6742 54.7302 49.0431C54.4693 49.6399 54.2189 50.2476 53.9789 50.8444L53.478 52.2225L53.2693 52.7542L53.1545 53.0146L53.0711 53.2316L52.6745 54.1974L52.4345 54.6857C52.3402 54.8691 52.2357 55.0466 52.1215 55.2174C51.597 55.9847 51.018 56.7102 50.3893 57.3876L49.9406 57.865L49.6902 58.1255C49.2624 58.5812 48.8345 59.0261 48.4171 59.4927C47.9997 59.9593 47.7911 60.2197 47.5093 60.5778C47.2276 60.9359 47.0293 61.2723 46.8206 61.6629C46.5795 62.0378 46.3634 62.4293 46.1737 62.8348C46.0276 63.2146 45.8919 63.5835 45.7771 63.9199C45.6781 64.2768 45.598 64.639 45.5371 65.005C45.4852 65.3426 45.4538 65.6833 45.4432 66.025C45.4226 66.3393 45.4226 66.6548 45.4432 66.9691C45.4432 67.2403 45.5267 67.5116 45.5893 67.772C45.654 68.054 45.7413 68.3299 45.8502 68.5967C45.9545 68.8572 46.0797 69.1176 46.205 69.3672C46.5414 69.9824 46.9555 70.5481 47.4363 71.0491C48.0082 71.643 48.6377 72.1739 49.3145 72.6333C50.0241 72.8503 50.7024 73.024 51.4015 73.165C52.5892 73.4321 53.7975 73.5882 55.0119 73.6316C55.7086 73.65 56.4058 73.621 57.0989 73.5448C57.5058 73.5448 57.9128 73.4255 58.3197 73.3278C58.7441 73.232 59.1623 73.1088 59.5719 72.9589C59.867 72.6417 60.1457 72.3085 60.4067 71.9606C60.7404 71.5231 61.0504 71.0666 61.3354 70.5933C61.5807 70.1629 61.8003 69.7172 61.9928 69.2586C62.1846 68.8033 62.3484 68.3358 62.4832 67.8589C62.5923 67.4599 62.6759 67.0539 62.7337 66.6435C62.8029 66.2131 62.8413 65.7778 62.8484 65.3414C62.8614 64.863 62.8404 64.3843 62.7858 63.9091C62.734 63.4786 62.6608 63.0513 62.5667 62.6286C62.43 62.0656 62.252 61.5142 62.0345 60.9793C61.8305 60.4749 61.6006 59.9823 61.3458 59.5035C60.6964 58.3539 59.9528 57.2648 59.1232 56.2482L58.6119 55.608C58.0589 54.9352 57.5684 54.295 57.0884 53.6223C56.4841 52.7615 56.0091 51.8102 55.6797 50.801C55.4063 49.8803 55.2691 48.9216 55.2728 47.958H55.2415Z" fill="#F8781F"/>
<path d="M48.2602 32.5596C48.1518 32.5808 48.053 32.6379 47.9784 32.7223C47.6109 33.2369 47.3158 33.8032 47.1019 34.4043C46.8888 35.0273 46.7351 35.6706 46.6428 36.3249C46.5489 36.8783 46.4863 37.41 46.4236 37.9851V38.4408C46.3506 39.157 46.2567 39.7755 46.1523 40.3506C46.3475 40.3252 46.5357 40.2587 46.7054 40.1553L47.081 39.9057L47.415 39.6128C47.5865 39.4388 47.7436 39.2501 47.8845 39.0485C48.0097 38.8749 48.1245 38.7013 48.2289 38.5277C48.6045 37.8425 48.9021 37.1142 49.1158 36.3574V36.1513C49.1158 35.9234 49.1889 35.7389 49.2097 35.5436C49.2306 35.3483 49.2097 35.1964 49.2097 35.0119C49.2097 34.8274 49.2097 34.5453 49.2097 34.3174L49.1471 34.0245C49.1471 33.8508 49.0428 33.6772 48.9802 33.5145C48.9042 33.2843 48.8063 33.0625 48.688 32.8525C48.6584 32.7862 48.6158 32.727 48.5628 32.6789C48.5089 32.6329 48.444 32.6029 48.375 32.5921L48.2602 32.5596Z" fill="#F8781F"/>
<path d="M42.636 44.1493C42.5768 44.1587 42.5209 44.1836 42.4735 44.2215C42.4261 44.2595 42.3886 44.3093 42.3647 44.3663C42.2747 44.5631 42.198 44.7661 42.1351 44.974C42.0774 45.1947 42.0355 45.4196 42.0099 45.6468C41.9896 46.0628 42.0463 46.4791 42.1768 46.8729C42.2393 47.0859 42.3269 47.29 42.4377 47.4806C42.5574 47.708 42.6934 47.9256 42.8447 48.1316C43.1614 48.5611 43.5103 48.9639 43.8881 49.3361C43.902 49.2608 43.902 49.1835 43.8881 49.1082V48.8804V48.6091C43.8881 48.2185 43.8881 47.817 43.9403 47.4263C43.9569 47.0974 43.9569 46.7678 43.9403 46.4389C43.9403 46.1893 43.8673 45.9397 43.8047 45.6902L43.7316 45.4406L43.5334 45.0608L43.4812 44.9523C43.3162 44.7015 43.1312 44.4655 42.9281 44.247C42.8886 44.199 42.8385 44.1618 42.7821 44.1385C42.724 44.1218 42.6627 44.1218 42.6047 44.1385" fill="#FAA032"/>
<path d="M52.9668 58.3095C51.8886 59.8399 51.0081 61.5107 50.3477 63.2793C50.1514 63.8105 49.9876 64.3542 49.8572 64.9069C49.7347 65.4395 49.6441 65.9795 49.5859 66.5237C49.5599 66.9791 49.5599 67.4356 49.5859 67.891C49.6064 68.2802 49.6482 68.6678 49.7111 69.052C49.7737 69.3884 49.8468 69.7248 49.9407 70.0503C50.0441 70.3951 50.1696 70.7322 50.3164 71.0595C50.4646 71.381 50.6318 71.6927 50.8172 71.9927C50.9842 72.2531 51.1616 72.5135 51.3494 72.7631L51.7981 73.284C52.8951 73.5131 54.0085 73.6474 55.1268 73.6854C55.6551 73.7137 56.1845 73.7137 56.7129 73.6854C57.0865 73.2859 57.435 72.8618 57.7564 72.4159C58.0569 71.9797 58.3288 71.5229 58.5703 71.0486C58.7608 70.5965 58.9246 70.1326 59.0607 69.6597C59.19 69.3043 59.3015 68.9421 59.3946 68.5746C59.4677 68.2165 59.5198 67.8584 59.5616 67.4895C59.5771 67.1931 59.5771 66.8961 59.5616 66.5997C59.5616 66.3393 59.5616 66.0897 59.4885 65.8293C59.4885 65.8293 59.4885 65.8293 59.4885 65.9052C59.4485 65.5995 59.3821 65.298 59.2903 65.0046C59.2068 64.7767 59.1337 64.5597 59.0398 64.3427C58.9306 64.1148 58.8087 63.8938 58.6746 63.6808C58.5587 63.4966 58.4333 63.3191 58.299 63.1491C58.1201 62.9104 57.921 62.6889 57.7042 62.4871C57.5123 62.3048 57.3102 62.1345 57.099 61.9771C56.6816 61.6733 56.2433 61.4129 55.8155 61.1308C55.4388 60.8978 55.0887 60.6212 54.772 60.3061C54.4092 59.9408 54.1124 59.5108 53.8955 59.0365C53.7779 58.7438 53.6803 58.4428 53.6033 58.1359L53.4781 57.6367C53.3111 57.8537 53.1442 58.0816 52.9877 58.3095H52.9668Z" fill="#FAA032"/>
<path d="M54.7924 67.8255C54.5114 67.896 54.2385 67.9978 53.9785 68.1293C53.6765 68.2953 53.393 68.4954 53.1333 68.7261C52.9155 68.9505 52.7166 69.1937 52.5385 69.4532V69.3989C52.4009 69.6157 52.2888 69.8489 52.2046 70.0934C52.154 70.2379 52.1156 70.3868 52.0898 70.5383C52.0898 70.6323 52.0898 70.7408 52.0898 70.8638C52.0742 71.0225 52.0742 71.1825 52.0898 71.3413C52.0898 71.4715 52.0898 71.58 52.142 71.7102C52.1941 71.8404 52.215 71.9923 52.2567 72.1334C52.2985 72.2744 52.3715 72.4155 52.4446 72.5566C52.5794 72.8031 52.7366 73.0357 52.9141 73.251V73.1968C53.0289 73.3161 53.1437 73.4464 53.2689 73.5549C53.7802 73.62 54.3124 73.6634 54.7507 73.6851C55.1054 73.1642 55.4707 72.6651 55.7941 72.1334C55.9666 71.8724 56.1234 71.6006 56.2637 71.3195C56.3785 71.07 56.4828 70.8313 56.5767 70.5708C56.6318 70.3781 56.6771 70.1825 56.7124 69.9849C56.7435 69.8237 56.7644 69.6606 56.775 69.4966C56.801 69.2695 56.801 69.04 56.775 68.813C56.7456 68.6669 56.7001 68.5249 56.6394 68.3898C56.5861 68.2961 56.5231 68.2087 56.4515 68.1293L56.2637 67.9557C56.1643 67.8977 56.0594 67.8504 55.9507 67.8147C55.8114 67.7703 55.668 67.7412 55.5228 67.7279C55.3804 67.717 55.2374 67.717 55.095 67.7279L54.8237 67.7821" fill="#FBB45E"/>
<defs>
<filter id="filter0_d_24_324" x="0" y="0" width="108" height="108" filterUnits="userSpaceOnUse" color-interpolation-filters="sRGB">
<feFlood flood-opacity="0" result="BackgroundImageFix"/>
<feColorMatrix in="SourceAlpha" type="matrix" values="0 0 0 0 0 0 0 0 0 0 0 0 0 0 0 0 0 0 127 0" result="hardAlpha"/>
<feOffset dy="6"/>
<feGaussianBlur stdDeviation="10"/>
<feComposite in2="hardAlpha" operator="out"/>
<feColorMatrix type="matrix" values="0 0 0 0 0.219608 0 0 0 0 0.247059 0 0 0 0 0.266667 0 0 0 0.1 0"/>
<feBlend mode="normal" in2="BackgroundImageFix" result="effect1_dropShadow_24_324"/>
<feBlend mode="normal" in="SourceGraphic" in2="effect1_dropShadow_24_324" result="shape"/>
</filter>
</defs>
</svg>
