<svg width="108" height="108" viewBox="0 0 108 108" fill="none" xmlns="http://www.w3.org/2000/svg">
<g filter="url(#filter0_d_24_325)">
<circle r="34" transform="matrix(-1 0 0 1 54 48)" fill="white"/>
</g>
<path d="M62.8606 49.9938C64.0318 45.1 61.0141 40.1832 56.1203 39.0119C51.2264 37.8406 46.3097 40.8584 45.1384 45.7522C43.9671 50.646 46.9848 55.5628 51.8787 56.7341C56.7725 57.9054 61.6893 54.8877 62.8606 49.9938Z" fill="#FAAF40"/>
<path d="M54.0008 36.2915C53.85 36.2919 53.7006 36.2626 53.5612 36.2051C53.4218 36.1477 53.2951 36.0634 53.1883 35.9569C53.0816 35.8504 52.9969 35.7239 52.9391 35.5847C52.8813 35.4454 52.8516 35.2961 52.8516 35.1454V30.1492C52.8516 29.8444 52.9726 29.5521 53.1882 29.3366C53.4037 29.1211 53.696 29 54.0008 29C54.3056 29 54.5979 29.1211 54.8134 29.3366C55.0289 29.5521 55.15 29.8444 55.15 30.1492V35.1454C55.15 35.2961 55.1202 35.4454 55.0624 35.5847C55.0046 35.7239 54.9199 35.8504 54.8132 35.9569C54.7064 36.0634 54.5797 36.1477 54.4403 36.2051C54.3009 36.2626 54.1515 36.2919 54.0008 36.2915Z" fill="#FAAF40"/>
<path d="M54.0008 66.9996C53.696 66.9996 53.4037 66.8786 53.1882 66.663C52.9726 66.4475 52.8516 66.1552 52.8516 65.8504V60.8543C52.8516 60.5495 52.9726 60.2572 53.1882 60.0417C53.4037 59.8262 53.696 59.7051 54.0008 59.7051C54.3056 59.7051 54.5979 59.8262 54.8134 60.0417C55.0289 60.2572 55.15 60.5495 55.15 60.8543V65.8504C55.15 66.1552 55.0289 66.4475 54.8134 66.663C54.5979 66.8786 54.3056 66.9996 54.0008 66.9996Z" fill="#FAAF40"/>
<path d="M71.8504 49.149H66.8543C66.5495 49.149 66.2572 49.0279 66.0417 48.8124C65.8262 48.5969 65.7051 48.3046 65.7051 47.9998C65.7051 47.695 65.8262 47.4027 66.0417 47.1872C66.2572 46.9717 66.5495 46.8506 66.8543 46.8506H71.8504C72.1552 46.8506 72.4475 46.9717 72.663 47.1872C72.8786 47.4027 72.9996 47.695 72.9996 47.9998C72.9996 48.3046 72.8786 48.5969 72.663 48.8124C72.4475 49.0279 72.1552 49.149 71.8504 49.149Z" fill="#FAAF40"/>
<path d="M36.1492 49.149H41.1454C41.4501 49.149 41.7424 49.0279 41.958 48.8124C42.1735 48.5969 42.2946 48.3046 42.2946 47.9998C42.2946 47.695 42.1735 47.4027 41.958 47.1872C41.7424 46.9717 41.4501 46.8506 41.1454 46.8506H36.1492C35.8444 46.8506 35.5521 46.9717 35.3366 47.1872C35.1211 47.4027 35 47.695 35 47.9998C35 48.3046 35.1211 48.5969 35.3366 48.8124C35.5521 49.0279 35.8444 49.149 36.1492 49.149Z" fill="#FAAF40"/>
<path d="M44.9101 40.0594C44.7593 40.0596 44.6099 40.0298 44.4707 39.9717C44.3315 39.9136 44.2053 39.8284 44.0993 39.721L40.5663 36.188C40.3513 35.973 40.2305 35.6813 40.2305 35.3772C40.2305 35.0731 40.3513 34.7814 40.5663 34.5663C40.7814 34.3513 41.0731 34.2305 41.3772 34.2305C41.6813 34.2305 41.973 34.3513 42.188 34.5663L45.721 38.0993C45.881 38.26 45.9899 38.4645 46.0339 38.6869C46.078 38.9094 46.0552 39.1399 45.9686 39.3495C45.8819 39.559 45.7351 39.7382 45.5468 39.8646C45.3584 39.9909 45.1369 40.0587 44.9101 40.0594Z" fill="#FAAF40"/>
<path d="M66.6229 61.7722C66.4721 61.7725 66.3227 61.7426 66.1835 61.6845C66.0443 61.6265 65.9181 61.5412 65.8121 61.4339L62.2791 57.9009C62.0641 57.6859 61.9433 57.3942 61.9433 57.0901C61.9433 56.7859 62.0641 56.4943 62.2791 56.2792C62.4942 56.0642 62.7859 55.9434 63.09 55.9434C63.3941 55.9434 63.6858 56.0642 63.9008 56.2792L67.4338 59.8122C67.5938 59.9729 67.7027 60.1774 67.7467 60.3998C67.7908 60.6223 67.768 60.8528 67.6813 61.0623C67.5947 61.2719 67.4479 61.4511 67.2596 61.5774C67.0712 61.7038 66.8497 61.7715 66.6229 61.7722Z" fill="#FAAF40"/>
<path d="M41.3762 61.7722C41.1494 61.7715 40.9279 61.7038 40.7395 61.5774C40.5512 61.4511 40.4044 61.2719 40.3177 61.0623C40.2311 60.8528 40.2083 60.6223 40.2524 60.3998C40.2964 60.1774 40.4053 59.9729 40.5653 59.8122L44.0983 56.2792C44.3133 56.0642 44.605 55.9434 44.9091 55.9434C45.2133 55.9434 45.5049 56.0642 45.72 56.2792C45.935 56.4943 46.0558 56.7859 46.0558 57.0901C46.0558 57.3942 45.935 57.6859 45.72 57.9009L42.187 61.4339C42.081 61.5412 41.9548 61.6265 41.8156 61.6845C41.6764 61.7426 41.527 61.7725 41.3762 61.7722Z" fill="#FAAF40"/>
<path d="M63.089 40.0594C62.8623 40.0587 62.6408 39.9909 62.4524 39.8646C62.2641 39.7382 62.1173 39.559 62.0306 39.3495C61.9439 39.1399 61.9212 38.9094 61.9652 38.6869C62.0093 38.4645 62.1182 38.26 62.2782 38.0993L65.8112 34.5663C65.9176 34.4599 66.0441 34.3754 66.1832 34.3178C66.3223 34.2601 66.4714 34.2305 66.622 34.2305C66.7726 34.2305 66.9217 34.2601 67.0608 34.3178C67.2 34.3754 67.3264 34.4599 67.4329 34.5663C67.5393 34.6728 67.6238 34.7992 67.6814 34.9384C67.7391 35.0775 67.7687 35.2266 67.7687 35.3772C67.7687 35.5278 67.7391 35.6769 67.6814 35.816C67.6238 35.9551 67.5393 36.0815 67.4329 36.188L63.8999 39.721C63.7939 39.8284 63.6677 39.9136 63.5285 39.9717C63.3893 40.0298 63.2399 40.0596 63.089 40.0594Z" fill="#FAAF40"/>
<defs>
<filter id="filter0_d_24_325" x="0" y="0" width="108" height="108" filterUnits="userSpaceOnUse" color-interpolation-filters="sRGB">
<feFlood flood-opacity="0" result="BackgroundImageFix"/>
<feColorMatrix in="SourceAlpha" type="matrix" values="0 0 0 0 0 0 0 0 0 0 0 0 0 0 0 0 0 0 127 0" result="hardAlpha"/>
<feOffset dy="6"/>
<feGaussianBlur stdDeviation="10"/>
<feComposite in2="hardAlpha" operator="out"/>
<feColorMatrix type="matrix" values="0 0 0 0 0.219608 0 0 0 0 0.247059 0 0 0 0 0.266667 0 0 0 0.1 0"/>
<feBlend mode="normal" in2="BackgroundImageFix" result="effect1_dropShadow_24_325"/>
<feBlend mode="normal" in="SourceGraphic" in2="effect1_dropShadow_24_325" result="shape"/>
</filter>
</defs>
</svg>
