<svg width="108" height="108" viewBox="0 0 108 108" fill="none" xmlns="http://www.w3.org/2000/svg">
<g filter="url(#filter0_d_24_326)">
<circle r="34" transform="matrix(-1 0 0 1 54 48)" fill="white"/>
</g>
<path d="M65.6177 38.9071C65.6177 38.8259 65.6177 38.7446 65.6177 38.6601C65.5664 35.5685 64.3024 32.6208 62.0983 30.4526C59.8942 28.2844 56.9264 27.0693 53.8349 27.0693C50.7434 27.0693 47.7756 28.2844 45.5715 30.4526C43.3674 32.6208 42.1034 35.5685 42.0521 38.6601C42.0521 38.6601 42.0521 38.6601 42.0521 38.6829C39.5514 38.8124 37.1998 39.912 35.4968 41.7482C33.7939 43.5843 32.8739 46.0122 32.9323 48.516C32.9907 51.0198 34.0229 53.4021 35.8096 55.1568C37.5963 56.9116 39.9966 57.9003 42.5006 57.9131H65.6145C66.877 57.9365 68.1315 57.7079 69.3047 57.2408C70.4779 56.7738 71.5463 56.0775 72.4474 55.1928C73.3485 54.308 74.0642 53.2525 74.5529 52.0879C75.0415 50.9234 75.2931 49.6731 75.2931 48.4101C75.2931 47.1472 75.0415 45.8969 74.5529 44.7323C74.0642 43.5677 73.3485 42.5122 72.4474 41.6275C71.5463 40.7427 70.4779 40.0465 69.3047 39.5794C68.1315 39.1123 66.877 38.8838 65.6145 38.9071H65.6177Z" fill="#42BFEC"/>
<path d="M40.1322 52.6372C39.9161 52.6363 39.7091 52.5501 39.5563 52.3973C39.4035 52.2445 39.3173 52.0374 39.3164 51.8213V46.3831C39.3415 46.1853 39.4378 46.0034 39.5874 45.8716C39.737 45.7397 39.9295 45.667 40.1289 45.667C40.3283 45.667 40.5208 45.7397 40.6704 45.8716C40.82 46.0034 40.9163 46.1853 40.9414 46.3831V51.8213C40.9406 52.0363 40.8552 52.2424 40.7038 52.395C40.5524 52.5476 40.3471 52.6346 40.1322 52.6372Z" fill="#ADE0F3"/>
<path d="M40.1322 68.2397C39.9161 68.2388 39.7091 68.1526 39.5563 67.9998C39.4035 67.8469 39.3173 67.6399 39.3164 67.4238V56.2679C39.3415 56.0701 39.4378 55.8882 39.5874 55.7563C39.737 55.6245 39.9295 55.5518 40.1289 55.5518C40.3283 55.5518 40.5208 55.6245 40.6704 55.7563C40.82 55.8882 40.9163 56.0701 40.9414 56.2679V67.4238C40.9406 67.6388 40.8552 67.8449 40.7038 67.9975C40.5524 68.1501 40.3471 68.2371 40.1322 68.2397Z" fill="#ADE0F3"/>
<path d="M47.0677 49.5493C46.9603 49.5493 46.854 49.5281 46.7548 49.4869C46.6556 49.4457 46.5655 49.3853 46.4897 49.3092C46.4139 49.2331 46.3539 49.1427 46.3131 49.0434C46.2723 48.944 46.2515 48.8376 46.252 48.7302V40.8086C46.2701 40.6056 46.3636 40.4168 46.514 40.2792C46.6643 40.1417 46.8607 40.0654 47.0645 40.0654C47.2682 40.0654 47.4646 40.1417 47.615 40.2792C47.7653 40.4168 47.8588 40.6056 47.8769 40.8086V48.7302C47.8778 48.946 47.7931 49.1534 47.6415 49.3069C47.4898 49.4604 47.2835 49.5476 47.0677 49.5493Z" fill="#ADE0F3"/>
<path d="M47.0677 58.6509C46.9603 58.6509 46.854 58.6297 46.7548 58.5885C46.6556 58.5473 46.5655 58.4869 46.4897 58.4108C46.4139 58.3347 46.3539 58.2443 46.3131 58.145C46.2723 58.0456 46.2515 57.9392 46.252 57.8318V52.6699C46.2701 52.4669 46.3636 52.2781 46.514 52.1406C46.6643 52.003 46.8607 51.9268 47.0645 51.9268C47.2682 51.9268 47.4646 52.003 47.615 52.1406C47.7653 52.2781 47.8588 52.4669 47.8769 52.6699V57.8318C47.8778 58.0476 47.7931 58.255 47.6415 58.4085C47.4898 58.562 47.2835 58.6492 47.0677 58.6509Z" fill="#ADE0F3"/>
<path d="M47.0677 68.2399C46.8514 68.2399 46.6439 68.154 46.4909 68.001C46.3379 67.848 46.252 67.6404 46.252 67.4241V63.2861C46.2701 63.0831 46.3636 62.8943 46.5139 62.7568C46.6643 62.6192 46.8607 62.543 47.0644 62.543C47.2682 62.543 47.4646 62.6192 47.6149 62.7568C47.7653 62.8943 47.8588 63.0831 47.8769 63.2861V67.4143C47.8782 67.5217 47.8583 67.6283 47.8183 67.728C47.7783 67.8277 47.719 67.9185 47.6438 67.9952C47.5686 68.0719 47.479 68.133 47.3801 68.175C47.2813 68.217 47.1751 68.2391 47.0677 68.2399Z" fill="#ADE0F3"/>
<path d="M54.0052 68.2397C53.7891 68.2388 53.5821 68.1526 53.4293 67.9998C53.2765 67.8469 53.1903 67.6399 53.1895 67.4238V56.2679C53.2145 56.0701 53.3109 55.8882 53.4605 55.7563C53.61 55.6245 53.8026 55.5518 54.0019 55.5518C54.2013 55.5518 54.3939 55.6245 54.5434 55.7563C54.693 55.8882 54.7894 56.0701 54.8144 56.2679V67.4238C54.8136 67.6388 54.7283 67.8449 54.5769 67.9975C54.4255 68.1501 54.2202 68.2371 54.0052 68.2397Z" fill="#ADE0F3"/>
<path d="M60.9342 68.2399C60.7179 68.2399 60.5104 68.154 60.3574 68.001C60.2044 67.848 60.1185 67.6404 60.1185 67.4241V63.2861C60.1084 63.1733 60.1219 63.0596 60.1581 62.9523C60.1944 62.8449 60.2526 62.7463 60.329 62.6628C60.4054 62.5792 60.4984 62.5124 60.6021 62.4667C60.7057 62.421 60.8177 62.3975 60.931 62.3975C61.0442 62.3975 61.1563 62.421 61.2599 62.4667C61.3635 62.5124 61.4565 62.5792 61.533 62.6628C61.6094 62.7463 61.6676 62.8449 61.7038 62.9523C61.7401 63.0596 61.7536 63.1733 61.7435 63.2861V67.4143C61.7448 67.5217 61.7248 67.6283 61.6848 67.728C61.6448 67.8277 61.5855 67.9185 61.5103 67.9952C61.4351 68.072 61.3455 68.1331 61.2467 68.1751C61.1478 68.217 61.0416 68.2391 60.9342 68.2399Z" fill="#ADE0F3"/>
<path d="M67.8698 68.2402C67.6531 68.2402 67.4453 68.1543 67.2918 68.0014C67.1383 67.8485 67.0516 67.641 67.0508 67.4243V58.8851C67.0759 58.6873 67.1722 58.5054 67.3218 58.3735C67.4714 58.2417 67.6639 58.1689 67.8633 58.1689C68.0627 58.1689 68.2552 58.2417 68.4048 58.3735C68.5543 58.5054 68.6507 58.6873 68.6758 58.8851V67.4243C68.6749 67.6387 68.5901 67.8443 68.4394 67.9969C68.2887 68.1494 68.0842 68.2368 67.8698 68.2402Z" fill="#ADE0F3"/>
<path d="M67.8698 54.185C67.7624 54.1855 67.656 54.1647 67.5566 54.1239C67.4573 54.083 67.3669 54.023 67.2909 53.9472C67.2148 53.8714 67.1544 53.7813 67.1132 53.6821C67.072 53.5829 67.0508 53.4766 67.0508 53.3691V49.5042C67.0759 49.3064 67.1722 49.1245 67.3218 48.9927C67.4714 48.8608 67.6639 48.7881 67.8633 48.7881C68.0627 48.7881 68.2552 48.8608 68.4048 48.9927C68.5543 49.1245 68.6507 49.3064 68.6758 49.5042V53.3724C68.6749 53.5865 68.59 53.7918 68.4392 53.9438C68.2884 54.0958 68.0839 54.1825 67.8698 54.185Z" fill="#ADE0F3"/>
<path d="M60.9349 60.7116C60.7185 60.7116 60.511 60.6257 60.3581 60.4727C60.2051 60.3197 60.1191 60.1121 60.1191 59.8958V43.2822C60.1373 43.0792 60.2308 42.8904 60.3811 42.7529C60.5315 42.6153 60.7279 42.5391 60.9316 42.5391C61.1354 42.5391 61.3318 42.6153 61.4821 42.7529C61.6325 42.8904 61.726 43.0792 61.7441 43.2822V59.8958C61.7441 60.111 61.6591 60.3176 61.5075 60.4704C61.3559 60.6232 61.1501 60.7099 60.9349 60.7116Z" fill="#ADE0F3"/>
<path d="M54.0052 52.3678C53.7891 52.3669 53.5821 52.2807 53.4293 52.1279C53.2765 51.975 53.1903 51.768 53.1895 51.5519V46.6566C53.2145 46.4587 53.3109 46.2769 53.4605 46.145C53.61 46.0132 53.8026 45.9404 54.0019 45.9404C54.2013 45.9404 54.3939 46.0132 54.5434 46.145C54.693 46.2769 54.7894 46.4587 54.8144 46.6566V51.5519C54.8136 51.7669 54.7283 51.973 54.5769 52.1256C54.4255 52.2782 54.2202 52.3652 54.0052 52.3678Z" fill="#ADE0F3"/>
<defs>
<filter id="filter0_d_24_326" x="0" y="0" width="108" height="108" filterUnits="userSpaceOnUse" color-interpolation-filters="sRGB">
<feFlood flood-opacity="0" result="BackgroundImageFix"/>
<feColorMatrix in="SourceAlpha" type="matrix" values="0 0 0 0 0 0 0 0 0 0 0 0 0 0 0 0 0 0 127 0" result="hardAlpha"/>
<feOffset dy="6"/>
<feGaussianBlur stdDeviation="10"/>
<feComposite in2="hardAlpha" operator="out"/>
<feColorMatrix type="matrix" values="0 0 0 0 0.219608 0 0 0 0 0.247059 0 0 0 0 0.266667 0 0 0 0.1 0"/>
<feBlend mode="normal" in2="BackgroundImageFix" result="effect1_dropShadow_24_326"/>
<feBlend mode="normal" in="SourceGraphic" in2="effect1_dropShadow_24_326" result="shape"/>
</filter>
</defs>
</svg>
