<svg width="108" height="108" viewBox="0 0 108 108" fill="none" xmlns="http://www.w3.org/2000/svg">
<g filter="url(#filter0_d_24_328)">
<circle r="34" transform="matrix(-1 0 0 1 54 48)" fill="white"/>
</g>
<path d="M54.7968 41.866C54.7968 41.8061 54.7968 41.7462 54.7968 41.6839C54.7595 39.4048 53.8407 37.232 52.2385 35.6336C50.6363 34.0353 48.479 33.1396 46.2316 33.1396C43.9843 33.1396 41.827 34.0353 40.2248 35.6336C38.6226 37.232 37.7038 39.4048 37.6664 41.6839C37.6664 41.6839 37.6664 41.6839 37.6664 41.7006C35.8486 41.7961 34.1392 42.6067 32.9013 43.9603C31.6634 45.3138 30.9946 47.1035 31.0371 48.9492C31.0795 50.7949 31.8298 52.551 33.1286 53.8446C34.4274 55.1381 36.1723 55.8669 37.9925 55.8764H54.7945C55.7122 55.8936 56.6242 55.7251 57.477 55.3808C58.3298 55.0365 59.1064 54.5232 59.7615 53.871C60.4165 53.2188 60.9368 52.4408 61.292 51.5823C61.6472 50.7238 61.8301 49.8022 61.8301 48.8712C61.8301 47.9402 61.6472 47.0185 61.292 46.16C60.9368 45.3016 60.4165 44.5235 59.7615 43.8713C59.1064 43.2191 58.3298 42.7059 57.477 42.3615C56.6242 42.0172 55.7122 41.8488 54.7945 41.866H54.7968Z" fill="#42BFEC"/>
<path d="M72.834 48.5755H59.0016C58.6868 48.5755 58.3848 48.4486 58.1622 48.2228C57.9395 47.997 57.8145 47.6907 57.8145 47.3714C57.8145 47.0521 57.9395 46.7458 58.1622 46.52C58.3848 46.2942 58.6868 46.1673 59.0016 46.1673H72.834C73.3095 46.1673 73.7656 45.9757 74.1019 45.6347C74.4382 45.2936 74.6271 44.831 74.6271 44.3486C74.6271 43.8663 74.4382 43.4037 74.1019 43.0626C73.7656 42.7216 73.3095 42.53 72.834 42.53H71.0763C70.763 42.53 70.4625 42.4037 70.241 42.179C70.0195 41.9544 69.895 41.6496 69.895 41.3319C69.895 41.0141 70.0195 40.7094 70.241 40.4847C70.4625 40.26 70.763 40.1338 71.0763 40.1338H72.834C73.9392 40.1338 74.9992 40.5791 75.7808 41.3718C76.5623 42.1645 77.0014 43.2396 77.0014 44.3606C77.0014 45.4817 76.5623 46.5568 75.7808 47.3494C74.9992 48.1421 73.9392 48.5875 72.834 48.5875V48.5755Z" fill="#ADE0F3"/>
<path d="M68.3263 63.0004C66.9177 62.9985 65.5674 62.4301 64.5713 61.4199C63.5753 60.4097 63.0149 59.0401 63.0131 57.6114C63.0372 56.6506 63.4305 55.7374 64.1091 55.0665C64.7876 54.3956 65.6978 54.0201 66.6454 54.0201C67.593 54.0201 68.5031 54.3956 69.1817 55.0665C69.8603 55.7374 70.2536 56.6506 70.2777 57.6114V58.232C70.2777 58.5498 70.1533 58.8545 69.9317 59.0792C69.7102 59.3039 69.4098 59.4301 69.0965 59.4301C68.7832 59.4301 68.4827 59.3039 68.2612 59.0792C68.0397 58.8545 67.9152 58.5498 67.9152 58.232V57.6114C67.9152 57.2727 67.7826 56.9479 67.5464 56.7083C67.3103 56.4688 66.99 56.3343 66.656 56.3343C66.3221 56.3343 66.0018 56.4688 65.7656 56.7083C65.5295 56.9479 65.3968 57.2727 65.3968 57.6114C65.3857 58.0101 65.4535 58.4071 65.5962 58.7788C65.739 59.1504 65.9537 59.4893 66.2279 59.7753C66.502 60.0613 66.8299 60.2887 67.1921 60.444C67.5544 60.5992 67.9437 60.6792 68.3369 60.6792C68.7302 60.6792 69.1195 60.5992 69.4817 60.444C69.844 60.2887 70.1719 60.0613 70.446 59.7753C70.7201 59.4893 70.9349 59.1504 71.0776 58.7788C71.2204 58.4071 71.2882 58.0101 71.2771 57.6114V56.3798C71.2771 55.2994 70.8539 54.2633 70.1007 53.4994C69.3475 52.7355 68.326 52.3063 67.2608 52.3063H48.609C48.2957 52.3063 47.9952 52.1801 47.7737 51.9554C47.5522 51.7307 47.4277 51.426 47.4277 51.1082C47.4277 50.7905 47.5522 50.4858 47.7737 50.2611C47.9952 50.0364 48.2957 49.9102 48.609 49.9102H67.2466C68.9389 49.9152 70.5602 50.6001 71.7557 51.8149C72.9512 53.0297 73.6235 54.6754 73.6254 56.3918V57.6234C73.6204 59.0475 73.0606 60.4119 72.0679 61.4191C71.0753 62.4263 69.7304 62.9947 68.3263 63.0004Z" fill="#ADE0F3"/>
<defs>
<filter id="filter0_d_24_328" x="0" y="0" width="108" height="108" filterUnits="userSpaceOnUse" color-interpolation-filters="sRGB">
<feFlood flood-opacity="0" result="BackgroundImageFix"/>
<feColorMatrix in="SourceAlpha" type="matrix" values="0 0 0 0 0 0 0 0 0 0 0 0 0 0 0 0 0 0 127 0" result="hardAlpha"/>
<feOffset dy="6"/>
<feGaussianBlur stdDeviation="10"/>
<feComposite in2="hardAlpha" operator="out"/>
<feColorMatrix type="matrix" values="0 0 0 0 0.219608 0 0 0 0 0.247059 0 0 0 0 0.266667 0 0 0 0.1 0"/>
<feBlend mode="normal" in2="BackgroundImageFix" result="effect1_dropShadow_24_328"/>
<feBlend mode="normal" in="SourceGraphic" in2="effect1_dropShadow_24_328" result="shape"/>
</filter>
</defs>
</svg>
