<?xml version="1.0" encoding="utf-8"?><svg viewBox="0 0 257 50" xmlns="http://www.w3.org/2000/svg" xmlns:xlink="http://www.w3.org/1999/xlink"><style>:root>svg{display:none}:root>svg:target{display:block}</style><svg fill="none" viewBox="0 0 26 26" id="badge" xmlns="http://www.w3.org/2000/svg"><path fill-rule="evenodd" clip-rule="evenodd" d="M10.924 3.027a3.038 3.038 0 014.152 0c.538.503 1.24.794 1.976.818a3.038 3.038 0 012.936 2.936c.024.736.315 1.438.819 1.976a3.038 3.038 0 010 4.153 3.038 3.038 0 00-.819 1.975 3.039 3.039 0 01-2.936 2.937 3.038 3.038 0 00-1.976.818 3.038 3.038 0 01-4.152 0 3.038 3.038 0 00-1.976-.818 3.039 3.039 0 01-2.936-2.937 3.038 3.038 0 00-.819-1.975 3.038 3.038 0 010-4.153c.503-.538.794-1.24.819-1.976a3.038 3.038 0 012.936-2.936 3.039 3.039 0 001.976-.818zM9.002 5.469a4.663 4.663 0 003.032-1.256 1.413 1.413 0 011.932 0 4.663 4.663 0 003.032 1.256 1.414 1.414 0 011.366 1.366 4.663 4.663 0 001.256 3.032 1.413 1.413 0 010 1.932 4.663 4.663 0 00-1.256 3.033 1.413 1.413 0 01-1.366 1.366 4.664 4.664 0 00-3.032 1.256 1.413 1.413 0 01-1.932 0 4.664 4.664 0 00-3.032-1.256 1.413 1.413 0 01-1.366-1.366 4.663 4.663 0 00-1.256-3.033 1.413 1.413 0 010-1.932 4.663 4.663 0 001.256-3.032 1.413 1.413 0 011.366-1.366z" fill="#926539"/><path d="M7.583 22.919v-5.472c.407.225.87.358 1.365.375.087.003.174.01.26.02v4.349l3.325-.997c.304-.092.63-.092.934 0l3.324.997v-4.35c.087-.01.174-.017.26-.02.495-.016.959-.15 1.365-.374v5.472c0 .726-.7 1.246-1.394 1.038L13 22.75l-4.022 1.207a1.083 1.083 0 01-1.395-1.038z" fill="#926539"/><path fill-rule="evenodd" clip-rule="evenodd" d="M13 12.459a1.625 1.625 0 100-3.25 1.625 1.625 0 000 3.25zm0 1.625a3.25 3.25 0 100-6.5 3.25 3.25 0 000 6.5z" fill="#926539"/></svg><svg fill="none" viewBox="0 0 22 22" id="checkmark" xmlns="http://www.w3.org/2000/svg"><path d="M3.667 11l5.041 5.042 9.625-9.625" stroke="#fff" stroke-width="3" stroke-linecap="round" stroke-linejoin="round"/></svg><svg fill="none" viewBox="0 0 18 18" id="close" xmlns="http://www.w3.org/2000/svg"><path d="M4.898 4.102a.562.562 0 10-.796.796L8.205 9l-4.103 4.102a.563.563 0 00.796.796L9 9.796l4.102 4.102a.563.563 0 00.796-.796L9.796 9l4.102-4.102a.562.562 0 10-.796-.796L9 8.205 4.898 4.102z" fill="#fff" fill-opacity=".3"/></svg><svg fill="none" viewBox="0 0 165 32" id="f-logo" xmlns="http://www.w3.org/2000/svg"><path d="M57.64 6.758V25.24h-3.559l-9.34-11.222V25.24H40.46V6.758h3.586l9.312 11.222V6.758h4.283zM76.574 21.808v3.433H62.072V6.758H76.23v3.432h-9.85v4.014h8.697v3.327h-8.697v4.277h10.195zM89.045 25.558c-1.945 0-3.702-.413-5.272-1.241a9.44 9.44 0 01-3.667-3.406c-.874-1.46-1.311-3.098-1.311-4.912 0-1.813.437-3.442 1.311-4.885a9.38 9.38 0 013.667-3.432c1.57-.828 3.327-1.242 5.272-1.242 1.944 0 3.693.414 5.244 1.242a9.371 9.371 0 013.666 3.432c.893 1.444 1.34 3.072 1.339 4.885 0 1.813-.447 3.45-1.338 4.912-.892 1.443-2.114 2.579-3.667 3.406-1.552.827-3.3 1.24-5.244 1.241zm0-3.644c1.106 0 2.105-.246 2.997-.739a5.44 5.44 0 002.087-2.112c.518-.899.776-1.92.776-3.064 0-1.143-.26-2.164-.776-3.063a5.255 5.255 0 00-2.087-2.087c-.893-.51-1.892-.766-2.997-.766-1.106 0-2.105.256-2.998.766a5.432 5.432 0 00-2.114 2.086c-.501.898-.751 1.92-.751 3.063 0 1.144.25 2.165.751 3.063a5.625 5.625 0 002.114 2.113c.892.493 1.892.74 2.998.74zM109.376 17.98l-2.515 2.588v4.673h-4.306V6.758h4.308v8.634l8.296-8.634h4.817l-7.761 8.236 8.215 10.245h-5.057l-5.997-7.26zM139.541 6.758V25.24h-3.56l-9.339-11.222V25.24h-4.283V6.758h3.586l9.313 11.222V6.758h4.283zM156.308 21.28h-8.697l-1.659 3.96h-4.442l8.349-18.482h4.282l8.373 18.483h-4.549l-1.657-3.96zm-1.364-3.248l-2.971-7.076-2.97 7.076h5.941z" fill="#fff"/><path d="M25.079 21.642c-.039.065-.075.128-.117.192v.005c-.202.325-.422.64-.656.942l-.006.007c-.043.055-.085.11-.13.163l-.022.028a3.575 3.575 0 01-.127.15l-.026.03c-.043.051-.086.102-.13.15l-.02.022c-.195.22-.399.433-.61.637l-.019.018-.136.127-.044.042-.13.117-.054.048-.128.11-.056.048c-.044.037-.088.075-.132.11l-.049.04c-.155.123-.313.245-.475.36l-.043.032-.13.092-.075.051-.124.083-.085.056a2.27 2.27 0 01-.121.075l-.091.057-.12.074-.096.056-.12.07-.1.056c-.062.034-.125.069-.189.102l-.138.075-.11.055-.116.057-.113.054-.117.054-.113.051-.12.053-.113.047-.126.051-.11.044-.138.052-.099.038-.205.075-.086.028a7.76 7.76 0 01-.188.06c-.031.011-.064.02-.096.03l-.15.045-.104.029-.146.04-.107.027-.15.036-.105.024a5.868 5.868 0 01-.157.034l-.098.021-.188.036-.068.013-.257.042-.071.01-.19.026-.098.012-.166.019-.105.01-.162.015-.106.008-.166.01-.102.006c-.06 0-.121.005-.182.007h-.358a11.137 11.137 0 01-7.87-3.25 11.934 11.934 0 01-.547-.584 11.024 11.024 0 01-2.71-7.559v-.075c0-.075.004-.15.009-.225a13.927 13.927 0 01.02-.298c0-.02 0-.038.004-.058l.024-.24.004-.043v-.01h-1.67v13.935H28.23v-8.74H25.9a10.978 10.978 0 01-.814 1.693l-.007.01zM15.493 4.907c1.567 0 3.116.33 4.547.968 1.43.638 2.709 1.57 3.753 2.735a11.06 11.06 0 012.762 8.635h1.673V3.308H2.756v8.75h2.33a11.104 11.104 0 014.086-5.19 11.163 11.163 0 016.32-1.962z" fill="#C2CACC"/><path d="M19.299 26.424l.099-.037-.1.037zM18.727 26.616l.096-.03-.096.03zM19.01 26.527l.086-.029-.086.029zM20.006 26.142l.113-.051-.113.05zM19.775 26.242l.112-.048-.112.048zM19.54 26.336l.109-.043-.11.043zM17.965 26.818l.105-.025-.105.025zM17.71 26.873l.099-.02-.098.02zM18.219 26.757l.106-.027-.106.027zM17.455 26.92l.069-.012-.069.013zM18.473 26.691l.104-.029-.104.03zM21.834 25.117l.13-.092-.13.092zM22.004 24.994zM21.635 25.252l.124-.083-.124.083zM22.53 24.593c.044-.036.087-.075.13-.11a3.27 3.27 0 01-.13.11zM22.72 24.436l.13-.11-.13.11zM20.715 25.798zM20.465 25.927l.11-.056-.11.056zM21.219 25.514l.12-.075-.12.075zM20.238 26.037l.113-.054-.113.054zM21.43 25.384l.12-.074-.12.074zM4.376 15.405zM6.734 22.849zM4.364 15.703zM7.25 23.458zM17.069 17.244h9.484a11.065 11.065 0 00-1.94-7.604 11.134 11.134 0 00-6.501-4.425 11.168 11.168 0 00-7.813.968 11.107 11.107 0 00-5.217 5.876h11.987v5.185zM17.127 26.973l.07-.01-.07.01zM7.621 23.844c.126.125.255.248.386.367-.128-.12-.26-.241-.386-.367zM4.422 14.81zM4.396 15.106c-.006.075-.01.15-.015.229.004-.077.009-.153.015-.229zM16.3 27.064l.107-.008-.106.008zM16.566 27.04l.106-.01-.106.01zM16.838 27.012l.098-.012-.098.012zM16.031 27.08l.103-.006-.103.006zM9.047 25.046zM9.719 25.486zM8.207 24.388zM11.158 26.22zM21.002 25.64l.12-.07-.12.07zM23.841 23.336zM24.018 23.13c.043-.051.085-.102.127-.15-.042.05-.084.102-.127.15zM23.86 23.315zM25.901 19.94zM24.96 21.833c.04-.063.076-.127.117-.191l-.116.191zM24.303 22.78zM24.166 22.952l.13-.164-.13.164zM22.906 24.277l.13-.117-.13.117zM23.076 24.119z" fill="#29C555"/><path d="M4.381 15.335c0 .023 0 .046-.004.07 0-.024.003-.047.004-.07zM4.402 15.05c0 .02-.004.038-.006.057l.006-.057zM18.07 26.793l.151-.036-.15.036zM18.322 26.731l.146-.04-.146.04zM18.574 26.661zM19.096 26.499l.205-.075-.205.075zM4.43 14.767l-.004.043.004-.043zM18.822 26.587zM25.078 21.642l.006-.011-.006.011zM15.85 27.086c.06 0 .121 0 .181-.007l-.181.007zM4.367 15.63v.075a.497.497 0 010-.075zM16.67 27.03l.166-.018-.166.018zM15.492 27.093h.27-.27zM16.135 27.074l.166-.01-.166.01zM16.406 27.055l.162-.014-.162.014zM16.936 27l.19-.026-.19.026zM17.523 26.909c.063-.012.126-.023.188-.036l-.188.036zM17.809 26.851zM22.848 24.328l.054-.049-.054.049zM17.197 26.963a9.95 9.95 0 00.257-.042c-.084.015-.17.027-.257.042zM21.555 25.307l.085-.056-.085.056zM21.123 25.57l.095-.055-.095.055zM23.21 23.99l.018-.016-.017.017zM21.338 25.44l.09-.056-.09.057zM23.84 23.336l.02-.021-.02.02zM21.76 25.168l.075-.052-.075.052zM22.482 24.633l.05-.04-.05.04zM22.662 24.484l.057-.048-.057.048zM21.965 25.026l.043-.032-.043.032zM23.033 24.161l.045-.042-.045.042zM20.904 25.695l.1-.055-.1.055zM20.576 25.87l.138-.074-.138.075zM24.297 22.788l.005-.007-.005.007zM20.354 25.984l.115-.057-.116.057zM19.885 26.194l.12-.052-.12.052zM20.12 26.091l.116-.054-.117.054zM19.4 26.39l.139-.053-.139.052zM19.648 26.293l.127-.05-.127.05zM24.145 22.979l.02-.027-.02.027zM23.992 23.163l.026-.03-.026.03z" fill="#926539"/><path d="M13.914 14.755H4.429v.011l-.004.043c-.01.08-.017.16-.023.24 0 .02-.004.038-.006.058a9.98 9.98 0 00-.015.228c0 .023 0 .047-.004.07-.005.075-.007.15-.01.225v.074c-.002.1-.004.2-.004.3a11.024 11.024 0 003.261 7.844 11.053 11.053 0 001.427 1.203c.219.154.443.3.672.44a11.476 11.476 0 001.945.933c1.226.447 2.522.675 3.828.674h.358c.06 0 .12 0 .18-.007l.104-.006.165-.01.107-.009.161-.014.105-.01.167-.019.097-.012.19-.026.07-.01c.087-.013.172-.028.258-.043l.068-.012.188-.036.098-.021a5.86 5.86 0 00.157-.034l.105-.025.15-.036.107-.027.146-.04.104-.029.15-.044.097-.03.188-.06.085-.029.205-.075.1-.037.138-.052.11-.044.126-.05.112-.049.12-.052.113-.051.117-.054.113-.054.116-.057.11-.055.139-.075.188-.103.1-.055.12-.07.096-.056.12-.075.091-.057.121-.075.085-.055.124-.083.075-.052.13-.091.043-.032c.162-.116.32-.237.475-.361l.05-.04c.044-.036.087-.075.13-.11l.057-.046.129-.111.054-.048.129-.117.044-.042a7.71 7.71 0 00.136-.127l.018-.018c.212-.204.417-.417.611-.637l.02-.022c.044-.05.088-.1.13-.15l.027-.03c.043-.051.085-.102.127-.15l.022-.028.13-.163.005-.007c.235-.303.454-.617.657-.943v-.004c.039-.064.075-.127.116-.192l.006-.011c.32-.54.593-1.106.817-1.692h-11.99v-5.196z" fill="#926539"/><path d="M28.98 17.244V2.56H2.003v9.5H0v.748h16.319v5.185h14.665v-.749h-2.005zm-.752 0H17.07v-5.185H2.757V3.31h25.472l-.001 13.935z" fill="#fff"/><path d="M28.603 19.191H14.666v-5.184H0v.749h2.005V29.44h26.976v-9.5h2.003v-.749h-2.38zm-.375 9.5H2.755V14.756h11.16v5.184h14.313v8.751z" fill="#fff"/></svg><svg viewBox="0 0 24 24" id="fb" xmlns="http://www.w3.org/2000/svg"><path d="M24 12c0-6.627-5.373-12-12-12S0 5.373 0 12c0 5.99 4.388 10.954 10.125 11.854V15.47H7.078V12h3.047V9.356c0-3.007 1.792-4.668 4.533-4.668 1.312 0 2.686.234 2.686.234v2.953H15.83c-1.491 0-1.956.925-1.956 1.875V12h3.328l-.532 3.469h-2.796v8.385C19.612 22.954 24 17.99 24 12z"/></svg><svg fill="none" viewBox="0 0 19 19" id="ic_info" xmlns="http://www.w3.org/2000/svg"><path d="M8.708 13.459h1.583v-4.75H8.708v4.75zM9.5 1.584A7.914 7.914 0 001.583 9.5 7.914 7.914 0 009.5 17.417 7.914 7.914 0 0017.416 9.5 7.914 7.914 0 009.5 1.583zm0 14.25A6.342 6.342 0 013.166 9.5 6.342 6.342 0 019.5 3.167 6.342 6.342 0 0115.833 9.5 6.342 6.342 0 019.5 15.834zm-.792-8.709h1.583V5.542H8.708v1.583z" fill="#926539"/></svg><svg viewBox="0 0 24 24" id="inst" xmlns="http://www.w3.org/2000/svg"><path d="M12 2.16c3.206 0 3.586.015 4.847.071 1.172.052 1.805.249 2.226.413a3.71 3.71 0 011.379.895c.421.422.68.82.895 1.378.164.422.36 1.06.412 2.227.057 1.265.07 1.645.07 4.847 0 3.206-.013 3.586-.07 4.846-.051 1.172-.248 1.805-.412 2.227-.216.558-.478.961-.895 1.378a3.69 3.69 0 01-1.379.895c-.421.165-1.059.361-2.226.413-1.266.056-1.645.07-4.847.07-3.206 0-3.586-.014-4.847-.07-1.172-.052-1.805-.248-2.226-.413a3.71 3.71 0 01-1.379-.895 3.691 3.691 0 01-.895-1.378c-.164-.422-.36-1.06-.412-2.227-.057-1.265-.07-1.645-.07-4.846 0-3.207.013-3.586.07-4.847.051-1.172.248-1.805.412-2.227.216-.558.478-.96.895-1.378.422-.422.82-.68 1.379-.895.421-.164 1.059-.361 2.226-.413 1.261-.056 1.64-.07 4.847-.07zM12 0C8.742 0 8.334.014 7.055.07 5.78.127 4.903.333 4.144.628a5.857 5.857 0 00-2.128 1.388A5.88 5.88 0 00.628 4.139C.333 4.903.127 5.775.07 7.05.014 8.334 0 8.742 0 12s.014 3.666.07 4.945c.057 1.275.263 2.152.558 2.911.31.792.717 1.463 1.388 2.128a5.866 5.866 0 002.123 1.383c.764.296 1.636.502 2.911.558 1.28.056 1.688.07 4.945.07 3.258 0 3.666-.014 4.946-.07 1.275-.056 2.151-.262 2.91-.558a5.866 5.866 0 002.124-1.383 5.866 5.866 0 001.383-2.123c.295-.764.501-1.636.558-2.911.056-1.28.07-1.688.07-4.945 0-3.258-.014-3.666-.07-4.946-.057-1.275-.263-2.151-.558-2.91a5.62 5.62 0 00-1.374-2.133A5.866 5.866 0 0019.861.633C19.097.338 18.225.13 16.95.075 15.666.015 15.258 0 12 0z"/><path d="M12 5.836A6.166 6.166 0 005.836 12 6.166 6.166 0 0012 18.164 6.166 6.166 0 0018.164 12 6.166 6.166 0 0012 5.836zm0 10.162A3.999 3.999 0 1112.001 8 3.999 3.999 0 0112 15.998zM19.847 5.592a1.44 1.44 0 11-2.879 0 1.44 1.44 0 012.879 0z"/></svg><svg fill="none" viewBox="0 0 257 50" id="logo" xmlns="http://www.w3.org/2000/svg"><path d="M89.779 10.56v28.88h-5.544L69.689 21.905V39.44h-6.671V10.56h5.585l14.505 17.535V10.56h6.67zM119.271 34.077v5.363H96.684V10.56h22.049v5.363h-15.342v6.271h13.547v5.198h-13.547v6.685h15.88zM138.695 39.936c-3.029 0-5.766-.647-8.211-1.94a14.723 14.723 0 01-5.711-5.322c-1.362-2.282-2.043-4.84-2.043-7.674 0-2.834.681-5.378 2.043-7.633a14.624 14.624 0 015.711-5.363c2.445-1.293 5.182-1.94 8.211-1.94s5.752.647 8.169 1.94a14.62 14.62 0 015.711 5.363c1.39 2.256 2.085 4.8 2.084 7.633-.001 2.833-.696 5.39-2.084 7.674-1.389 2.255-3.293 4.03-5.711 5.322-2.418 1.292-5.141 1.939-8.169 1.94zm0-5.694c1.723 0 3.279-.385 4.669-1.155a8.489 8.489 0 003.25-3.3c.807-1.405 1.21-3 1.209-4.787-.001-1.787-.404-3.383-1.209-4.787a8.205 8.205 0 00-3.25-3.26c-1.391-.798-2.947-1.197-4.669-1.197-1.722 0-3.278.399-4.668 1.197a8.472 8.472 0 00-3.294 3.258c-.78 1.404-1.17 3-1.17 4.787s.39 3.382 1.17 4.786a8.773 8.773 0 003.294 3.3c1.389.772 2.946 1.157 4.668 1.157zM170.361 28.095l-3.917 4.043v7.302h-6.708V10.56h6.711v13.491l12.921-13.49h7.503L174.784 23.43l12.795 16.007h-7.878l-9.34-11.342zM217.345 10.56v28.88h-5.544l-14.546-17.535V39.44h-6.671V10.56h5.585l14.505 17.535V10.56h6.671zM243.462 33.252h-13.547l-2.584 6.188h-6.919l13.004-28.88h6.671l13.041 28.88h-7.085l-2.581-6.188zm-2.125-5.076l-4.628-11.056-4.626 11.056h9.254z" fill="#383F44"/><path d="M39.062 33.817c-.06.1-.117.2-.182.3v.006c-.316.508-.657 1-1.023 1.473l-.008.01c-.067.086-.133.172-.202.256l-.034.043a5.84 5.84 0 01-.198.234l-.041.048c-.067.08-.135.158-.204.234l-.03.034c-.303.344-.622.676-.952.996l-.028.028c-.07.066-.14.133-.212.199l-.069.065-.201.183-.084.075-.2.173-.088.074c-.068.057-.136.117-.205.17l-.076.062c-.242.195-.488.384-.74.565l-.068.05-.202.142-.117.081-.193.13-.133.086c-.062.041-.125.081-.188.117l-.142.09-.187.116-.148.087-.188.11-.155.087-.294.16-.215.117-.172.086-.18.09-.176.084-.183.084-.175.08-.189.081-.174.075-.197.08-.17.067-.216.082-.154.059-.32.117-.133.044c-.098.033-.195.065-.293.095-.05.017-.1.03-.15.046a9.154 9.154 0 01-.234.07l-.163.046-.227.062-.166.042-.234.056-.164.039a9.194 9.194 0 01-.244.052l-.152.033c-.098.02-.196.037-.293.056l-.107.02c-.133.023-.266.045-.4.065l-.11.017-.296.04-.152.02-.259.029-.164.016-.251.022-.166.013-.258.017-.16.009c-.094 0-.189.007-.282.01H24.134a17.299 17.299 0 01-13.112-5.991 17.26 17.26 0 01-4.221-11.81v-.118c0-.117.007-.234.014-.35 0-.037 0-.073.007-.11.007-.117.014-.234.023-.357 0-.03 0-.06.008-.09.01-.125.023-.25.037-.375l.007-.067v-.017H4.295V44.81H43.97V31.156h-3.628c-.347.916-.771 1.8-1.269 2.644l-.011.017zM24.13 7.667A17.349 17.349 0 0140.65 19.74c.74 2.325.983 4.78.71 7.205h2.606V5.17H4.291v13.674h3.628A17.341 17.341 0 0124.13 7.667z" fill="#C2CACC"/><path d="M30.06 41.288l.155-.058-.154.059zM29.168 41.59c.05-.016.1-.03.15-.047-.05.017-.1.03-.15.046zM29.61 41.449l.134-.045-.135.045zM31.162 40.847l.176-.08-.176.08zM30.8 41.004l.175-.075-.174.075zM30.434 41.151l.17-.068-.17.068zM27.982 41.904l.164-.039-.164.039zM27.586 41.99l.152-.032-.152.032zM28.377 41.81l.166-.043-.166.042zM27.188 42.065l.106-.02-.107.02zM28.771 41.705l.163-.045-.163.045zM34.008 39.246l.202-.143-.202.143zM34.273 39.053zM33.697 39.457l.193-.13-.193.13zM35.092 38.426c.069-.056.137-.117.205-.17a5.127 5.127 0 01-.205.17zM35.389 38.181l.2-.173-.2.173zM32.264 40.31c.1-.053.196-.106.293-.16-.097.054-.194.108-.293.16zM31.877 40.51l.172-.086-.172.086zM33.049 39.867l.187-.117-.187.117zM31.523 40.683l.176-.084-.176.084zM33.377 39.663c.063-.04.126-.08.188-.117l-.188.117zM6.815 24.07c-.007.118-.01.235-.014.352.003-.117.007-.234.014-.351zM10.488 35.702zM6.796 24.537zM11.293 36.654zM26.587 26.944h14.772A17.331 17.331 0 0028.21 8.15 17.346 17.346 0 007.916 18.843h18.67v8.101zM26.676 42.147l.11-.016-.11.016zM6.9 23.056v0zM11.87 37.257c.195.196.396.387.6.573-.2-.186-.405-.377-.6-.573zM6.886 23.14c-.014.125-.026.25-.036.376.014-.128.025-.245.036-.376zM6.846 23.605c-.01.117-.017.234-.024.357.007-.12.014-.239.024-.357zM25.389 42.287l.166-.013-.166.013zM25.803 42.252l.164-.016-.164.016zM26.227 42.207l.152-.019-.152.019zM24.97 42.313l.161-.01-.16.01zM14.092 39.135zM15.139 39.824zM12.783 38.106zM17.38 40.971zM32.713 40.063l.187-.11-.187.11zM37.135 36.463zM37.41 36.142c.067-.08.133-.16.199-.235-.066.08-.132.16-.199.235zM37.164 36.43zM40.342 31.157zM38.879 34.116c.06-.1.117-.199.181-.3l-.181.3zM37.853 35.596zM37.64 35.862zM35.678 37.934l.201-.182-.201.182zM35.943 37.686c.072-.066.142-.133.212-.2-.07.069-.14.134-.212.2z" fill="#29C555"/><path d="M6.823 23.962c0 .036 0 .072-.007.109l.007-.11zM6.856 23.516c0 .03-.006.06-.008.09l.008-.09zM28.146 41.865l.235-.056-.235.056zM28.54 41.768l.227-.062-.228.062zM28.932 41.66zM29.742 41.406l.32-.117-.32.117zM6.9 23.073l-.007.067.007-.067zM29.318 41.544zM39.06 33.817l.01-.018-.01.018zM24.688 42.323c.094 0 .189 0 .283-.01l-.284.01zM6.801 24.422v.117a.78.78 0 010-.117zM25.965 42.235l.26-.029-.26.03zM24.13 42.333h.421-.42zM25.13 42.304l.26-.016-.26.016zM25.555 42.274l.252-.022-.252.022zM26.379 42.188l.296-.041-.296.04zM27.293 42.045c.097-.018.195-.036.293-.056l-.293.056zM27.738 41.956zM35.588 38.013l.085-.076-.085.076zM26.785 42.13c.134-.02.267-.042.4-.065-.13.023-.264.042-.4.066zM33.572 39.543l.133-.087-.133.087zM32.9 39.953l.149-.086-.149.086zM36.154 37.488l.029-.029-.029.029zM33.236 39.752l.142-.088-.142.088zM37.133 36.464l.03-.035-.03.035zM33.893 39.326l.117-.08-.117.08zM35.02 38.489l.076-.063-.076.063zM35.299 38.257l.089-.075-.09.075zM34.213 39.103l.067-.05-.067.05zM35.875 37.753l.07-.066-.07.066zM32.559 40.15l.155-.087-.155.087zM32.049 40.424l.215-.117-.215.117zM37.846 35.608l.008-.012-.008.012zM31.701 40.6l.18-.09-.18.09zM30.973 40.93l.188-.083-.188.082zM31.338 40.767l.182-.084-.182.084zM30.217 41.234l.215-.082-.215.082zM30.604 41.084l.196-.08-.197.08zM37.607 35.907l.034-.044-.034.044zM37.37 36.193l.04-.048-.04.048z" fill="#926539"/><path d="M21.672 23.056H6.9v.017l-.007.067c-.014.125-.026.25-.036.375 0 .03-.006.06-.009.09-.009.117-.016.235-.023.357 0 .037 0 .073-.007.11-.007.116-.01.233-.014.35v.117a17.26 17.26 0 005.072 12.725 17.36 17.36 0 003.269 2.567 17.933 17.933 0 002.242 1.148 17.298 17.298 0 006.75 1.363H24.694c.094 0 .188 0 .282-.011l.16-.01.258-.016.166-.013.252-.022.163-.016.26-.03.151-.018.296-.041.11-.017c.134-.02.267-.042.4-.065l.107-.02c.097-.019.196-.036.293-.056l.152-.033c.082-.016.163-.034.244-.052l.164-.04.234-.055.167-.042.227-.062.162-.046c.08-.022.157-.046.234-.07l.15-.046c.098-.03.196-.062.293-.095l.133-.044.32-.117.154-.059.216-.082.17-.067.197-.08.174-.075.189-.082.175-.08.183-.084.176-.084.18-.089.172-.086.215-.117c.1-.053.197-.107.294-.16l.156-.087.187-.11.149-.087.187-.117.141-.089c.064-.04.127-.08.189-.117l.132-.086.193-.13.117-.08.203-.143.066-.05c.253-.18.499-.37.741-.565l.076-.062c.07-.056.137-.117.205-.17l.088-.074.2-.173.084-.075.202-.183.069-.065c.071-.066.141-.131.211-.2l.029-.027c.33-.32.648-.652.951-.996l.03-.034c.07-.078.137-.157.204-.234l.041-.048c.067-.08.132-.159.198-.234l.034-.043c.068-.084.136-.17.202-.255l.009-.01c.365-.474.707-.966 1.022-1.474v-.007c.061-.1.117-.199.182-.3l.01-.017c.498-.843.923-1.727 1.271-2.643H21.672v-8.12z" fill="#926539"/><path d="M45.137 26.944V4H3.121v14.843H0v1.17h25.418v8.101H48.26v-1.17h-3.123zm-1.17 0H26.588v-8.1H4.294V5.17h39.675l-.002 21.774z" fill="#383F44"/><path d="M44.552 29.987H22.843v-8.101H0v1.17h3.124V46h42.015V31.157h3.12v-1.17h-3.707zm-.585 14.843H4.292V23.056h17.38v8.1h22.295V44.83z" fill="#383F44"/></svg><svg viewBox="0 0 18 18" id="phone" xmlns="http://www.w3.org/2000/svg"><path fill-rule="evenodd" clip-rule="evenodd" d="M2.66 2.721c.785-1.1 2.364-1.198 3.245-.127l.224.273c.655.797 1.31 1.593 1.56 1.845a.75.75 0 01.114.916L6.425 7.925c.088.144.208.317.36.513.274.35.623.74 1.012 1.13.655.654 1.388 1.273 2.02 1.69l2.26-1.356a.75.75 0 01.87.071l2.182 1.846a2.04 2.04 0 01-.132 3.217c-1.67 1.193-3.913 1.476-5.75.354-1.267-.773-2.82-1.865-4.209-3.253a18.809 18.809 0 01-2.833-3.651c-1.118-1.876-.728-4.11.454-5.765zm2.087.826c-.232-.282-.634-.28-.867.046-.927 1.298-1.127 2.883-.386 4.124a17.307 17.307 0 002.605 3.359c1.278 1.278 2.725 2.3 3.929 3.034 1.24.757 2.831.61 4.097-.294a.54.54 0 00.035-.852l-1.772-1.5-2.191 1.316a.75.75 0 01-.756.009c-.861-.49-1.868-1.324-2.705-2.161a14.028 14.028 0 01-1.134-1.269c-.31-.398-.585-.814-.732-1.193a.75.75 0 01.055-.658L6.23 5.333a86.35 86.35 0 01-1.245-1.495c-.08-.1-.16-.197-.238-.291z"/></svg><svg fill="none" viewBox="0 0 50 50" id="price1" xmlns="http://www.w3.org/2000/svg"><path d="M45.833 19.792H30.5l-3.917-5.021a5.23 5.23 0 00-4.02-1.917H8.186A2.083 2.083 0 006.25 11.46H3.125a1.041 1.041 0 100 2.083H6.25v14.583H3.125a1.041 1.041 0 100 2.084H6.25a2.083 2.083 0 002.083-1.938h1.833a6.958 6.958 0 005.417 2.813h1.083v5.375a2.083 2.083 0 002.084 2.083h27.083a2.083 2.083 0 002.083-2.084V21.876a2.083 2.083 0 00-2.083-2.083zm-27.77 3.125a5.104 5.104 0 01-5.21-.646 1.083 1.083 0 00-1.478.146 1.022 1.022 0 00.146 1.458 7.563 7.563 0 005.145 1.5V29h-1.104a4.98 4.98 0 01-3.979-2.312 1.041 1.041 0 00-.896-.5H8.333v-11.25h14.23A3.124 3.124 0 0125 16.125l2.854 3.667h-4.688l-3-3.125a.98.98 0 00-.77-.354 1.042 1.042 0 00-.937 1.493c.069.14.168.264.29.36l3.292 3.376 4.521 4.604c-.225.27-.532.46-.875.542a2.897 2.897 0 01-2.437-.209c-.75-.541-3.146-2.687-4.021-3.458a1.062 1.062 0 00-1.167-.104zm27.77 13.541H18.75v-11c1.02.896 2.583 2.271 3.25 2.75a4.937 4.937 0 006.083-.624 2.083 2.083 0 00-.146-2.896l-2.75-2.813h20.646V36.46z" fill="#fff"/><path d="M32.292 33.333a4.166 4.166 0 100-8.331 4.166 4.166 0 000 8.331zm0-6.25a2.083 2.083 0 110 4.167 2.083 2.083 0 010-4.167z" fill="#fff"/></svg><svg fill="none" viewBox="0 0 50 50" id="price2" xmlns="http://www.w3.org/2000/svg"><path d="M11.458 27.084H9.375a1.041 1.041 0 100 2.083h2.083a1.042 1.042 0 100-2.084zM17.708 27.084h-2.083a1.042 1.042 0 100 2.083h2.083a1.042 1.042 0 100-2.084zM23.958 27.084h-2.083a1.042 1.042 0 100 2.083h2.083a1.042 1.042 0 100-2.084zM11.458 33.334H9.375a1.041 1.041 0 100 2.083h2.083a1.042 1.042 0 100-2.084zM17.708 33.334h-2.083a1.042 1.042 0 100 2.083h2.083a1.042 1.042 0 100-2.084zM23.958 33.334h-2.083a1.042 1.042 0 100 2.083h2.083a1.042 1.042 0 100-2.084zM11.458 39.584H9.375a1.041 1.041 0 100 2.083h2.083a1.042 1.042 0 100-2.084zM17.708 39.584h-2.083a1.042 1.042 0 100 2.083h2.083a1.042 1.042 0 100-2.084zM23.958 39.584h-2.083a1.042 1.042 0 100 2.083h2.083a1.042 1.042 0 100-2.084z" fill="#fff"/><path d="M45.833 8.334H31.25V4.167a2.083 2.083 0 00-2.084-2.083h-25a2.083 2.083 0 00-2.083 2.083v41.667a2.083 2.083 0 002.083 2.083h25a2.083 2.083 0 002.084-2.084v-6.25h14.583a2.083 2.083 0 002.083-2.083V10.417a2.083 2.083 0 00-2.083-2.083zm-6.25 2.083V37.5H37.5V10.417h2.083zM29.166 46.875v-1.041h-25V4.166h25v42.708zm2.084-36.458h4.166V37.5H31.25V10.417zM45.833 37.5h-4.167V10.417h4.167V37.5z" fill="#fff"/><path d="M22.916 8.334h-12.5a2.083 2.083 0 00-2.083 2.083v10.417a2.083 2.083 0 002.083 2.083h12.5A2.083 2.083 0 0025 20.833V10.418a2.083 2.083 0 00-2.084-2.083zm0 13.541v-1.041h-12.5V10.417h12.5v11.458z" fill="#fff"/></svg><svg fill="none" viewBox="0 0 50 50" id="price3" xmlns="http://www.w3.org/2000/svg"><path d="M9.375 29.291a1.041 1.041 0 100 2.084h6.25a1.041 1.041 0 100-2.084h-6.25z" fill="#fff"/><path d="M44.791 6.375H5.208A3.125 3.125 0 002.083 9.5v22.917a3.125 3.125 0 003.125 3.125h10.417a1.042 1.042 0 000-2.084H5.208a1.041 1.041 0 01-1.042-1.041V14.708h41.667v17.709a1.041 1.041 0 01-1.042 1.041h-2.083a1.042 1.042 0 000 2.084h2.083a3.125 3.125 0 003.125-3.125V9.5a3.125 3.125 0 00-3.125-3.125zm-40.625 6.25V9.5a1.042 1.042 0 011.042-1.042h39.583A1.042 1.042 0 0145.833 9.5v3.125H4.166z" fill="#fff"/><path d="M36.52 23.916a2.083 2.083 0 00-3.02 0l-12.188 12.75a.937.937 0 00-.23.396l-1.666 5.209a1.02 1.02 0 00.271 1.062c.196.189.457.294.73.292h.332l4.98-1.75c.154-.055.296-.14.416-.25l12.25-12.834a2.083 2.083 0 000-2.875l-1.875-2zM24.812 39.959l-2.77.959.874-2.98 9.542-9.979 1.875 1.959-9.521 10.041zm11.02-11.541l-1.874-2.084 1.041-1.083 1.875 1.958-1.041 1.209z" fill="#fff"/></svg><svg viewBox="0 0 30 30" id="sr-arrow-right" xmlns="http://www.w3.org/2000/svg"><path d="M17.134 5.366a1.25 1.25 0 00-1.768 1.768l6.616 6.616H5a1.25 1.25 0 100 2.5h16.982l-6.616 6.616a1.25 1.25 0 001.768 1.768l8.75-8.75a1.25 1.25 0 000-1.768l-8.75-8.75z"/></svg><svg viewBox="0 0 24 24" id="sr-chevron-left" xmlns="http://www.w3.org/2000/svg"><path fill-rule="evenodd" clip-rule="evenodd" d="M8.293 20.707a1 1 0 010-1.414L15.586 12 8.293 4.707a1 1 0 011.414-1.414l8 8a1 1 0 010 1.414l-8 8a1 1 0 01-1.414 0z"/></svg><svg viewBox="0 0 24 24" id="sr-chevron-right" xmlns="http://www.w3.org/2000/svg"><path fill-rule="evenodd" clip-rule="evenodd" d="M15.707 3.293a1 1 0 010 1.414L8.414 12l7.293 7.293a1 1 0 01-1.414 1.414l-8-8a1 1 0 010-1.414l8-8a1 1 0 011.414 0z"/></svg><svg fill="none" viewBox="0 0 20 20" id="sr-menu-horizontal-lite" xmlns="http://www.w3.org/2000/svg"><path d="M5 10a1.667 1.667 0 11-3.334 0A1.667 1.667 0 015 10zM11.666 10a1.667 1.667 0 11-3.333 0 1.667 1.667 0 013.333 0zM16.666 11.667a1.667 1.667 0 100-3.334 1.667 1.667 0 000 3.334z" fill="#fff"/></svg><svg viewBox="0 0 16 16" id="sr-placemarker" xmlns="http://www.w3.org/2000/svg"><path fill-rule="evenodd" clip-rule="evenodd" d="M8 0C4.334 0 1.335 2.911 1.335 6.533c0 2.445 1.464 4.8 2.91 6.485a16.938 16.938 0 002.118 2.077c.312.252.599.46.84.609.12.073.24.14.353.19.092.04.258.106.446.106.187 0 .354-.067.445-.107.113-.05.233-.116.353-.19.242-.148.529-.356.84-.608a16.94 16.94 0 002.118-2.077c1.446-1.685 2.91-4.04 2.91-6.485C14.667 2.911 11.668 0 8.001 0zM2.668 6.533c0-2.858 2.374-5.2 5.334-5.2 2.96 0 5.333 2.343 5.333 5.2 0 1.956-1.202 4.001-2.59 5.616A15.615 15.615 0 018.8 14.06c-.283.229-.522.4-.7.509a2.46 2.46 0 01-.1.058 2.46 2.46 0 01-.1-.058 6.975 6.975 0 01-.698-.509 15.617 15.617 0 01-1.946-1.91C3.87 10.534 2.667 8.49 2.667 6.533z"/><path fill-rule="evenodd" clip-rule="evenodd" d="M5.334 6.667a2.667 2.667 0 115.333 0 2.667 2.667 0 01-5.333 0zm1.333 0a1.333 1.333 0 112.667 0 1.333 1.333 0 01-2.667 0z"/></svg><svg fill="none" viewBox="0 0 20 20" id="sr-play-button" xmlns="http://www.w3.org/2000/svg"><path fill-rule="evenodd" clip-rule="evenodd" d="M14.608 10.707a.833.833 0 000-1.414L7.942 5.127a.833.833 0 00-1.275.706v8.334a.833.833 0 001.275.706l6.666-4.166zm-6.275 1.956V7.337L12.594 10l-4.26 2.663z" fill="#29C555"/><path fill-rule="evenodd" clip-rule="evenodd" d="M20 10c0 5.523-4.477 10-10 10S0 15.523 0 10 4.477 0 10 0s10 4.477 10 10zm-1.667 0a8.333 8.333 0 11-16.666 0 8.333 8.333 0 0116.666 0z" fill="#29C555"/></svg><svg fill="none" viewBox="0 0 26 26" id="tool" xmlns="http://www.w3.org/2000/svg"><path fill-rule="evenodd" clip-rule="evenodd" d="M14.03 14.313c.41-.41 1.007-.57 1.568-.42a4.873 4.873 0 004.71-1.263 4.872 4.872 0 001.336-4.399l-1.335 1.335a2.708 2.708 0 11-3.83-3.83L17.814 4.4a4.871 4.871 0 00-4.4 1.335 4.872 4.872 0 00-1.262 4.711c.15.56-.01 1.158-.42 1.568l-5.978 5.977a1.625 1.625 0 002.298 2.299l5.978-5.978zm1.149 1.15a6.502 6.502 0 007.617-8.937c-.274-.612-1.067-.678-1.54-.204L19.16 8.417a1.083 1.083 0 01-1.532-1.532l2.095-2.095c.474-.474.408-1.267-.204-1.54a6.503 6.503 0 00-8.937 7.616l-5.977 5.977a3.25 3.25 0 004.596 4.597l5.977-5.978z" fill="#926539"/></svg><svg fill="none" viewBox="0 0 24 24" id="upload" xmlns="http://www.w3.org/2000/svg"><path fill-rule="evenodd" clip-rule="evenodd" d="M4 14.25a.75.75 0 01.75.75v2c0 .69.56 1.25 1.25 1.25h12c.69 0 1.25-.56 1.25-1.25v-2a.75.75 0 011.5 0v2A2.75 2.75 0 0118 19.75H6A2.75 2.75 0 013.25 17v-2a.75.75 0 01.75-.75z" fill="#fff"/><path d="M6.972 11.032a.75.75 0 111.06-1.06l3.218 3.217V5.5a.75.75 0 011.5 0v7.69l3.22-3.22a.75.75 0 111.06 1.061l-4.5 4.5a.75.75 0 01-1.06 0l-4.498-4.498z" fill="#fff"/></svg><svg fill="none" viewBox="0 0 24 24" id="upload2" xmlns="http://www.w3.org/2000/svg"><path fill-rule="evenodd" clip-rule="evenodd" d="M4 14.25a.75.75 0 01.75.75v2c0 .69.56 1.25 1.25 1.25h12c.69 0 1.25-.56 1.25-1.25v-2a.75.75 0 011.5 0v2A2.75 2.75 0 0118 19.75H6A2.75 2.75 0 013.25 17v-2a.75.75 0 01.75-.75z" fill="#29C555"/><path d="M6.972 11.032a.75.75 0 111.06-1.06l3.218 3.217V5.5a.75.75 0 011.5 0v7.69l3.22-3.22a.75.75 0 111.06 1.061l-4.5 4.5a.75.75 0 01-1.06 0l-4.498-4.498z" fill="#29C555"/></svg><svg viewBox="0 0 24 24" id="vk" xmlns="http://www.w3.org/2000/svg"><path fill-rule="evenodd" clip-rule="evenodd" d="M1.684 1.684C0 3.368 0 6.079 0 11.5v1c0 5.42 0 8.132 1.684 9.816C3.368 24 6.079 24 11.5 24h1c5.42 0 8.132 0 9.816-1.684C24 20.632 24 17.921 24 12.5v-1c0-5.42 0-8.132-1.684-9.816C20.632 0 17.921 0 12.5 0h-1C6.08 0 3.368 0 1.684 1.684zM4.75 7.5H6.5c.447 0 .615.196.783.68.856 2.494 2.3 4.673 2.892 4.673.223 0 .325-.103.325-.668V9.608c-.04-.734-.296-1.05-.486-1.286-.117-.145-.21-.259-.21-.42 0-.196.168-.402.446-.402H13c.371 0 .5.198.5.643v3.467c0 .37.16.501.272.501.222 0 .408-.13.816-.538 1.26-1.409 2.15-3.578 2.15-3.578.112-.26.317-.495.762-.495h1.75c.53 0 .641.273.53.643-.223 1.02-2.355 4.023-2.355 4.023-.186.297-.26.445 0 .779.092.128.287.32.511.54.23.224.487.477.694.72.752.846 1.318 1.56 1.476 2.051.144.494-.106.744-.606.744h-1.75c-.469 0-.705-.262-1.215-.83-.216-.24-.481-.536-.834-.89-1.04-1-1.483-1.13-1.743-1.13-.352 0-.458.1-.458.6v1.57c0 .43-.138.68-1.25.68-1.854 0-3.892-1.126-5.337-3.202-2.17-3.04-2.763-5.34-2.763-5.803 0-.26.1-.495.6-.495z"/></svg></svg>