<svg width="20" height="20" viewBox="0 0 20 20" fill="none" xmlns="http://www.w3.org/2000/svg">
<path fill-rule="evenodd" clip-rule="evenodd" d="M10.3531 1.74519C10.646 1.88234 10.833 2.1765 10.833 2.49985V17.4998C10.833 17.8232 10.646 18.1174 10.3531 18.2545C10.0603 18.3917 9.71459 18.347 9.46619 18.14L4.69797 14.1665H1.66634C1.2061 14.1665 0.833008 13.7934 0.833008 13.3332V6.66651C0.833008 6.20628 1.2061 5.83318 1.66634 5.83318H4.69797L9.46619 1.85966C9.71459 1.65266 10.0603 1.60804 10.3531 1.74519ZM9.16634 4.27905L5.53316 7.3067C5.3834 7.4315 5.19462 7.49985 4.99967 7.49985H2.49967V12.4998H4.99967C5.19462 12.4998 5.3834 12.5682 5.53316 12.693L9.16634 15.7206V4.27905Z" fill="#926539"/>
<path d="M12.7438 6.91058C13.0692 6.58514 13.5968 6.58514 13.9223 6.91058L15.833 8.82133L17.7437 6.91058C18.0692 6.58514 18.5968 6.58514 18.9223 6.91058C19.2477 7.23602 19.2477 7.76366 18.9223 8.08909L17.0115 9.99984L18.9223 11.9106C19.2477 12.236 19.2477 12.7637 18.9223 13.0891C18.5968 13.4145 18.0692 13.4145 17.7437 13.0891L15.833 11.1783L13.9223 13.0891C13.5968 13.4145 13.0692 13.4145 12.7438 13.0891C12.4183 12.7637 12.4183 12.236 12.7438 11.9106L14.6545 9.99984L12.7438 8.08909C12.4183 7.76366 12.4183 7.23602 12.7438 6.91058Z" fill="#926539"/>
</svg>
